SplineFontDB: 3.2
FontName: Atari-825-Proportional-UL
FullName: Atari 825 Proportional UL Regular
FamilyName: Atari 825 Proportional UL
Weight: Book
Copyright: Copyright jeffpiep 2020\n"Atari 825 Proportional
Version: 1.0
ItalicAngle: 0
UnderlinePosition: 74.707
UnderlineWidth: 49.8047
Ascent: 800
Descent: 200
InvalidEm: 0
sfntRevision: 0x00010000
LayerCount: 2
Layer: 0 1 "Back" 1
Layer: 1 1 "Fore" 0
XUID: [1021 376 -1330786101 17611]
StyleMap: 0x0040
FSType: 4
OS2Version: 2
OS2_WeightWidthSlopeOnly: 0
OS2_UseTypoMetrics: 0
CreationTime: 1592490441
ModificationTime: 1592620286
PfmFamily: 81
TTFWeight: 400
TTFWidth: 5
LineGap: 0
VLineGap: 0
Panose: 0 0 4 0 0 0 0 0 0 0
OS2TypoAscent: 810
OS2TypoAOffset: 0
OS2TypoDescent: -231
OS2TypoDOffset: 0
OS2TypoLinegap: 0
OS2WinAscent: 810
OS2WinAOffset: 0
OS2WinDescent: 231
OS2WinDOffset: 0
HheadAscent: 810
HheadAOffset: 0
HheadDescent: -231
HheadDOffset: 0
OS2SubXSize: 500
OS2SubYSize: 500
OS2SubXOff: 0
OS2SubYOff: -116
OS2SupXSize: 500
OS2SupYSize: 500
OS2SupXOff: 0
OS2SupYOff: 500
OS2StrikeYSize: 50
OS2StrikeYPos: 200
OS2CapHeight: 1053
OS2XHeight: 821
OS2Vendor: 'FSTR'
OS2CodePages: 00000001.00000000
OS2UnicodeRanges: 80000001.00000000.00000000.00000000
MarkAttachClasses: 1
DEI: 91125
ShortTable: maxp 16
  1
  0
  102
  768
  32
  0
  0
  2
  0
  0
  0
  0
  0
  0
  0
  0
EndShort
LangName: 1033 "Copyright jeffpiep 2020+AAogHAAA-Atari 825 Proportional" "" "Regular" "Atari 825 Proportional UL" "" "Version 1.0" "" "FontStruct is a trademark of FontStruct.com" "https://fontstruct.com" "jeffpiep" "+IBwA-Atari 825 Proportional UL+IB0A was built with FontStruct+AAogHAAA-Atari 825 Proportional" "https://fontstruct.com/fontstructions/show/1773950/atari-825-proportional-3" "https://fontstruct.com/fontstructors/show/1011029/jeffpiep" "Open Font License" "" "" "" "" "" "Five big quacking zephyrs jolt my wax bed"
Encoding: win
UnicodeInterp: none
NameList: AGL For New Fonts
DisplaySize: -48
AntiAlias: 1
FitToEm: 0
WinInfo: 0 38 12

StartChar: space
Encoding: 32 32 0
Width: 291
VWidth: 750
Flags: W
LayerCount: 2
Fore
SplineSet
20 -167 m 1,0,1
 20 -167 l 1,2,-1
 20 -167 l 1,3,4
 20 -167 l 1,5,-1
 20 -167 l 1,0,1
104 -167 m 1,6,7
 104 -167 l 1,8,-1
 104 -167 l 1,9,10
 104 -167 l 1,11,-1
 104 -167 l 1,6,7
188 -167 m 1,12,13
 188 -167 l 1,14,-1
 188 -167 l 1,15,16
 188 -167 l 1,17,-1
 188 -167 l 1,12,13
0 -173 m 1,18,19
 -17 -173 -17 -173 -29 -160 c 0,20,21
 -41 -146 -41 -146 -41 -125 c 256,22,23
 -41 -105 -41 -105 -29 -92 c 256,24,25
 -17 -78 -17 -78 0 -78 c 0,26,27
 11 -78 11 -78 20 -84 c 1,28,-1
 20 -84 l 1,29,30
 30 -78 30 -78 41 -78 c 0,31,32
 53 -78 53 -78 62 -84 c 1,33,-1
 62 -84 l 1,34,35
 72 -78 72 -78 83 -78 c 0,36,37
 95 -78 95 -78 104 -84 c 1,38,-1
 104 -84 l 1,39,40
 113 -78 113 -78 125 -78 c 0,41,42
 136 -78 136 -78 146 -84 c 1,43,-1
 146 -84 l 1,44,45
 154 -78 154 -78 166 -78 c 128,-1,46
 178 -78 178 -78 188 -84 c 1,47,-1
 188 -84 l 1,48,49
 197 -78 197 -78 208 -78 c 0,50,51
 220 -78 220 -78 229 -84 c 1,52,-1
 229 -84 l 1,53,54
 239 -78 239 -78 250 -78 c 0,55,56
 267 -78 267 -78 280 -92 c 0,57,58
 292 -106 292 -106 292 -125 c 256,59,60
 292 -145 292 -145 280 -160 c 0,61,62
 267.866666667 -173.066666667 267.866666667 -173.066666667 252.248888889 -173.066666667 c 0,63,64
 251.133333333 -173.066666667 251.133333333 -173.066666667 250 -173 c 0,65,66
 239 -173 239 -173 229 -167 c 1,67,68
 220 -173 220 -173 208 -173 c 0,69,70
 198 -173 198 -173 188 -167 c 1,71,-1
 188 -167 l 1,72,73
 178 -173 178 -173 166 -173 c 128,-1,74
 154 -173 154 -173 146 -167 c 1,75,-1
 146 -167 l 1,76,77
 136 -173 136 -173 125 -173 c 0,78,79
 113 -173 113 -173 104 -167 c 1,80,-1
 104 -167 l 1,81,82
 95 -173 95 -173 83 -173 c 0,83,84
 72 -173 72 -173 62 -167 c 1,85,-1
 62 -167 l 1,86,87
 53 -173 53 -173 41 -173 c 0,88,89
 30 -173 30 -173 20 -167 c 1,90,-1
 20 -167 l 1,91,92
 11 -173 11 -173 0 -173 c 1,93,-1
 0 -173 l 1,18,19
EndSplineSet
EndChar

StartChar: exclam
Encoding: 33 33 1
Width: 291
VWidth: 750
Flags: W
LayerCount: 2
Fore
SplineSet
20 -167 m 1,0,1
 20 -167 l 1,2,-1
 20 -167 l 1,3,4
 20 -167 l 1,5,-1
 20 -167 l 1,0,1
104 -167 m 1,6,7
 104 -167 l 1,8,-1
 104 -167 l 1,9,10
 104 -167 l 1,11,-1
 104 -167 l 1,6,7
188 -167 m 1,12,13
 188 -167 l 1,14,-1
 188 -167 l 1,15,16
 188 -167 l 1,17,-1
 188 -167 l 1,12,13
0 -173 m 1,18,19
 -17 -173 -17 -173 -29 -160 c 0,20,21
 -41 -146 -41 -146 -41 -125 c 256,22,23
 -41 -105 -41 -105 -29 -92 c 256,24,25
 -17 -78 -17 -78 0 -78 c 0,26,27
 11 -78 11 -78 20 -84 c 1,28,-1
 20 -84 l 1,29,30
 30 -78 30 -78 41 -78 c 0,31,32
 53 -78 53 -78 62 -84 c 1,33,-1
 62 -84 l 1,34,35
 72 -78 72 -78 83 -78 c 0,36,37
 95 -78 95 -78 104 -84 c 1,38,-1
 104 -84 l 1,39,40
 113 -78 113 -78 125 -78 c 0,41,42
 136 -78 136 -78 146 -84 c 1,43,-1
 146 -84 l 1,44,45
 154 -78 154 -78 166 -78 c 128,-1,46
 178 -78 178 -78 188 -84 c 1,47,-1
 188 -84 l 1,48,49
 197 -78 197 -78 208 -78 c 0,50,51
 220 -78 220 -78 229 -84 c 1,52,-1
 229 -84 l 1,53,54
 239 -78 239 -78 250 -78 c 0,55,56
 267 -78 267 -78 280 -92 c 0,57,58
 292 -106 292 -106 292 -125 c 256,59,60
 292 -145 292 -145 280 -160 c 0,61,62
 267.866666667 -173.066666667 267.866666667 -173.066666667 252.248888889 -173.066666667 c 0,63,64
 251.133333333 -173.066666667 251.133333333 -173.066666667 250 -173 c 0,65,66
 239 -173 239 -173 229 -167 c 1,67,68
 220 -173 220 -173 208 -173 c 0,69,70
 198 -173 198 -173 188 -167 c 1,71,-1
 188 -167 l 1,72,73
 178 -173 178 -173 166 -173 c 128,-1,74
 154 -173 154 -173 146 -167 c 1,75,-1
 146 -167 l 1,76,77
 136 -173 136 -173 125 -173 c 0,78,79
 113 -173 113 -173 104 -167 c 1,80,-1
 104 -167 l 1,81,82
 95 -173 95 -173 83 -173 c 0,83,84
 72 -173 72 -173 62 -167 c 1,85,-1
 62 -167 l 1,86,87
 53 -173 53 -173 41 -173 c 0,88,89
 30 -173 30 -173 20 -167 c 1,90,-1
 20 -167 l 1,91,92
 11 -173 11 -173 0 -173 c 1,93,-1
 0 -173 l 1,18,19
125 0 m 1,94,95
 108 0 108 0 95 14 c 0,96,97
 83 28 83 28 83 47 c 256,98,99
 83 67 83 67 95 81 c 0,100,101
 108 95 108 95 125 95 c 256,102,103
 142 95 142 95 154 81 c 128,-1,104
 166 67 166 67 166 47 c 256,105,106
 166 27 166 27 154 14 c 0,107,108
 142 0 142 0 125 0 c 1,109,-1
 125 0 l 1,94,95
125 260 m 1,110,111
 108 260 108 260 95 274 c 0,112,113
 83 288 83 288 83 308 c 256,114,115
 83 328 83 328 95 342 c 0,116,117
 100 348 100 348 107 352 c 1,118,-1
 107 352 l 1,119,120
 100 355 100 355 95 361 c 0,121,122
 83 374 83 374 83 394 c 256,123,124
 83 414 83 414 95 428 c 0,125,126
 100 434 100 434 107 438 c 1,127,-1
 107 438 l 1,128,129
 100 441 100 441 95 448 c 0,130,131
 83 462 83 462 83 482 c 256,132,133
 83 502 83 502 95 515 c 0,134,135
 100 521 100 521 107 525 c 1,136,-1
 107 525 l 1,137,138
 100 528 100 528 95 535 c 0,139,140
 83 548 83 548 83 568 c 256,141,142
 83 588 83 588 95 602 c 0,143,144
 108 616 108 616 125 616 c 256,145,146
 142 616 142 616 154 602 c 128,-1,147
 166 588 166 588 166 568 c 256,148,149
 166 548 166 548 154 535 c 0,150,151
 148 529 148 529 142 525 c 1,152,-1
 142 525 l 1,153,154
 148 521 148 521 154 515 c 0,155,156
 166 502 166 502 166 482 c 256,157,158
 166 462 166 462 154 448 c 0,159,160
 148 442 148 442 142 438 c 1,161,-1
 142 438 l 1,162,163
 148 434 148 434 154 428 c 0,164,165
 166 414 166 414 166 394 c 256,166,167
 166 374 166 374 154 361 c 0,168,169
 148 355 148 355 142 352 c 1,170,-1
 142 352 l 1,171,172
 148 348 148 348 154 342 c 0,173,174
 166 328 166 328 166 308 c 256,175,176
 166 288 166 288 154 274 c 128,-1,177
 142 260 142 260 125 260 c 1,178,-1
 125 260 l 1,110,111
EndSplineSet
EndChar

StartChar: quotedbl
Encoding: 34 34 2
Width: 416
VWidth: 750
Flags: W
LayerCount: 2
Fore
SplineSet
20 -167 m 1,0,1
 20 -167 l 1,2,-1
 20 -167 l 1,3,4
 20 -167 l 1,5,-1
 20 -167 l 1,0,1
104 -167 m 1,6,7
 104 -167 l 1,8,-1
 104 -167 l 1,9,10
 104 -167 l 1,11,-1
 104 -167 l 1,6,7
188 -167 m 1,12,13
 188 -167 l 1,14,-1
 188 -167 l 1,15,16
 188 -167 l 1,17,-1
 188 -167 l 1,12,13
271 -167 m 1,18,19
 271 -167 l 1,20,-1
 271 -167 l 1,21,22
 271 -167 l 1,23,-1
 271 -167 l 1,18,19
354 -167 m 1,24,25
 354 -167 l 1,26,-1
 354 -167 l 1,27,28
 354 -167 l 1,29,-1
 354 -167 l 1,24,25
0 -173 m 1,30,31
 -17 -173 -17 -173 -29 -160 c 0,32,33
 -41 -146 -41 -146 -41 -125 c 256,34,35
 -41 -105 -41 -105 -29 -92 c 256,36,37
 -17 -78 -17 -78 0 -78 c 0,38,39
 11 -78 11 -78 20 -84 c 1,40,-1
 20 -84 l 1,41,42
 30 -78 30 -78 41 -78 c 0,43,44
 53 -78 53 -78 62 -84 c 1,45,-1
 62 -84 l 1,46,47
 72 -78 72 -78 83 -78 c 0,48,49
 95 -78 95 -78 104 -84 c 1,50,-1
 104 -84 l 1,51,52
 113 -78 113 -78 125 -78 c 0,53,54
 136 -78 136 -78 146 -84 c 1,55,-1
 146 -84 l 1,56,57
 154 -78 154 -78 166 -78 c 128,-1,58
 178 -78 178 -78 188 -84 c 1,59,-1
 188 -84 l 1,60,61
 197 -78 197 -78 208 -78 c 0,62,63
 220 -78 220 -78 229 -84 c 1,64,-1
 229 -84 l 1,65,66
 239 -78 239 -78 250 -78 c 0,67,68
 262 -78 262 -78 271 -84 c 1,69,-1
 271 -84 l 1,70,71
 280 -78 280 -78 292 -78 c 0,72,73
 303 -78 303 -78 313 -84 c 1,74,-1
 313 -84 l 1,75,76
 322 -78 322 -78 333 -78 c 128,-1,77
 344 -78 344 -78 354 -84 c 1,78,-1
 354 -84 l 1,79,80
 363 -78 363 -78 375 -78 c 0,81,82
 392 -78 392 -78 404 -92 c 256,83,84
 416 -106 416 -106 416 -125 c 256,85,86
 416 -145 416 -145 404 -160 c 0,87,88
 392.8 -173.066666667 392.8 -173.066666667 377.244444444 -173.066666667 c 0,89,90
 376.133333333 -173.066666667 376.133333333 -173.066666667 375 -173 c 0,91,92
 363 -173 363 -173 354 -167 c 1,93,94
 344 -173 344 -173 333 -173 c 0,95,96
 321 -173 321 -173 313 -167 c 1,97,-1
 313 -167 l 1,98,99
 303 -173 303 -173 292 -173 c 0,100,101
 280 -173 280 -173 271 -167 c 1,102,-1
 271 -167 l 1,103,104
 262 -173 262 -173 250 -173 c 0,105,106
 239 -173 239 -173 229 -167 c 1,107,108
 220 -173 220 -173 208 -173 c 0,109,110
 198 -173 198 -173 188 -167 c 1,111,-1
 188 -167 l 1,112,113
 178 -173 178 -173 166 -173 c 128,-1,114
 154 -173 154 -173 146 -167 c 1,115,-1
 146 -167 l 1,116,117
 136 -173 136 -173 125 -173 c 0,118,119
 113 -173 113 -173 104 -167 c 1,120,-1
 104 -167 l 1,121,122
 95 -173 95 -173 83 -173 c 0,123,124
 72 -173 72 -173 62 -167 c 1,125,-1
 62 -167 l 1,126,127
 53 -173 53 -173 41 -173 c 0,128,129
 30 -173 30 -173 20 -167 c 1,130,-1
 20 -167 l 1,131,132
 11 -173 11 -173 0 -173 c 1,133,-1
 0 -173 l 1,30,31
41 347 m 1,134,135
 24 347 24 347 12 361 c 256,136,137
 0 374 0 374 0 394 c 256,138,139
 0 414 0 414 12 428 c 0,140,141
 17 434 17 434 24 438 c 1,142,-1
 24 438 l 1,143,144
 18 441 18 441 12 448 c 0,145,146
 0 462 0 462 0 482 c 256,147,148
 0 502 0 502 12 515 c 0,149,150
 17 521 17 521 24 525 c 1,151,-1
 24 525 l 1,152,153
 18 528 18 528 12 535 c 0,154,155
 0 548 0 548 0 568 c 256,156,157
 0 588 0 588 12 602 c 256,158,159
 24 616 24 616 41 616 c 256,160,161
 58 616 58 616 71 602 c 0,162,163
 83 588 83 588 83 568 c 256,164,165
 83 548 83 548 71 535 c 0,166,167
 66 529 66 529 59 525 c 1,168,-1
 59 525 l 1,169,170
 65 521 65 521 71 515 c 0,171,172
 83 502 83 502 83 482 c 256,173,174
 83 462 83 462 71 448 c 0,175,176
 66 442 66 442 59 438 c 1,177,-1
 59 438 l 1,178,179
 65 434 65 434 71 428 c 0,180,181
 83 414 83 414 83 394 c 256,182,183
 83 374 83 374 71 361 c 0,184,185
 58 347 58 347 41 347 c 1,186,-1
 41 347 l 1,134,135
208 347 m 1,187,188
 190 347 190 347 178 361 c 256,189,190
 166 374 166 374 166 394 c 256,191,192
 166 414 166 414 178 428 c 0,193,194
 182 434 182 434 190 438 c 1,195,-1
 190 438 l 1,196,197
 184 441 184 441 178 448 c 0,198,199
 166 462 166 462 166 482 c 256,200,201
 166 502 166 502 178 515 c 0,202,203
 182 521 182 521 190 525 c 1,204,-1
 190 525 l 1,205,206
 184 528 184 528 178 535 c 0,207,208
 166 548 166 548 166 568 c 256,209,210
 166 588 166 588 178 602 c 256,211,212
 190 616 190 616 208 616 c 256,213,214
 225 616 225 616 238 602 c 0,215,216
 250 588 250 588 250 568 c 256,217,218
 250 548 250 548 238 535 c 0,219,220
 233 529 233 529 226 525 c 1,221,-1
 226 525 l 1,222,223
 232 521 232 521 238 515 c 0,224,225
 250 502 250 502 250 482 c 256,226,227
 250 462 250 462 238 448 c 0,228,229
 233 442 233 442 226 438 c 1,230,-1
 226 438 l 1,231,232
 232 434 232 434 238 428 c 0,233,234
 250 414 250 414 250 394 c 256,235,236
 250 374 250 374 238 361 c 0,237,238
 225 347 225 347 208 347 c 1,239,-1
 208 347 l 1,187,188
EndSplineSet
EndChar

StartChar: numbersign
Encoding: 35 35 3
Width: 624
VWidth: 750
Flags: W
LayerCount: 2
Fore
SplineSet
20 -167 m 1,0,1
 20 -167 l 1,2,-1
 20 -167 l 1,3,4
 20 -167 l 1,5,-1
 20 -167 l 1,0,1
104 -167 m 1,6,7
 104 -167 l 1,8,-1
 104 -167 l 1,9,10
 104 -167 l 1,11,-1
 104 -167 l 1,6,7
188 -167 m 1,12,13
 188 -167 l 1,14,-1
 188 -167 l 1,15,16
 188 -167 l 1,17,-1
 188 -167 l 1,12,13
271 -167 m 1,18,19
 271 -167 l 1,20,-1
 271 -167 l 1,21,22
 271 -167 l 1,23,-1
 271 -167 l 1,18,19
354 -167 m 1,24,25
 354 -167 l 1,26,-1
 354 -167 l 1,27,28
 354 -167 l 1,29,-1
 354 -167 l 1,24,25
437 -167 m 1,30,31
 437 -167 l 1,32,-1
 437 -167 l 1,33,34
 437 -167 l 1,35,-1
 437 -167 l 1,30,31
520 -167 m 1,36,37
 520 -167 l 1,38,-1
 520 -167 l 1,39,40
 520 -167 l 1,41,-1
 520 -167 l 1,36,37
0 -173 m 1,42,43
 -17 -173 -17 -173 -29 -160 c 0,44,45
 -41 -146 -41 -146 -41 -125 c 256,46,47
 -41 -105 -41 -105 -29 -92 c 256,48,49
 -17 -78 -17 -78 0 -78 c 0,50,51
 11 -78 11 -78 20 -84 c 1,52,-1
 20 -84 l 1,53,54
 30 -78 30 -78 41 -78 c 0,55,56
 53 -78 53 -78 62 -84 c 1,57,-1
 62 -84 l 1,58,59
 72 -78 72 -78 83 -78 c 0,60,61
 95 -78 95 -78 104 -84 c 1,62,-1
 104 -84 l 1,63,64
 113 -78 113 -78 125 -78 c 0,65,66
 136 -78 136 -78 146 -84 c 1,67,-1
 146 -84 l 1,68,69
 154 -78 154 -78 166 -78 c 128,-1,70
 178 -78 178 -78 188 -84 c 1,71,-1
 188 -84 l 1,72,73
 197 -78 197 -78 208 -78 c 0,74,75
 220 -78 220 -78 229 -84 c 1,76,-1
 229 -84 l 1,77,78
 239 -78 239 -78 250 -78 c 0,79,80
 262 -78 262 -78 271 -84 c 1,81,-1
 271 -84 l 1,82,83
 280 -78 280 -78 292 -78 c 0,84,85
 303 -78 303 -78 313 -84 c 1,86,-1
 313 -84 l 1,87,88
 322 -78 322 -78 333 -78 c 128,-1,89
 344 -78 344 -78 354 -84 c 1,90,-1
 354 -84 l 1,91,92
 363 -78 363 -78 375 -78 c 0,93,94
 386 -78 386 -78 395 -84 c 1,95,-1
 395 -84 l 1,96,97
 405 -78 405 -78 416 -78 c 0,98,99
 428 -78 428 -78 437 -84 c 1,100,-1
 437 -84 l 1,101,102
 447 -78 447 -78 458 -78 c 0,103,104
 470 -78 470 -78 479 -84 c 1,105,-1
 479 -84 l 1,106,107
 488 -78 488 -78 500 -78 c 0,108,109
 510 -78 510 -78 520 -84 c 1,110,-1
 520 -84 l 1,111,112
 530 -78 530 -78 542 -78 c 0,113,114
 552 -78 552 -78 562 -84 c 1,115,-1
 562 -84 l 1,116,117
 571 -78 571 -78 583 -78 c 0,118,119
 600 -78 600 -78 613 -92 c 0,120,121
 625 -106 625 -106 625 -125 c 256,122,123
 625 -145 625 -145 613 -160 c 0,124,125
 600.866666667 -173.066666667 600.866666667 -173.066666667 585.248888889 -173.066666667 c 0,126,127
 584.133333333 -173.066666667 584.133333333 -173.066666667 583 -173 c 0,128,129
 572 -173 572 -173 562 -167 c 1,130,131
 552 -173 552 -173 542 -173 c 0,132,133
 530 -173 530 -173 520 -167 c 1,134,135
 510 -173 510 -173 500 -173 c 0,136,137
 488 -173 488 -173 479 -167 c 1,138,139
 470 -173 470 -173 458 -173 c 0,140,141
 447 -173 447 -173 437 -167 c 1,142,143
 428 -173 428 -173 416 -173 c 0,144,145
 405 -173 405 -173 395 -167 c 1,146,147
 386 -173 386 -173 375 -173 c 0,148,149
 363 -173 363 -173 354 -167 c 1,150,151
 344 -173 344 -173 333 -173 c 0,152,153
 321 -173 321 -173 313 -167 c 1,154,-1
 313 -167 l 1,155,156
 303 -173 303 -173 292 -173 c 0,157,158
 280 -173 280 -173 271 -167 c 1,159,-1
 271 -167 l 1,160,161
 262 -173 262 -173 250 -173 c 0,162,163
 239 -173 239 -173 229 -167 c 1,164,165
 220 -173 220 -173 208 -173 c 0,166,167
 198 -173 198 -173 188 -167 c 1,168,-1
 188 -167 l 1,169,170
 178 -173 178 -173 166 -173 c 128,-1,171
 154 -173 154 -173 146 -167 c 1,172,-1
 146 -167 l 1,173,174
 136 -173 136 -173 125 -173 c 0,175,176
 113 -173 113 -173 104 -167 c 1,177,-1
 104 -167 l 1,178,179
 95 -173 95 -173 83 -173 c 0,180,181
 72 -173 72 -173 62 -167 c 1,182,-1
 62 -167 l 1,183,184
 53 -173 53 -173 41 -173 c 0,185,186
 30 -173 30 -173 20 -167 c 1,187,-1
 20 -167 l 1,188,189
 11 -173 11 -173 0 -173 c 1,190,-1
 0 -173 l 1,42,43
104 180 m 1,191,-1
 104 180 l 1,192,-1
 104 180 l 1,193,-1
 104 180 l 1,194,-1
 104 180 l 1,191,-1
188 180 m 1,195,-1
 188 180 l 1,196,-1
 188 180 l 1,197,-1
 188 180 l 1,198,-1
 188 180 l 1,195,-1
271 180 m 1,199,-1
 271 180 l 1,200,-1
 271 180 l 1,201,-1
 271 180 l 1,202,-1
 271 180 l 1,199,-1
354 180 m 1,203,-1
 354 180 l 1,204,-1
 354 180 l 1,205,-1
 354 180 l 1,206,-1
 354 180 l 1,203,-1
146 262 m 1,207,208
 154 268 154 268 166 268 c 128,-1,209
 178 268 178 268 188 262 c 1,210,-1
 188 262 l 1,211,212
 197 268 197 268 208 268 c 0,213,214
 220 268 220 268 229 262 c 1,215,-1
 229 262 l 1,216,217
 239 268 239 268 250 268 c 0,218,219
 262 268 262 268 271 262 c 1,220,-1
 271 262 l 1,221,222
 273 263 273 263 274 265 c 1,223,-1
 274 265 l 1,224,225
 267 268 267 268 262 274 c 0,226,227
 250 288 250 288 250 308 c 256,228,229
 250 328 250 328 262 342 c 0,230,231
 267 348 267 348 274 352 c 1,232,-1
 274 352 l 1,233,234
 272 353 272 353 271 353 c 1,235,-1
 271 353 l 1,236,237
 262 347 262 347 250 347 c 0,238,239
 239 347 239 347 229 353 c 1,240,-1
 229 353 l 1,241,242
 220 347 220 347 208 347 c 0,243,244
 198 347 198 347 188 353 c 1,245,246
 178 347 178 347 166 347 c 128,-1,247
 154 347 154 347 146 353 c 1,248,249
 144 352 144 352 142 352 c 1,250,-1
 142 352 l 1,251,252
 148 348 148 348 154 342 c 0,253,254
 166 328 166 328 166 308 c 256,255,256
 166 288 166 288 154 274 c 0,257,258
 148 268 148 268 142 265 c 1,259,-1
 142 265 l 1,260,261
 144 264 144 264 146 262 c 1,262,-1
 146 262 l 1,207,208
62 353 m 1,263,-1
 62 353 l 1,264,-1
 62 353 l 1,265,-1
 62 353 l 1,266,-1
 62 353 l 1,263,-1
146 353 m 1,267,-1
 146 353 l 1,268,-1
 146 353 l 1,269,-1
 146 353 l 1,270,-1
 146 353 l 1,267,-1
229 353 m 1,271,-1
 229 353 l 1,272,-1
 229 353 l 1,273,-1
 229 353 l 1,274,-1
 229 353 l 1,271,-1
313 353 m 1,275,-1
 313 353 l 1,276,-1
 313 353 l 1,277,-1
 313 353 l 1,278,-1
 313 353 l 1,275,-1
125 0 m 1,279,280
 108 0 108 0 95 14 c 0,281,282
 83 28 83 28 83 47 c 256,283,284
 83 67 83 67 95 81 c 0,285,286
 100 87 100 87 107 91 c 1,287,-1
 107 91 l 1,288,289
 100 94 100 94 95 100 c 0,290,291
 83 114 83 114 83 134 c 256,292,293
 83 154 83 154 95 168 c 0,294,295
 100 174 100 174 107 178 c 1,296,-1
 107 178 l 1,297,298
 105 179 105 179 104 180 c 1,299,300
 95 174 95 174 83 173 c 0,301,302
 72 173 72 173 62 180 c 1,303,-1
 62 180 l 1,304,305
 53 174 53 174 41 173 c 0,306,307
 24 174 24 174 12 188 c 256,308,309
 0 202 0 202 0 221 c 256,310,311
 0 241 0 241 12 255 c 256,312,313
 24 268 24 268 41 268 c 0,314,315
 53 268 53 268 62 262 c 1,316,-1
 62 262 l 1,317,318
 72 268 72 268 83 268 c 0,319,320
 95 268 95 268 104 262 c 1,321,-1
 104 262 l 1,322,323
 106 263 106 263 107 265 c 1,324,-1
 107 265 l 1,325,326
 100 268 100 268 95 274 c 0,327,328
 83 288 83 288 83 308 c 256,329,330
 83 328 83 328 95 342 c 0,331,332
 100 348 100 348 107 352 c 1,333,-1
 107 352 l 1,334,335
 105 353 105 353 104 353 c 1,336,-1
 104 353 l 1,337,338
 95 347 95 347 83 347 c 0,339,340
 72 347 72 347 62 353 c 1,341,-1
 62 353 l 1,342,343
 53 347 53 347 41 347 c 0,344,345
 24 347 24 347 12 361 c 256,346,347
 0 374 0 374 0 394 c 256,348,349
 0 414 0 414 12 428 c 256,350,351
 24 442 24 442 41 442 c 0,352,353
 53 442 53 442 62 436 c 1,354,-1
 62 436 l 1,355,356
 72 442 72 442 83 442 c 0,357,358
 95 442 95 442 104 436 c 1,359,-1
 104 436 l 1,360,361
 106 437 106 437 107 438 c 1,362,-1
 107 438 l 1,363,364
 100 441 100 441 95 448 c 0,365,366
 83 462 83 462 83 482 c 256,367,368
 83 502 83 502 95 515 c 0,369,370
 100 521 100 521 107 525 c 1,371,-1
 107 525 l 1,372,373
 100 528 100 528 95 535 c 0,374,375
 83 548 83 548 83 568 c 256,376,377
 83 588 83 588 95 602 c 0,378,379
 108 616 108 616 125 616 c 256,380,381
 142 616 142 616 154 602 c 128,-1,382
 166 588 166 588 166 568 c 256,383,384
 166 548 166 548 154 535 c 0,385,386
 148 529 148 529 142 525 c 1,387,-1
 142 525 l 1,388,389
 148 521 148 521 154 515 c 0,390,391
 166 502 166 502 166 482 c 256,392,393
 166 462 166 462 154 448 c 0,394,395
 148 442 148 442 142 438 c 1,396,-1
 142 438 l 1,397,398
 144 436 144 436 146 436 c 1,399,-1
 146 436 l 1,400,401
 154 442 154 442 166 442 c 128,-1,402
 178 442 178 442 188 436 c 1,403,-1
 188 436 l 1,404,405
 197 442 197 442 208 442 c 0,406,407
 220 442 220 442 229 436 c 1,408,-1
 229 436 l 1,409,410
 239 442 239 442 250 442 c 0,411,412
 262 442 262 442 271 436 c 1,413,-1
 271 436 l 1,414,415
 273 437 273 437 274 438 c 1,416,-1
 274 438 l 1,417,418
 267 441 267 441 262 448 c 0,419,420
 250 462 250 462 250 482 c 256,421,422
 250 502 250 502 262 515 c 0,423,424
 267 521 267 521 274 525 c 1,425,-1
 274 525 l 1,426,427
 267 528 267 528 262 535 c 0,428,429
 250 548 250 548 250 568 c 256,430,431
 250 588 250 588 262 602 c 0,432,433
 275 616 275 616 292 616 c 256,434,435
 309 616 309 616 321 602 c 0,436,437
 333.071428571 589 333.071428571 589 333.071428571 570.826530612 c 0,438,439
 333.071428571 548.077380952 333.071428571 548.077380952 321 535 c 0,440,441
 316 529 316 529 309 525 c 1,442,-1
 309 525 l 1,443,444
 316 521 316 521 321 515 c 0,445,446
 333.071428571 502.928571429 333.071428571 502.928571429 333.071428571 484.821428571 c 0,447,448
 333.071428571 462.083333333 333.071428571 462.083333333 321 448 c 0,449,450
 316 442 316 442 309 438 c 1,451,-1
 309 438 l 1,452,453
 311 436 311 436 313 436 c 1,454,-1
 313 436 l 1,455,456
 322 442 322 442 333 442 c 128,-1,457
 344 442 344 442 354 436 c 1,458,-1
 354 436 l 1,459,460
 363 442 363 442 375 442 c 0,461,462
 392 442 392 442 404 428 c 256,463,464
 416 414 416 414 416 394 c 256,465,466
 416 374 416 374 404 361 c 256,467,468
 392 347 392 347 375 347 c 0,469,470
 363 347 363 347 354 353 c 1,471,472
 344 347 344 347 333 347 c 0,473,474
 321 347 321 347 313 353 c 1,475,-1
 313 353 l 1,476,477
 311 352 311 352 309 352 c 1,478,-1
 309 352 l 1,479,480
 316 348 316 348 321 342 c 0,481,482
 333.071428571 329 333.071428571 329 333.071428571 310.826530612 c 0,483,484
 333.071428571 288.083333333 333.071428571 288.083333333 321 274 c 0,485,486
 316 268 316 268 309 265 c 1,487,-1
 309 265 l 1,488,489
 311 264 311 264 313 262 c 1,490,-1
 313 262 l 1,491,492
 322 268 322 268 333 268 c 128,-1,493
 344 268 344 268 354 262 c 1,494,-1
 354 262 l 1,495,496
 363 268 363 268 375 268 c 0,497,498
 392 268 392 268 404 255 c 256,499,500
 416 241 416 241 416 221 c 256,501,502
 416 202 416 202 404 188 c 256,503,504
 392 174 392 174 375 173 c 0,505,506
 363 173 363 173 354 180 c 1,507,508
 344 174 344 174 333 173 c 0,509,510
 321 173 321 173 313 180 c 1,511,512
 311 179 311 179 309 178 c 1,513,-1
 309 178 l 1,514,515
 316 175 316 175 321 168 c 0,516,517
 333.071428571 155 333.071428571 155 333.071428571 136.826530612 c 0,518,519
 333.071428571 114.083333333 333.071428571 114.083333333 321 100 c 0,520,521
 316 94 316 94 309 91 c 1,522,-1
 309 91 l 1,523,524
 316 88 316 88 321 81 c 0,525,526
 333.071428571 68 333.071428571 68 333.071428571 49.8265306122 c 0,527,528
 333.071428571 27.0773809524 333.071428571 27.0773809524 321 14 c 0,529,530
 309 0 309 0 292 0 c 256,531,532
 275 0 275 0 262 14 c 0,533,534
 250 28 250 28 250 47 c 256,535,536
 250 67 250 67 262 81 c 0,537,538
 267 87 267 87 274 91 c 1,539,-1
 274 91 l 1,540,541
 267 94 267 94 262 100 c 0,542,543
 250 114 250 114 250 134 c 256,544,545
 250 154 250 154 262 168 c 0,546,547
 267 174 267 174 274 178 c 1,548,-1
 274 178 l 1,549,550
 272 179 272 179 271 180 c 1,551,-1
 271 180 l 1,552,553
 262 174 262 174 250 173 c 0,554,555
 239 173 239 173 229 180 c 1,556,-1
 229 180 l 1,557,558
 220 174 220 174 208 173 c 0,559,560
 198 173 198 173 188 180 c 1,561,-1
 188 180 l 1,562,563
 178 174 178 174 166 173 c 0,564,565
 154 173 154 173 146 180 c 1,566,-1
 146 180 l 1,567,568
 144 179 144 179 142 178 c 1,569,-1
 142 178 l 1,570,571
 148 175 148 175 154 168 c 0,572,573
 166 154 166 154 166 134 c 256,574,575
 166 114 166 114 154 100 c 0,576,577
 148 94 148 94 142 91 c 1,578,-1
 142 91 l 1,579,580
 148 88 148 88 154 81 c 0,581,582
 166 67 166 67 166 47 c 256,583,584
 166 27 166 27 154 14 c 0,585,586
 142 0 142 0 125 0 c 1,587,-1
 125 0 l 1,279,280
EndSplineSet
EndChar

StartChar: dollar
Encoding: 36 36 4
Width: 499
VWidth: 750
Flags: W
LayerCount: 2
Fore
SplineSet
20 -167 m 1,0,1
 20 -167 l 1,2,-1
 20 -167 l 1,3,4
 20 -167 l 1,5,-1
 20 -167 l 1,0,1
104 -167 m 1,6,7
 104 -167 l 1,8,-1
 104 -167 l 1,9,10
 104 -167 l 1,11,-1
 104 -167 l 1,6,7
188 -167 m 1,12,13
 188 -167 l 1,14,-1
 188 -167 l 1,15,16
 188 -167 l 1,17,-1
 188 -167 l 1,12,13
271 -167 m 1,18,19
 271 -167 l 1,20,-1
 271 -167 l 1,21,22
 271 -167 l 1,23,-1
 271 -167 l 1,18,19
354 -167 m 1,24,25
 354 -167 l 1,26,-1
 354 -167 l 1,27,28
 354 -167 l 1,29,-1
 354 -167 l 1,24,25
437 -167 m 1,30,31
 437 -167 l 1,32,-1
 437 -167 l 1,33,34
 437 -167 l 1,35,-1
 437 -167 l 1,30,31
0 -173 m 1,36,37
 -17 -173 -17 -173 -29 -160 c 0,38,39
 -41 -146 -41 -146 -41 -125 c 256,40,41
 -41 -105 -41 -105 -29 -92 c 256,42,43
 -17 -78 -17 -78 0 -78 c 0,44,45
 11 -78 11 -78 20 -84 c 1,46,-1
 20 -84 l 1,47,48
 30 -78 30 -78 41 -78 c 0,49,50
 53 -78 53 -78 62 -84 c 1,51,-1
 62 -84 l 1,52,53
 72 -78 72 -78 83 -78 c 0,54,55
 95 -78 95 -78 104 -84 c 1,56,-1
 104 -84 l 1,57,58
 113 -78 113 -78 125 -78 c 0,59,60
 136 -78 136 -78 146 -84 c 1,61,-1
 146 -84 l 1,62,63
 154 -78 154 -78 166 -78 c 128,-1,64
 178 -78 178 -78 188 -84 c 1,65,-1
 188 -84 l 1,66,67
 197 -78 197 -78 208 -78 c 0,68,69
 220 -78 220 -78 229 -84 c 1,70,-1
 229 -84 l 1,71,72
 239 -78 239 -78 250 -78 c 0,73,74
 262 -78 262 -78 271 -84 c 1,75,-1
 271 -84 l 1,76,77
 280 -78 280 -78 292 -78 c 0,78,79
 303 -78 303 -78 313 -84 c 1,80,-1
 313 -84 l 1,81,82
 322 -78 322 -78 333 -78 c 128,-1,83
 344 -78 344 -78 354 -84 c 1,84,-1
 354 -84 l 1,85,86
 363 -78 363 -78 375 -78 c 0,87,88
 386 -78 386 -78 395 -84 c 1,89,-1
 395 -84 l 1,90,91
 405 -78 405 -78 416 -78 c 0,92,93
 428 -78 428 -78 437 -84 c 1,94,-1
 437 -84 l 1,95,96
 447 -78 447 -78 458 -78 c 0,97,98
 476 -78 476 -78 488 -92 c 128,-1,99
 500 -106 500 -106 500 -125 c 256,100,101
 500 -145 500 -145 488 -160 c 0,102,103
 475.866666667 -173.066666667 475.866666667 -173.066666667 460.248888889 -173.066666667 c 0,104,105
 459.133333333 -173.066666667 459.133333333 -173.066666667 458 -173 c 0,106,107
 447 -173 447 -173 437 -167 c 1,108,109
 428 -173 428 -173 416 -173 c 0,110,111
 405 -173 405 -173 395 -167 c 1,112,113
 386 -173 386 -173 375 -173 c 0,114,115
 363 -173 363 -173 354 -167 c 1,116,117
 344 -173 344 -173 333 -173 c 0,118,119
 321 -173 321 -173 313 -167 c 1,120,-1
 313 -167 l 1,121,122
 303 -173 303 -173 292 -173 c 0,123,124
 280 -173 280 -173 271 -167 c 1,125,-1
 271 -167 l 1,126,127
 262 -173 262 -173 250 -173 c 0,128,129
 239 -173 239 -173 229 -167 c 1,130,131
 220 -173 220 -173 208 -173 c 0,132,133
 198 -173 198 -173 188 -167 c 1,134,-1
 188 -167 l 1,135,136
 178 -173 178 -173 166 -173 c 128,-1,137
 154 -173 154 -173 146 -167 c 1,138,-1
 146 -167 l 1,139,140
 136 -173 136 -173 125 -173 c 0,141,142
 113 -173 113 -173 104 -167 c 1,143,-1
 104 -167 l 1,144,145
 95 -173 95 -173 83 -173 c 0,146,147
 72 -173 72 -173 62 -167 c 1,148,-1
 62 -167 l 1,149,150
 53 -173 53 -173 41 -173 c 0,151,152
 30 -173 30 -173 20 -167 c 1,153,-1
 20 -167 l 1,154,155
 11 -173 11 -173 0 -173 c 1,156,-1
 0 -173 l 1,36,37
104 93 m 1,157,-1
 104 93 l 1,158,-1
 104 93 l 1,159,-1
 104 93 l 1,160,-1
 104 93 l 1,157,-1
146 93 m 1,161,-1
 146 93 l 1,162,-1
 146 93 l 1,163,-1
 146 93 l 1,164,-1
 146 93 l 1,161,-1
229 93 m 1,165,-1
 229 93 l 1,166,-1
 229 93 l 1,167,-1
 229 93 l 1,168,-1
 229 93 l 1,165,-1
313 93 m 1,169,-1
 313 93 l 1,170,-1
 313 93 l 1,171,-1
 313 93 l 1,172,-1
 313 93 l 1,169,-1
104 266 m 1,173,-1
 104 266 l 1,174,-1
 104 266 l 1,175,-1
 104 266 l 1,176,-1
 104 266 l 1,173,-1
188 266 m 1,177,-1
 188 266 l 1,178,-1
 188 266 l 1,179,-1
 188 266 l 1,180,-1
 188 266 l 1,177,-1
271 266 m 1,181,-1
 271 266 l 1,182,-1
 271 266 l 1,183,-1
 271 266 l 1,184,-1
 271 266 l 1,181,-1
375 173 m 1,185,186
 358 174 358 174 345 188 c 256,187,188
 333 202 333 202 333 221 c 256,189,190
 333 241 333 241 345 255 c 256,191,192
 357 268 357 268 375 268 c 0,193,194
 392 268 392 268 404 255 c 256,195,196
 416 241 416 241 416 221 c 256,197,198
 416 202 416 202 404 188 c 256,199,200
 392 174 392 174 375 173 c 1,201,-1
 375 173 l 1,185,186
146 440 m 1,202,-1
 146 440 l 1,203,-1
 146 440 l 1,204,-1
 146 440 l 1,205,-1
 146 440 l 1,202,-1
229 440 m 1,206,-1
 229 440 l 1,207,-1
 229 440 l 1,208,-1
 229 440 l 1,209,-1
 229 440 l 1,206,-1
313 440 m 1,210,-1
 313 440 l 1,211,-1
 313 440 l 1,212,-1
 313 440 l 1,213,-1
 313 440 l 1,210,-1
41 347 m 1,214,215
 24 347 24 347 12 361 c 256,216,217
 0 374 0 374 0 394 c 256,218,219
 0 414 0 414 12 428 c 256,220,221
 24 442 24 442 41 442 c 256,222,223
 58 442 58 442 71 428 c 0,224,225
 83 414 83 414 83 394 c 256,226,227
 83 374 83 374 71 361 c 0,228,229
 58 347 58 347 41 347 c 1,230,-1
 41 347 l 1,214,215
208 0 m 1,231,232
 190 0 190 0 178 14 c 256,233,234
 166 28 166 28 166 47 c 256,235,236
 166 67 166 67 178 81 c 0,237,238
 182 87 182 87 190 91 c 1,239,-1
 190 91 l 1,240,241
 188 92 188 92 188 93 c 1,242,243
 178 87 178 87 166 87 c 128,-1,244
 154 87 154 87 146 93 c 1,245,246
 136 87 136 87 125 87 c 0,247,248
 113 87 113 87 104 93 c 1,249,-1
 104 93 l 1,250,251
 95 87 95 87 83 87 c 0,252,253
 81.8666666667 86.9333333333 81.8666666667 86.9333333333 80.7555555556 86.9333333333 c 0,254,255
 65.2 86.9333333333 65.2 86.9333333333 54 100 c 0,256,257
 41 114 41 114 41 134 c 256,258,259
 41 154 41 154 54 168 c 0,260,261
 66 182 66 182 83 182 c 0,262,263
 95 182 95 182 104 176 c 1,264,-1
 104 176 l 1,265,266
 113 182 113 182 125 182 c 0,267,268
 136 182 136 182 146 176 c 1,269,-1
 146 176 l 1,270,271
 154 182 154 182 166 182 c 128,-1,272
 178 182 178 182 188 176 c 1,273,-1
 188 176 l 1,274,275
 190 177 190 177 190 178 c 1,276,-1
 190 178 l 1,277,278
 184 182 184 182 178 188 c 0,279,280
 166 202 166 202 166 221 c 256,281,282
 166 241 166 241 178 255 c 0,283,284
 182 261 182 261 190 265 c 1,285,-1
 190 265 l 1,286,-1
 188 266 l 1,287,-1
 188 266 l 1,288,289
 178 260 178 260 166 260 c 128,-1,290
 154 260 154 260 146 266 c 1,291,-1
 146 266 l 1,292,293
 136 260 136 260 125 260 c 0,294,295
 113 260 113 260 104 266 c 1,296,297
 95 260 95 260 83 260 c 0,298,299
 66 260 66 260 54 274 c 0,300,301
 41 288 41 288 41 308 c 256,302,303
 41 328 41 328 54 342 c 0,304,305
 66 356 66 356 83 356 c 0,306,307
 95 356 95 356 104 350 c 1,308,-1
 104 350 l 1,309,310
 113 356 113 356 125 356 c 0,311,312
 136 356 136 356 146 350 c 1,313,-1
 146 350 l 1,314,315
 154 356 154 356 166 356 c 128,-1,316
 178 356 178 356 188 350 c 1,317,-1
 188 350 l 1,318,319
 190 351 190 351 190 352 c 1,320,-1
 190 352 l 1,321,322
 184 355 184 355 178 361 c 0,323,324
 166 374 166 374 166 394 c 256,325,326
 166 414 166 414 178 428 c 0,327,328
 182 434 182 434 190 438 c 1,329,-1
 190 438 l 1,330,331
 188 439 188 439 188 440 c 1,332,333
 178 434 178 434 166 434 c 128,-1,334
 154 434 154 434 146 440 c 1,335,336
 136 434 136 434 125 434 c 0,337,338
 113 434 113 434 104 440 c 1,339,-1
 104 440 l 1,340,341
 95 434 95 434 83 434 c 0,342,343
 66 434 66 434 54 448 c 0,344,345
 41 462 41 462 41 482 c 256,346,347
 41 502 41 502 54 515 c 0,348,349
 66 530 66 530 83 530 c 0,350,351
 95 530 95 530 104 523 c 1,352,-1
 104 523 l 1,353,354
 113 530 113 530 125 530 c 0,355,356
 136 530 136 530 146 523 c 1,357,-1
 146 523 l 1,358,359
 154 530 154 530 166 530 c 128,-1,360
 178 530 178 530 188 523 c 1,361,-1
 188 523 l 1,362,363
 190 524 190 524 190 525 c 1,364,-1
 190 525 l 1,365,366
 184 528 184 528 178 535 c 0,367,368
 166 548 166 548 166 568 c 256,369,370
 166 588 166 588 178 602 c 256,371,372
 190 616 190 616 208 616 c 256,373,374
 225 616 225 616 238 602 c 0,375,376
 250 588 250 588 250 568 c 256,377,378
 250 548 250 548 238 535 c 0,379,380
 233 529 233 529 226 525 c 1,381,-1
 226 525 l 1,382,383
 228 524 228 524 229 523 c 1,384,-1
 229 523 l 1,385,386
 239 530 239 530 250 530 c 0,387,388
 262 530 262 530 271 523 c 1,389,-1
 271 523 l 1,390,391
 280 530 280 530 292 530 c 0,392,393
 303 530 303 530 313 523 c 1,394,-1
 313 523 l 1,395,396
 322 530 322 530 333 530 c 0,397,398
 350 530 350 530 362 515 c 0,399,400
 375 502 375 502 375 482 c 256,401,402
 375 462 375 462 362 448 c 0,403,404
 350 434 350 434 333 434 c 0,405,406
 321 434 321 434 313 440 c 1,407,-1
 313 440 l 1,408,409
 303 434 303 434 292 434 c 0,410,411
 280 434 280 434 271 440 c 1,412,413
 262 434 262 434 250 434 c 0,414,415
 239 434 239 434 229 440 c 1,416,-1
 229 440 l 1,417,418
 227 439 227 439 226 438 c 1,419,-1
 226 438 l 1,420,421
 232 434 232 434 238 428 c 0,422,423
 250 414 250 414 250 394 c 256,424,425
 250 374 250 374 238 361 c 0,426,427
 233 355 233 355 226 352 c 1,428,-1
 226 352 l 1,429,430
 228 352 228 352 229 350 c 1,431,-1
 229 350 l 1,432,433
 239 356 239 356 250 356 c 0,434,435
 262 356 262 356 271 350 c 1,436,-1
 271 350 l 1,437,438
 280 356 280 356 292 356 c 0,439,440
 303 356 303 356 313 350 c 1,441,-1
 313 350 l 1,442,443
 322 356 322 356 333 356 c 0,444,445
 350 356 350 356 362 342 c 0,446,447
 375 328 375 328 375 308 c 256,448,449
 375 288 375 288 362 274 c 0,450,451
 350 260 350 260 333 260 c 0,452,453
 321 260 321 260 313 266 c 1,454,-1
 313 266 l 1,455,456
 303 260 303 260 292 260 c 0,457,458
 280 260 280 260 271 266 c 1,459,-1
 271 266 l 1,460,461
 262 260 262 260 250 260 c 0,462,463
 239 260 239 260 229 266 c 1,464,465
 227 265 227 265 226 265 c 1,466,-1
 226 265 l 1,467,468
 232 262 232 262 238 255 c 0,469,470
 250 241 250 241 250 221 c 256,471,472
 250 202 250 202 238 188 c 0,473,474
 233 182 233 182 226 178 c 1,475,-1
 226 178 l 1,476,477
 228 178 228 178 229 176 c 1,478,-1
 229 176 l 1,479,480
 239 182 239 182 250 182 c 0,481,482
 262 182 262 182 271 176 c 1,483,-1
 271 176 l 1,484,485
 280 182 280 182 292 182 c 0,486,487
 303 182 303 182 313 176 c 1,488,-1
 313 176 l 1,489,490
 322 182 322 182 333 182 c 0,491,492
 350 182 350 182 362 168 c 0,493,494
 375 154 375 154 375 134 c 256,495,496
 375 114 375 114 362 100 c 0,497,498
 350.8 86.9333333333 350.8 86.9333333333 335.244444444 86.9333333333 c 0,499,500
 334.133333333 86.9333333333 334.133333333 86.9333333333 333 87 c 0,501,502
 321 87 321 87 313 93 c 1,503,-1
 313 93 l 1,504,505
 303 87 303 87 292 87 c 0,506,507
 280 87 280 87 271 93 c 1,508,509
 262 87 262 87 250 87 c 0,510,511
 239 87 239 87 229 93 c 1,512,-1
 229 93 l 1,513,514
 227 92 227 92 226 91 c 1,515,-1
 226 91 l 1,516,517
 232 88 232 88 238 81 c 0,518,519
 250 67 250 67 250 47 c 256,520,521
 250 27 250 27 238 14 c 0,522,523
 225 0 225 0 208 0 c 1,524,-1
 208 0 l 1,231,232
EndSplineSet
EndChar

StartChar: percent
Encoding: 37 37 5
Width: 666
VWidth: 750
Flags: W
LayerCount: 2
Fore
SplineSet
20 -167 m 1,0,1
 20 -167 l 1,2,-1
 20 -167 l 1,3,4
 20 -167 l 1,5,-1
 20 -167 l 1,0,1
104 -167 m 1,6,7
 104 -167 l 1,8,-1
 104 -167 l 1,9,10
 104 -167 l 1,11,-1
 104 -167 l 1,6,7
188 -167 m 1,12,13
 188 -167 l 1,14,-1
 188 -167 l 1,15,16
 188 -167 l 1,17,-1
 188 -167 l 1,12,13
271 -167 m 1,18,19
 271 -167 l 1,20,-1
 271 -167 l 1,21,22
 271 -167 l 1,23,-1
 271 -167 l 1,18,19
354 -167 m 1,24,25
 354 -167 l 1,26,-1
 354 -167 l 1,27,28
 354 -167 l 1,29,-1
 354 -167 l 1,24,25
437 -167 m 1,30,31
 437 -167 l 1,32,-1
 437 -167 l 1,33,34
 437 -167 l 1,35,-1
 437 -167 l 1,30,31
520 -167 m 1,36,37
 520 -167 l 1,38,-1
 520 -167 l 1,39,40
 520 -167 l 1,41,-1
 520 -167 l 1,36,37
604 -167 m 1,42,43
 604 -167 l 1,44,-1
 604 -167 l 1,45,46
 604 -167 l 1,47,-1
 604 -167 l 1,42,43
0 -173 m 1,48,49
 -17 -173 -17 -173 -29 -160 c 0,50,51
 -41 -146 -41 -146 -41 -125 c 256,52,53
 -41 -105 -41 -105 -29 -92 c 256,54,55
 -17 -78 -17 -78 0 -78 c 0,56,57
 11 -78 11 -78 20 -84 c 1,58,-1
 20 -84 l 1,59,60
 30 -78 30 -78 41 -78 c 0,61,62
 53 -78 53 -78 62 -84 c 1,63,-1
 62 -84 l 1,64,65
 72 -78 72 -78 83 -78 c 0,66,67
 95 -78 95 -78 104 -84 c 1,68,-1
 104 -84 l 1,69,70
 113 -78 113 -78 125 -78 c 0,71,72
 136 -78 136 -78 146 -84 c 1,73,-1
 146 -84 l 1,74,75
 154 -78 154 -78 166 -78 c 128,-1,76
 178 -78 178 -78 188 -84 c 1,77,-1
 188 -84 l 1,78,79
 197 -78 197 -78 208 -78 c 0,80,81
 220 -78 220 -78 229 -84 c 1,82,-1
 229 -84 l 1,83,84
 239 -78 239 -78 250 -78 c 0,85,86
 262 -78 262 -78 271 -84 c 1,87,-1
 271 -84 l 1,88,89
 280 -78 280 -78 292 -78 c 0,90,91
 303 -78 303 -78 313 -84 c 1,92,-1
 313 -84 l 1,93,94
 322 -78 322 -78 333 -78 c 128,-1,95
 344 -78 344 -78 354 -84 c 1,96,-1
 354 -84 l 1,97,98
 363 -78 363 -78 375 -78 c 0,99,100
 386 -78 386 -78 395 -84 c 1,101,-1
 395 -84 l 1,102,103
 405 -78 405 -78 416 -78 c 0,104,105
 428 -78 428 -78 437 -84 c 1,106,-1
 437 -84 l 1,107,108
 447 -78 447 -78 458 -78 c 0,109,110
 470 -78 470 -78 479 -84 c 1,111,-1
 479 -84 l 1,112,113
 488 -78 488 -78 500 -78 c 0,114,115
 510 -78 510 -78 520 -84 c 1,116,-1
 520 -84 l 1,117,118
 530 -78 530 -78 542 -78 c 0,119,120
 552 -78 552 -78 562 -84 c 1,121,-1
 562 -84 l 1,122,123
 571 -78 571 -78 583 -78 c 128,-1,124
 595 -78 595 -78 604 -84 c 1,125,-1
 604 -84 l 1,126,127
 614 -78 614 -78 625 -78 c 0,128,129
 642 -78 642 -78 655 -92 c 0,130,131
 667 -106 667 -106 667 -125 c 256,132,133
 667 -145 667 -145 655 -160 c 0,134,135
 642.866666667 -173.066666667 642.866666667 -173.066666667 627.248888889 -173.066666667 c 0,136,137
 626.133333333 -173.066666667 626.133333333 -173.066666667 625 -173 c 0,138,139
 614 -173 614 -173 604 -167 c 1,140,141
 595 -173 595 -173 583 -173 c 0,142,143
 572 -173 572 -173 562 -167 c 1,144,145
 552 -173 552 -173 542 -173 c 0,146,147
 530 -173 530 -173 520 -167 c 1,148,149
 510 -173 510 -173 500 -173 c 0,150,151
 488 -173 488 -173 479 -167 c 1,152,153
 470 -173 470 -173 458 -173 c 0,154,155
 447 -173 447 -173 437 -167 c 1,156,157
 428 -173 428 -173 416 -173 c 0,158,159
 405 -173 405 -173 395 -167 c 1,160,161
 386 -173 386 -173 375 -173 c 0,162,163
 363 -173 363 -173 354 -167 c 1,164,165
 344 -173 344 -173 333 -173 c 0,166,167
 321 -173 321 -173 313 -167 c 1,168,-1
 313 -167 l 1,169,170
 303 -173 303 -173 292 -173 c 0,171,172
 280 -173 280 -173 271 -167 c 1,173,-1
 271 -167 l 1,174,175
 262 -173 262 -173 250 -173 c 0,176,177
 239 -173 239 -173 229 -167 c 1,178,179
 220 -173 220 -173 208 -173 c 0,180,181
 198 -173 198 -173 188 -167 c 1,182,-1
 188 -167 l 1,183,184
 178 -173 178 -173 166 -173 c 128,-1,185
 154 -173 154 -173 146 -167 c 1,186,-1
 146 -167 l 1,187,188
 136 -173 136 -173 125 -173 c 0,189,190
 113 -173 113 -173 104 -167 c 1,191,-1
 104 -167 l 1,192,193
 95 -173 95 -173 83 -173 c 0,194,195
 72 -173 72 -173 62 -167 c 1,196,-1
 62 -167 l 1,197,198
 53 -173 53 -173 41 -173 c 0,199,200
 30 -173 30 -173 20 -167 c 1,201,-1
 20 -167 l 1,202,203
 11 -173 11 -173 0 -173 c 1,204,-1
 0 -173 l 1,48,49
395 6 m 1,205,-1
 395 6 l 1,206,-1
 395 6 l 1,207,-1
 395 6 l 1,208,-1
 395 6 l 1,205,-1
375 0 m 1,209,210
 358 0 358 0 345 14 c 256,211,212
 333 28 333 28 333 47 c 256,213,214
 333 67 333 67 345 81 c 256,215,216
 357 95 357 95 375 95 c 0,217,218
 386 95 386 95 395 89 c 1,219,-1
 395 89 l 1,220,221
 405 95 405 95 416 95 c 0,222,223
 428 95 428 95 437 89 c 1,224,-1
 437 89 l 1,225,226
 447 95 447 95 458 95 c 0,227,228
 476 95 476 95 488 81 c 128,-1,229
 500 67 500 67 500 47 c 256,230,231
 500 27 500 27 488 14 c 0,232,233
 475 0 475 0 458 0 c 0,234,235
 447 0 447 0 437 6 c 1,236,237
 428 0 428 0 416 0 c 0,238,239
 405 0 405 0 395 6 c 1,240,241
 386 0 386 0 375 0 c 1,242,-1
 375 0 l 1,209,210
437 180 m 1,243,-1
 437 180 l 1,244,-1
 437 180 l 1,245,-1
 437 180 l 1,246,-1
 437 180 l 1,243,-1
166 87 m 1,247,248
 164.866666667 86.9333333333 164.866666667 86.9333333333 163.755555556 86.9333333333 c 0,249,250
 148.2 86.9333333333 148.2 86.9333333333 137 100 c 0,251,252
 125 114 125 114 125 134 c 256,253,254
 125 154 125 154 137 168 c 0,255,256
 150 182 150 182 166 182 c 256,257,258
 183 182 183 182 196 168 c 256,259,260
 208 154 208 154 208 134 c 256,261,262
 208 114 208 114 196 100 c 256,263,264
 184.8 86.9333333333 184.8 86.9333333333 168.373333333 86.9333333333 c 0,265,266
 167.2 86.9333333333 167.2 86.9333333333 166 87 c 1,267,-1
 166 87 l 1,247,248
333 87 m 1,268,269
 331.866666667 86.9333333333 331.866666667 86.9333333333 330.755555556 86.9333333333 c 0,270,271
 315.2 86.9333333333 315.2 86.9333333333 304 100 c 0,272,273
 292 114 292 114 292 134 c 256,274,275
 292 154 292 154 304 168 c 0,276,277
 317 182 317 182 333 182 c 256,278,279
 350 182 350 182 362 168 c 0,280,281
 375 154 375 154 375 134 c 256,282,283
 375 114 375 114 362 100 c 0,284,285
 350.8 86.9333333333 350.8 86.9333333333 335.244444444 86.9333333333 c 0,286,287
 334.133333333 86.9333333333 334.133333333 86.9333333333 333 87 c 1,288,-1
 333 87 l 1,268,269
500 87 m 1,289,290
 498.866666667 86.9333333333 498.866666667 86.9333333333 497.751111111 86.9333333333 c 0,291,292
 482.133333333 86.9333333333 482.133333333 86.9333333333 470 100 c 0,293,294
 458 114 458 114 458 134 c 256,295,296
 458 154 458 154 470 168 c 0,297,298
 483 182 483 182 500 182 c 256,299,300
 518 182 518 182 530 168 c 0,301,302
 542.25 155.75 542.25 155.75 542.25 138.90625 c 0,303,304
 542.25 114.291666667 542.25 114.291666667 530 100 c 0,305,306
 518.8 86.9333333333 518.8 86.9333333333 502.373333333 86.9333333333 c 0,307,308
 501.2 86.9333333333 501.2 86.9333333333 500 87 c 1,309,-1
 500 87 l 1,289,290
208 173 m 1,310,311
 190 174 190 174 178 188 c 256,312,313
 166 202 166 202 166 221 c 256,314,315
 166 241 166 241 178 255 c 256,316,317
 190 268 190 268 208 268 c 256,318,319
 225 268 225 268 238 255 c 0,320,321
 250 241 250 241 250 221 c 256,322,323
 250 202 250 202 238 188 c 0,324,325
 225 174 225 174 208 173 c 1,326,-1
 208 173 l 1,310,311
375 173 m 1,327,328
 358 174 358 174 345 188 c 256,329,330
 333 202 333 202 333 221 c 256,331,332
 333 241 333 241 345 255 c 256,333,334
 357 268 357 268 375 268 c 0,335,336
 386 268 386 268 395 262 c 1,337,-1
 395 262 l 1,338,339
 405 268 405 268 416 268 c 0,340,341
 428 268 428 268 437 262 c 1,342,-1
 437 262 l 1,343,344
 447 268 447 268 458 268 c 0,345,346
 476 268 476 268 488 255 c 0,347,348
 500 241 500 241 500 221 c 256,349,350
 500 202 500 202 488 188 c 0,351,352
 475 174 475 174 458 173 c 0,353,354
 447 173 447 173 437 180 c 1,355,356
 428 174 428 174 416 173 c 0,357,358
 405 173 405 173 395 180 c 1,359,360
 386 174 386 174 375 173 c 1,361,-1
 375 173 l 1,327,328
104 353 m 1,362,-1
 104 353 l 1,363,-1
 104 353 l 1,364,-1
 104 353 l 1,365,-1
 104 353 l 1,362,-1
250 260 m 1,366,367
 232 260 232 260 220 274 c 0,368,369
 207.928571429 287 207.928571429 287 207.928571429 305.173469388 c 0,370,371
 207.928571429 327.916666667 207.928571429 327.916666667 220 342 c 128,-1,372
 232 356 232 356 250 356 c 256,373,374
 267 356 267 356 280 342 c 0,375,376
 292 328 292 328 292 308 c 256,377,378
 292 288 292 288 280 274 c 0,379,380
 267 260 267 260 250 260 c 1,381,-1
 250 260 l 1,366,367
41 347 m 1,382,383
 24 347 24 347 12 361 c 256,384,385
 0 374 0 374 0 394 c 256,386,387
 0 414 0 414 12 428 c 256,388,389
 24 442 24 442 41 442 c 0,390,391
 53 442 53 442 62 436 c 1,392,-1
 62 436 l 1,393,394
 72 442 72 442 83 442 c 0,395,396
 95 442 95 442 104 436 c 1,397,-1
 104 436 l 1,398,399
 113 442 113 442 125 442 c 0,400,401
 142 442 142 442 154 428 c 128,-1,402
 166 414 166 414 166 394 c 256,403,404
 166 374 166 374 154 361 c 0,405,406
 142 347 142 347 125 347 c 0,407,408
 113 347 113 347 104 353 c 1,409,410
 95 347 95 347 83 347 c 0,411,412
 72 347 72 347 62 353 c 1,413,-1
 62 353 l 1,414,415
 53 347 53 347 41 347 c 1,416,-1
 41 347 l 1,382,383
292 347 m 1,417,418
 275 347 275 347 262 361 c 0,419,420
 250 374 250 374 250 394 c 256,421,422
 250 414 250 414 262 428 c 0,423,424
 275 442 275 442 292 442 c 256,425,426
 309 442 309 442 321 428 c 0,427,428
 333.071428571 415 333.071428571 415 333.071428571 396.826530612 c 0,429,430
 333.071428571 374.077380952 333.071428571 374.077380952 321 361 c 0,431,432
 309 347 309 347 292 347 c 1,433,-1
 292 347 l 1,417,418
62 527 m 1,434,-1
 62 527 l 1,435,-1
 62 527 l 1,436,437
 62 527 l 1,438,-1
 62 527 l 1,434,-1
0 434 m 1,439,440
 -17 434 -17 434 -29 448 c 256,441,442
 -41 462 -41 462 -41 482 c 256,443,444
 -41 502 -41 502 -29 515 c 256,445,446
 -17 530 -17 530 0 530 c 256,447,448
 17 530 17 530 29 515 c 256,449,450
 41 502 41 502 41 482 c 256,451,452
 41 462 41 462 29 448 c 256,453,454
 17 434 17 434 0 434 c 1,455,-1
 0 434 l 1,439,440
166 434 m 1,456,457
 149 434 149 434 137 448 c 128,-1,458
 125 462 125 462 125 482 c 256,459,460
 125 502 125 502 137 515 c 0,461,462
 150 530 150 530 166 530 c 256,463,464
 183 530 183 530 196 515 c 256,465,466
 208 502 208 502 208 482 c 256,467,468
 208 462 208 462 196 448 c 256,469,470
 184 434 184 434 166 434 c 1,471,-1
 166 434 l 1,456,457
333 434 m 1,472,473
 316 434 316 434 304 448 c 128,-1,474
 292 462 292 462 292 482 c 256,475,476
 292 502 292 502 304 515 c 0,477,478
 317 530 317 530 333 530 c 256,479,480
 350 530 350 530 362 515 c 0,481,482
 375 502 375 502 375 482 c 256,483,484
 375 462 375 462 362 448 c 0,485,486
 350 434 350 434 333 434 c 1,487,-1
 333 434 l 1,472,473
41 520 m 1,488,489
 24 520 24 520 12 535 c 256,490,491
 0 548 0 548 0 568 c 256,492,493
 0 588 0 588 12 602 c 256,494,495
 24 616 24 616 41 616 c 0,496,497
 53 616 53 616 62 610 c 1,498,-1
 62 610 l 1,499,500
 72 616 72 616 83 616 c 0,501,502
 95 616 95 616 104 610 c 1,503,-1
 104 610 l 1,504,505
 113 616 113 616 125 616 c 0,506,507
 142 616 142 616 154 602 c 128,-1,508
 166 588 166 588 166 568 c 256,509,510
 166 548 166 548 154 535 c 0,511,512
 142 520 142 520 125 520 c 0,513,514
 113 520 113 520 104 527 c 1,515,-1
 104 527 l 1,516,517
 95 520 95 520 83 520 c 0,518,519
 72 520 72 520 62 527 c 1,520,-1
 62 527 l 1,521,522
 53 520 53 520 41 520 c 1,523,-1
 41 520 l 1,488,489
EndSplineSet
EndChar

StartChar: ampersand
Encoding: 38 38 6
Width: 582
VWidth: 750
Flags: W
LayerCount: 2
Fore
SplineSet
20 -167 m 1,0,1
 20 -167 l 1,2,-1
 20 -167 l 1,3,4
 20 -167 l 1,5,-1
 20 -167 l 1,0,1
104 -167 m 1,6,7
 104 -167 l 1,8,-1
 104 -167 l 1,9,10
 104 -167 l 1,11,-1
 104 -167 l 1,6,7
188 -167 m 1,12,13
 188 -167 l 1,14,-1
 188 -167 l 1,15,16
 188 -167 l 1,17,-1
 188 -167 l 1,12,13
271 -167 m 1,18,19
 271 -167 l 1,20,-1
 271 -167 l 1,21,22
 271 -167 l 1,23,-1
 271 -167 l 1,18,19
354 -167 m 1,24,25
 354 -167 l 1,26,-1
 354 -167 l 1,27,28
 354 -167 l 1,29,-1
 354 -167 l 1,24,25
437 -167 m 1,30,31
 437 -167 l 1,32,-1
 437 -167 l 1,33,34
 437 -167 l 1,35,-1
 437 -167 l 1,30,31
520 -167 m 1,36,37
 520 -167 l 1,38,-1
 520 -167 l 1,39,40
 520 -167 l 1,41,-1
 520 -167 l 1,36,37
0 -173 m 1,42,43
 -17 -173 -17 -173 -29 -160 c 0,44,45
 -41 -146 -41 -146 -41 -125 c 256,46,47
 -41 -105 -41 -105 -29 -92 c 256,48,49
 -17 -78 -17 -78 0 -78 c 0,50,51
 11 -78 11 -78 20 -84 c 1,52,-1
 20 -84 l 1,53,54
 30 -78 30 -78 41 -78 c 0,55,56
 53 -78 53 -78 62 -84 c 1,57,-1
 62 -84 l 1,58,59
 72 -78 72 -78 83 -78 c 0,60,61
 95 -78 95 -78 104 -84 c 1,62,-1
 104 -84 l 1,63,64
 113 -78 113 -78 125 -78 c 0,65,66
 136 -78 136 -78 146 -84 c 1,67,-1
 146 -84 l 1,68,69
 154 -78 154 -78 166 -78 c 128,-1,70
 178 -78 178 -78 188 -84 c 1,71,-1
 188 -84 l 1,72,73
 197 -78 197 -78 208 -78 c 0,74,75
 220 -78 220 -78 229 -84 c 1,76,-1
 229 -84 l 1,77,78
 239 -78 239 -78 250 -78 c 0,79,80
 262 -78 262 -78 271 -84 c 1,81,-1
 271 -84 l 1,82,83
 280 -78 280 -78 292 -78 c 0,84,85
 303 -78 303 -78 313 -84 c 1,86,-1
 313 -84 l 1,87,88
 322 -78 322 -78 333 -78 c 128,-1,89
 344 -78 344 -78 354 -84 c 1,90,-1
 354 -84 l 1,91,92
 363 -78 363 -78 375 -78 c 0,93,94
 386 -78 386 -78 395 -84 c 1,95,-1
 395 -84 l 1,96,97
 405 -78 405 -78 416 -78 c 0,98,99
 428 -78 428 -78 437 -84 c 1,100,-1
 437 -84 l 1,101,102
 447 -78 447 -78 458 -78 c 0,103,104
 470 -78 470 -78 479 -84 c 1,105,-1
 479 -84 l 1,106,107
 488 -78 488 -78 500 -78 c 0,108,109
 510 -78 510 -78 520 -84 c 1,110,-1
 520 -84 l 1,111,112
 530 -78 530 -78 542 -78 c 0,113,114
 559 -78 559 -78 571 -92 c 256,115,116
 583 -106 583 -106 583 -125 c 256,117,118
 583 -145 583 -145 571 -160 c 0,119,120
 560.733333333 -173.066666667 560.733333333 -173.066666667 544.368888889 -173.066666667 c 0,121,122
 543.2 -173.066666667 543.2 -173.066666667 542 -173 c 0,123,124
 530 -173 530 -173 520 -167 c 1,125,126
 510 -173 510 -173 500 -173 c 0,127,128
 488 -173 488 -173 479 -167 c 1,129,130
 470 -173 470 -173 458 -173 c 0,131,132
 447 -173 447 -173 437 -167 c 1,133,134
 428 -173 428 -173 416 -173 c 0,135,136
 405 -173 405 -173 395 -167 c 1,137,138
 386 -173 386 -173 375 -173 c 0,139,140
 363 -173 363 -173 354 -167 c 1,141,142
 344 -173 344 -173 333 -173 c 0,143,144
 321 -173 321 -173 313 -167 c 1,145,-1
 313 -167 l 1,146,147
 303 -173 303 -173 292 -173 c 0,148,149
 280 -173 280 -173 271 -167 c 1,150,-1
 271 -167 l 1,151,152
 262 -173 262 -173 250 -173 c 0,153,154
 239 -173 239 -173 229 -167 c 1,155,156
 220 -173 220 -173 208 -173 c 0,157,158
 198 -173 198 -173 188 -167 c 1,159,-1
 188 -167 l 1,160,161
 178 -173 178 -173 166 -173 c 128,-1,162
 154 -173 154 -173 146 -167 c 1,163,-1
 146 -167 l 1,164,165
 136 -173 136 -173 125 -173 c 0,166,167
 113 -173 113 -173 104 -167 c 1,168,-1
 104 -167 l 1,169,170
 95 -173 95 -173 83 -173 c 0,171,172
 72 -173 72 -173 62 -167 c 1,173,-1
 62 -167 l 1,174,175
 53 -173 53 -173 41 -173 c 0,176,177
 30 -173 30 -173 20 -167 c 1,178,-1
 20 -167 l 1,179,180
 11 -173 11 -173 0 -173 c 1,181,-1
 0 -173 l 1,42,43
104 6 m 1,182,-1
 104 6 l 1,183,-1
 104 6 l 1,184,-1
 104 6 l 1,185,-1
 104 6 l 1,182,-1
188 6 m 1,186,-1
 188 6 l 1,187,-1
 188 6 l 1,188,-1
 188 6 l 1,189,-1
 188 6 l 1,186,-1
83 0 m 1,190,191
 66 0 66 0 54 14 c 0,192,193
 41 28 41 28 41 47 c 256,194,195
 41 67 41 67 54 81 c 0,196,197
 66 95 66 95 83 95 c 0,198,199
 95 95 95 95 104 89 c 1,200,-1
 104 89 l 1,201,202
 113 95 113 95 125 95 c 0,203,204
 136 95 136 95 146 89 c 1,205,-1
 146 89 l 1,206,207
 154 95 154 95 166 95 c 128,-1,208
 178 95 178 95 188 89 c 1,209,-1
 188 89 l 1,210,211
 197 95 197 95 208 95 c 0,212,213
 220 95 220 95 229 89 c 1,214,-1
 229 89 l 1,215,216
 239 95 239 95 250 95 c 0,217,218
 267 95 267 95 280 81 c 0,219,220
 292 67 292 67 292 47 c 256,221,222
 292 27 292 27 280 14 c 0,223,224
 267 0 267 0 250 0 c 0,225,226
 239 0 239 0 229 6 c 1,227,228
 220 0 220 0 208 0 c 0,229,230
 198 0 198 0 188 6 c 1,231,232
 178 0 178 0 166 0 c 128,-1,233
 154 0 154 0 146 6 c 1,234,-1
 146 6 l 1,235,236
 136 0 136 0 125 0 c 0,237,238
 113 0 113 0 104 6 c 1,239,240
 95 0 95 0 83 0 c 1,241,-1
 83 0 l 1,190,191
416 0 m 1,242,243
 399 0 399 0 387 14 c 256,244,245
 375 28 375 28 375 47 c 256,246,247
 375 67 375 67 387 81 c 256,248,249
 399 95 399 95 416 95 c 256,250,251
 433 95 433 95 446 81 c 0,252,253
 458 67 458 67 458 47 c 256,254,255
 458 27 458 27 446 14 c 0,256,257
 433 0 433 0 416 0 c 1,258,-1
 416 0 l 1,242,243
41 87 m 1,259,260
 39.8666666667 86.9333333333 39.8666666667 86.9333333333 38.7555555556 86.9333333333 c 0,261,262
 23.2 86.9333333333 23.2 86.9333333333 12 100 c 256,263,264
 0 114 0 114 0 134 c 256,265,266
 0 154 0 154 12 168 c 256,267,268
 24 182 24 182 41 182 c 256,269,270
 58 182 58 182 71 168 c 0,271,272
 83 154 83 154 83 134 c 256,273,274
 83 114 83 114 71 100 c 0,275,276
 58.8666666667 86.9333333333 58.8666666667 86.9333333333 43.2488888889 86.9333333333 c 0,277,278
 42.1333333333 86.9333333333 42.1333333333 86.9333333333 41 87 c 1,279,-1
 41 87 l 1,259,260
333 87 m 1,280,281
 331.866666667 86.9333333333 331.866666667 86.9333333333 330.755555556 86.9333333333 c 0,282,283
 315.2 86.9333333333 315.2 86.9333333333 304 100 c 0,284,285
 292 114 292 114 292 134 c 256,286,287
 292 154 292 154 304 168 c 0,288,289
 317 182 317 182 333 182 c 256,290,291
 350 182 350 182 362 168 c 0,292,293
 375 154 375 154 375 134 c 256,294,295
 375 114 375 114 362 100 c 0,296,297
 350.8 86.9333333333 350.8 86.9333333333 335.244444444 86.9333333333 c 0,298,299
 334.133333333 86.9333333333 334.133333333 86.9333333333 333 87 c 1,300,-1
 333 87 l 1,280,281
83 173 m 1,301,302
 66 174 66 174 54 188 c 0,303,304
 41 202 41 202 41 221 c 256,305,306
 41 241 41 241 54 255 c 0,307,308
 66 268 66 268 83 268 c 256,309,310
 100 268 100 268 112 255 c 0,311,312
 124 241 124 241 125 221 c 256,313,314
 124 202 124 202 112 188 c 0,315,316
 99 174 99 174 83 173 c 1,317,-1
 83 173 l 1,301,302
250 173 m 1,318,319
 232 174 232 174 220 188 c 0,320,321
 207.928571429 201 207.928571429 201 207.928571429 218.31122449 c 0,322,323
 207.928571429 240.916666667 207.928571429 240.916666667 220 255 c 0,324,325
 232 268 232 268 250 268 c 256,326,327
 267 268 267 268 280 255 c 0,328,329
 292 241 292 241 292 221 c 256,330,331
 292 202 292 202 280 188 c 0,332,333
 267 174 267 174 250 173 c 1,334,-1
 250 173 l 1,318,319
416 173 m 1,335,336
 399 174 399 174 387 188 c 256,337,338
 375 202 375 202 375 221 c 256,339,340
 375 241 375 241 387 255 c 256,341,342
 399 268 399 268 416 268 c 256,343,344
 433 268 433 268 446 255 c 0,345,346
 458 241 458 241 458 221 c 256,347,348
 458 202 458 202 446 188 c 0,349,350
 433 174 433 174 416 173 c 1,351,-1
 416 173 l 1,335,336
166 260 m 1,352,353
 149 260 149 260 137 274 c 128,-1,354
 125 288 125 288 125 308 c 256,355,356
 125 328 125 328 137 342 c 0,357,358
 150 356 150 356 166 356 c 256,359,360
 183 356 183 356 196 342 c 256,361,362
 208 328 208 328 208 308 c 256,363,364
 208 288 208 288 196 274 c 256,365,366
 184 260 184 260 166 260 c 1,367,-1
 166 260 l 1,352,353
458 260 m 1,368,369
 441 260 441 260 429 274 c 0,370,371
 416 288 416 288 416 308 c 256,372,373
 416 328 416 328 429 342 c 0,374,375
 441 356 441 356 458 356 c 256,376,377
 476 356 476 356 488 342 c 128,-1,378
 500 328 500 328 500 308 c 256,379,380
 500 288 500 288 488 274 c 0,381,382
 475 260 475 260 458 260 c 1,383,-1
 458 260 l 1,368,369
125 347 m 1,384,385
 108 347 108 347 95 361 c 0,386,387
 83 374 83 374 83 394 c 256,388,389
 83 414 83 414 95 428 c 0,390,391
 108 442 108 442 125 442 c 256,392,393
 142 442 142 442 154 428 c 128,-1,394
 166 414 166 414 166 394 c 256,395,396
 166 374 166 374 154 361 c 0,397,398
 142 347 142 347 125 347 c 1,399,-1
 125 347 l 1,384,385
146 527 m 1,400,-1
 146 527 l 1,401,-1
 146 527 l 1,402,-1
 146 527 l 1,403,-1
 146 527 l 1,400,-1
229 527 m 1,404,-1
 229 527 l 1,405,-1
 229 527 l 1,406,-1
 229 527 l 1,407,-1
 229 527 l 1,404,-1
83 434 m 1,408,409
 66 434 66 434 54 448 c 0,410,411
 41 462 41 462 41 482 c 256,412,413
 41 502 41 502 54 515 c 0,414,415
 66 530 66 530 83 530 c 256,416,417
 100 530 100 530 112 515 c 0,418,419
 124 502 124 502 125 482 c 256,420,421
 124 462 124 462 112 448 c 0,422,423
 99 434 99 434 83 434 c 1,424,-1
 83 434 l 1,408,409
333 434 m 1,425,426
 316 434 316 434 304 448 c 128,-1,427
 292 462 292 462 292 482 c 256,428,429
 292 502 292 502 304 515 c 0,430,431
 317 530 317 530 333 530 c 256,432,433
 350 530 350 530 362 515 c 0,434,435
 375 502 375 502 375 482 c 256,436,437
 375 462 375 462 362 448 c 0,438,439
 350 434 350 434 333 434 c 1,440,-1
 333 434 l 1,425,426
125 520 m 1,441,442
 108 520 108 520 95 535 c 0,443,444
 83 548 83 548 83 568 c 256,445,446
 83 588 83 588 95 602 c 0,447,448
 108 616 108 616 125 616 c 0,449,450
 136 616 136 616 146 610 c 1,451,-1
 146 610 l 1,452,453
 154 616 154 616 166 616 c 128,-1,454
 178 616 178 616 188 610 c 1,455,-1
 188 610 l 1,456,457
 197 616 197 616 208 616 c 0,458,459
 220 616 220 616 229 610 c 1,460,-1
 229 610 l 1,461,462
 239 616 239 616 250 616 c 0,463,464
 262 616 262 616 271 610 c 1,465,-1
 271 610 l 1,466,467
 280 616 280 616 292 616 c 0,468,469
 309 616 309 616 321 602 c 0,470,471
 333.071428571 589 333.071428571 589 333.071428571 570.826530612 c 0,472,473
 333.071428571 548.077380952 333.071428571 548.077380952 321 535 c 0,474,475
 309 520 309 520 292 520 c 0,476,477
 280 520 280 520 271 527 c 1,478,479
 262 520 262 520 250 520 c 0,480,481
 239 520 239 520 229 527 c 1,482,-1
 229 527 l 1,483,484
 220 520 220 520 208 520 c 0,485,486
 198 520 198 520 188 527 c 1,487,488
 178 520 178 520 166 520 c 128,-1,489
 154 520 154 520 146 527 c 1,490,491
 136 520 136 520 125 520 c 1,492,-1
 125 520 l 1,441,442
EndSplineSet
EndChar

StartChar: quotesingle
Encoding: 39 39 7
Width: 291
VWidth: 750
Flags: W
LayerCount: 2
Fore
SplineSet
20 -167 m 1,0,1
 20 -167 l 1,2,-1
 20 -167 l 1,3,4
 20 -167 l 1,5,-1
 20 -167 l 1,0,1
104 -167 m 1,6,7
 104 -167 l 1,8,-1
 104 -167 l 1,9,10
 104 -167 l 1,11,-1
 104 -167 l 1,6,7
188 -167 m 1,12,13
 188 -167 l 1,14,-1
 188 -167 l 1,15,16
 188 -167 l 1,17,-1
 188 -167 l 1,12,13
0 -173 m 1,18,19
 -17 -173 -17 -173 -29 -160 c 0,20,21
 -41 -146 -41 -146 -41 -125 c 256,22,23
 -41 -105 -41 -105 -29 -92 c 256,24,25
 -17 -78 -17 -78 0 -78 c 0,26,27
 11 -78 11 -78 20 -84 c 1,28,-1
 20 -84 l 1,29,30
 30 -78 30 -78 41 -78 c 0,31,32
 53 -78 53 -78 62 -84 c 1,33,-1
 62 -84 l 1,34,35
 72 -78 72 -78 83 -78 c 0,36,37
 95 -78 95 -78 104 -84 c 1,38,-1
 104 -84 l 1,39,40
 113 -78 113 -78 125 -78 c 0,41,42
 136 -78 136 -78 146 -84 c 1,43,-1
 146 -84 l 1,44,45
 154 -78 154 -78 166 -78 c 128,-1,46
 178 -78 178 -78 188 -84 c 1,47,-1
 188 -84 l 1,48,49
 197 -78 197 -78 208 -78 c 0,50,51
 220 -78 220 -78 229 -84 c 1,52,-1
 229 -84 l 1,53,54
 239 -78 239 -78 250 -78 c 0,55,56
 267 -78 267 -78 280 -92 c 0,57,58
 292 -106 292 -106 292 -125 c 256,59,60
 292 -145 292 -145 280 -160 c 0,61,62
 267.866666667 -173.066666667 267.866666667 -173.066666667 252.248888889 -173.066666667 c 0,63,64
 251.133333333 -173.066666667 251.133333333 -173.066666667 250 -173 c 0,65,66
 239 -173 239 -173 229 -167 c 1,67,68
 220 -173 220 -173 208 -173 c 0,69,70
 198 -173 198 -173 188 -167 c 1,71,-1
 188 -167 l 1,72,73
 178 -173 178 -173 166 -173 c 128,-1,74
 154 -173 154 -173 146 -167 c 1,75,-1
 146 -167 l 1,76,77
 136 -173 136 -173 125 -173 c 0,78,79
 113 -173 113 -173 104 -167 c 1,80,-1
 104 -167 l 1,81,82
 95 -173 95 -173 83 -173 c 0,83,84
 72 -173 72 -173 62 -167 c 1,85,-1
 62 -167 l 1,86,87
 53 -173 53 -173 41 -173 c 0,88,89
 30 -173 30 -173 20 -167 c 1,90,-1
 20 -167 l 1,91,92
 11 -173 11 -173 0 -173 c 1,93,-1
 0 -173 l 1,18,19
41 347 m 1,94,95
 24 347 24 347 12 361 c 256,96,97
 0 374 0 374 0 394 c 256,98,99
 0 414 0 414 12 428 c 256,100,101
 24 442 24 442 41 442 c 256,102,103
 58 442 58 442 71 428 c 0,104,105
 83 414 83 414 83 394 c 256,106,107
 83 374 83 374 71 361 c 0,108,109
 58 347 58 347 41 347 c 1,110,-1
 41 347 l 1,94,95
83 434 m 1,111,112
 66 434 66 434 54 448 c 0,113,114
 41 462 41 462 41 482 c 256,115,116
 41 502 41 502 54 515 c 0,117,118
 66 530 66 530 83 530 c 256,119,120
 100 530 100 530 112 515 c 0,121,122
 124 502 124 502 125 482 c 256,123,124
 124 462 124 462 112 448 c 0,125,126
 99 434 99 434 83 434 c 1,127,-1
 83 434 l 1,111,112
125 520 m 1,128,129
 108 520 108 520 95 535 c 0,130,131
 83 548 83 548 83 568 c 256,132,133
 83 588 83 588 95 602 c 0,134,135
 108 616 108 616 125 616 c 256,136,137
 142 616 142 616 154 602 c 128,-1,138
 166 588 166 588 166 568 c 256,139,140
 166 548 166 548 154 535 c 0,141,142
 142 520 142 520 125 520 c 1,143,-1
 125 520 l 1,128,129
EndSplineSet
EndChar

StartChar: parenleft
Encoding: 40 40 8
Width: 291
VWidth: 750
Flags: W
LayerCount: 2
Fore
SplineSet
20 -167 m 1,0,1
 20 -167 l 1,2,-1
 20 -167 l 1,3,4
 20 -167 l 1,5,-1
 20 -167 l 1,0,1
104 -167 m 1,6,7
 104 -167 l 1,8,-1
 104 -167 l 1,9,10
 104 -167 l 1,11,-1
 104 -167 l 1,6,7
188 -167 m 1,12,13
 188 -167 l 1,14,-1
 188 -167 l 1,15,16
 188 -167 l 1,17,-1
 188 -167 l 1,12,13
0 -173 m 1,18,19
 -17 -173 -17 -173 -29 -160 c 0,20,21
 -41 -146 -41 -146 -41 -125 c 256,22,23
 -41 -105 -41 -105 -29 -92 c 256,24,25
 -17 -78 -17 -78 0 -78 c 0,26,27
 11 -78 11 -78 20 -84 c 1,28,-1
 20 -84 l 1,29,30
 30 -78 30 -78 41 -78 c 0,31,32
 53 -78 53 -78 62 -84 c 1,33,-1
 62 -84 l 1,34,35
 72 -78 72 -78 83 -78 c 0,36,37
 95 -78 95 -78 104 -84 c 1,38,-1
 104 -84 l 1,39,40
 113 -78 113 -78 125 -78 c 0,41,42
 136 -78 136 -78 146 -84 c 1,43,-1
 146 -84 l 1,44,45
 154 -78 154 -78 166 -78 c 128,-1,46
 178 -78 178 -78 188 -84 c 1,47,-1
 188 -84 l 1,48,49
 197 -78 197 -78 208 -78 c 0,50,51
 220 -78 220 -78 229 -84 c 1,52,-1
 229 -84 l 1,53,54
 239 -78 239 -78 250 -78 c 0,55,56
 267 -78 267 -78 280 -92 c 0,57,58
 292 -106 292 -106 292 -125 c 256,59,60
 292 -145 292 -145 280 -160 c 0,61,62
 267.866666667 -173.066666667 267.866666667 -173.066666667 252.248888889 -173.066666667 c 0,63,64
 251.133333333 -173.066666667 251.133333333 -173.066666667 250 -173 c 0,65,66
 239 -173 239 -173 229 -167 c 1,67,68
 220 -173 220 -173 208 -173 c 0,69,70
 198 -173 198 -173 188 -167 c 1,71,-1
 188 -167 l 1,72,73
 178 -173 178 -173 166 -173 c 128,-1,74
 154 -173 154 -173 146 -167 c 1,75,-1
 146 -167 l 1,76,77
 136 -173 136 -173 125 -173 c 0,78,79
 113 -173 113 -173 104 -167 c 1,80,-1
 104 -167 l 1,81,82
 95 -173 95 -173 83 -173 c 0,83,84
 72 -173 72 -173 62 -167 c 1,85,-1
 62 -167 l 1,86,87
 53 -173 53 -173 41 -173 c 0,88,89
 30 -173 30 -173 20 -167 c 1,90,-1
 20 -167 l 1,91,92
 11 -173 11 -173 0 -173 c 1,93,-1
 0 -173 l 1,18,19
125 0 m 1,94,95
 108 0 108 0 95 14 c 0,96,97
 83 28 83 28 83 47 c 256,98,99
 83 67 83 67 95 81 c 0,100,101
 108 95 108 95 125 95 c 256,102,103
 142 95 142 95 154 81 c 128,-1,104
 166 67 166 67 166 47 c 256,105,106
 166 27 166 27 154 14 c 0,107,108
 142 0 142 0 125 0 c 1,109,-1
 125 0 l 1,94,95
83 87 m 1,110,111
 81.8666666667 86.9333333333 81.8666666667 86.9333333333 80.7555555556 86.9333333333 c 0,112,113
 65.2 86.9333333333 65.2 86.9333333333 54 100 c 0,114,115
 41 114 41 114 41 134 c 256,116,117
 41 154 41 154 54 168 c 0,118,119
 66 182 66 182 83 182 c 256,120,121
 100 182 100 182 112 168 c 128,-1,122
 124 154 124 154 125 134 c 256,123,124
 124 114 124 114 112 100 c 0,125,126
 99.8666666667 86.9333333333 99.8666666667 86.9333333333 85.12 86.9333333333 c 0,127,128
 84.0666666667 86.9333333333 84.0666666667 86.9333333333 83 87 c 1,129,-1
 83 87 l 1,110,111
41 173 m 1,130,131
 24 174 24 174 12 188 c 256,132,133
 0 202 0 202 0 221 c 256,134,135
 0 241 0 241 12 255 c 0,136,137
 17 261 17 261 24 265 c 1,138,-1
 24 265 l 1,139,140
 18 268 18 268 12 274 c 0,141,142
 0 288 0 288 0 308 c 256,143,144
 0 328 0 328 12 342 c 0,145,146
 17 348 17 348 24 352 c 1,147,-1
 24 352 l 1,148,149
 18 355 18 355 12 361 c 0,150,151
 0 374 0 374 0 394 c 256,152,153
 0 414 0 414 12 428 c 256,154,155
 24 442 24 442 41 442 c 256,156,157
 58 442 58 442 71 428 c 0,158,159
 83 414 83 414 83 394 c 256,160,161
 83 374 83 374 71 361 c 0,162,163
 66 355 66 355 59 352 c 1,164,-1
 59 352 l 1,165,166
 65 348 65 348 71 342 c 0,167,168
 83 328 83 328 83 308 c 256,169,170
 83 288 83 288 71 274 c 0,171,172
 66 268 66 268 59 265 c 1,173,-1
 59 265 l 1,174,175
 65 262 65 262 71 255 c 0,176,177
 83 241 83 241 83 221 c 256,178,179
 83 202 83 202 71 188 c 0,180,181
 58 174 58 174 41 173 c 1,182,-1
 41 173 l 1,130,131
83 434 m 1,183,184
 66 434 66 434 54 448 c 0,185,186
 41 462 41 462 41 482 c 256,187,188
 41 502 41 502 54 515 c 0,189,190
 66 530 66 530 83 530 c 256,191,192
 100 530 100 530 112 515 c 0,193,194
 124 502 124 502 125 482 c 256,195,196
 124 462 124 462 112 448 c 0,197,198
 99 434 99 434 83 434 c 1,199,-1
 83 434 l 1,183,184
125 520 m 1,200,201
 108 520 108 520 95 535 c 0,202,203
 83 548 83 548 83 568 c 256,204,205
 83 588 83 588 95 602 c 0,206,207
 108 616 108 616 125 616 c 256,208,209
 142 616 142 616 154 602 c 128,-1,210
 166 588 166 588 166 568 c 256,211,212
 166 548 166 548 154 535 c 0,213,214
 142 520 142 520 125 520 c 1,215,-1
 125 520 l 1,200,201
EndSplineSet
EndChar

StartChar: parenright
Encoding: 41 41 9
Width: 291
VWidth: 750
Flags: W
LayerCount: 2
Fore
SplineSet
20 -167 m 1,0,1
 20 -167 l 1,2,-1
 20 -167 l 1,3,4
 20 -167 l 1,5,-1
 20 -167 l 1,0,1
104 -167 m 1,6,7
 104 -167 l 1,8,-1
 104 -167 l 1,9,10
 104 -167 l 1,11,-1
 104 -167 l 1,6,7
188 -167 m 1,12,13
 188 -167 l 1,14,-1
 188 -167 l 1,15,16
 188 -167 l 1,17,-1
 188 -167 l 1,12,13
0 -173 m 1,18,19
 -17 -173 -17 -173 -29 -160 c 0,20,21
 -41 -146 -41 -146 -41 -125 c 256,22,23
 -41 -105 -41 -105 -29 -92 c 256,24,25
 -17 -78 -17 -78 0 -78 c 0,26,27
 11 -78 11 -78 20 -84 c 1,28,-1
 20 -84 l 1,29,30
 30 -78 30 -78 41 -78 c 0,31,32
 53 -78 53 -78 62 -84 c 1,33,-1
 62 -84 l 1,34,35
 72 -78 72 -78 83 -78 c 0,36,37
 95 -78 95 -78 104 -84 c 1,38,-1
 104 -84 l 1,39,40
 113 -78 113 -78 125 -78 c 0,41,42
 136 -78 136 -78 146 -84 c 1,43,-1
 146 -84 l 1,44,45
 154 -78 154 -78 166 -78 c 128,-1,46
 178 -78 178 -78 188 -84 c 1,47,-1
 188 -84 l 1,48,49
 197 -78 197 -78 208 -78 c 0,50,51
 220 -78 220 -78 229 -84 c 1,52,-1
 229 -84 l 1,53,54
 239 -78 239 -78 250 -78 c 0,55,56
 267 -78 267 -78 280 -92 c 0,57,58
 292 -106 292 -106 292 -125 c 256,59,60
 292 -145 292 -145 280 -160 c 0,61,62
 267.866666667 -173.066666667 267.866666667 -173.066666667 252.248888889 -173.066666667 c 0,63,64
 251.133333333 -173.066666667 251.133333333 -173.066666667 250 -173 c 0,65,66
 239 -173 239 -173 229 -167 c 1,67,68
 220 -173 220 -173 208 -173 c 0,69,70
 198 -173 198 -173 188 -167 c 1,71,-1
 188 -167 l 1,72,73
 178 -173 178 -173 166 -173 c 128,-1,74
 154 -173 154 -173 146 -167 c 1,75,-1
 146 -167 l 1,76,77
 136 -173 136 -173 125 -173 c 0,78,79
 113 -173 113 -173 104 -167 c 1,80,-1
 104 -167 l 1,81,82
 95 -173 95 -173 83 -173 c 0,83,84
 72 -173 72 -173 62 -167 c 1,85,-1
 62 -167 l 1,86,87
 53 -173 53 -173 41 -173 c 0,88,89
 30 -173 30 -173 20 -167 c 1,90,-1
 20 -167 l 1,91,92
 11 -173 11 -173 0 -173 c 1,93,-1
 0 -173 l 1,18,19
41 0 m 1,94,95
 24 0 24 0 12 14 c 256,96,97
 0 28 0 28 0 47 c 256,98,99
 0 67 0 67 12 81 c 256,100,101
 24 95 24 95 41 95 c 256,102,103
 58 95 58 95 71 81 c 0,104,105
 83 67 83 67 83 47 c 256,106,107
 83 27 83 27 71 14 c 0,108,109
 58 0 58 0 41 0 c 1,110,-1
 41 0 l 1,94,95
83 87 m 1,111,112
 81.8666666667 86.9333333333 81.8666666667 86.9333333333 80.7555555556 86.9333333333 c 0,113,114
 65.2 86.9333333333 65.2 86.9333333333 54 100 c 0,115,116
 41 114 41 114 41 134 c 256,117,118
 41 154 41 154 54 168 c 0,119,120
 66 182 66 182 83 182 c 256,121,122
 100 182 100 182 112 168 c 128,-1,123
 124 154 124 154 125 134 c 256,124,125
 124 114 124 114 112 100 c 0,126,127
 99.8666666667 86.9333333333 99.8666666667 86.9333333333 85.12 86.9333333333 c 0,128,129
 84.0666666667 86.9333333333 84.0666666667 86.9333333333 83 87 c 1,130,-1
 83 87 l 1,111,112
125 173 m 1,131,132
 108 174 108 174 95 188 c 0,133,134
 83 202 83 202 83 221 c 256,135,136
 83 241 83 241 95 255 c 0,137,138
 100 261 100 261 107 265 c 1,139,-1
 107 265 l 1,140,141
 100 268 100 268 95 274 c 0,142,143
 83 288 83 288 83 308 c 256,144,145
 83 328 83 328 95 342 c 0,146,147
 100 348 100 348 107 352 c 1,148,-1
 107 352 l 1,149,150
 100 355 100 355 95 361 c 0,151,152
 83 374 83 374 83 394 c 256,153,154
 83 414 83 414 95 428 c 0,155,156
 108 442 108 442 125 442 c 256,157,158
 142 442 142 442 154 428 c 128,-1,159
 166 414 166 414 166 394 c 256,160,161
 166 374 166 374 154 361 c 0,162,163
 148 355 148 355 142 352 c 1,164,-1
 142 352 l 1,165,166
 148 348 148 348 154 342 c 0,167,168
 166 328 166 328 166 308 c 256,169,170
 166 288 166 288 154 274 c 0,171,172
 148 268 148 268 142 265 c 1,173,-1
 142 265 l 1,174,175
 148 262 148 262 154 255 c 0,176,177
 166 241 166 241 166 221 c 256,178,179
 166 202 166 202 154 188 c 128,-1,180
 142 174 142 174 125 173 c 1,181,-1
 125 173 l 1,131,132
83 434 m 1,182,183
 66 434 66 434 54 448 c 0,184,185
 41 462 41 462 41 482 c 256,186,187
 41 502 41 502 54 515 c 0,188,189
 66 530 66 530 83 530 c 256,190,191
 100 530 100 530 112 515 c 0,192,193
 124 502 124 502 125 482 c 256,194,195
 124 462 124 462 112 448 c 0,196,197
 99 434 99 434 83 434 c 1,198,-1
 83 434 l 1,182,183
41 520 m 1,199,200
 24 520 24 520 12 535 c 256,201,202
 0 548 0 548 0 568 c 256,203,204
 0 588 0 588 12 602 c 256,205,206
 24 616 24 616 41 616 c 256,207,208
 58 616 58 616 71 602 c 0,209,210
 83 588 83 588 83 568 c 256,211,212
 83 548 83 548 71 535 c 0,213,214
 58 520 58 520 41 520 c 1,215,-1
 41 520 l 1,199,200
EndSplineSet
EndChar

StartChar: asterisk
Encoding: 42 42 10
Width: 499
VWidth: 750
Flags: W
LayerCount: 2
Fore
SplineSet
20 -167 m 1,0,1
 20 -167 l 1,2,-1
 20 -167 l 1,3,4
 20 -167 l 1,5,-1
 20 -167 l 1,0,1
104 -167 m 1,6,7
 104 -167 l 1,8,-1
 104 -167 l 1,9,10
 104 -167 l 1,11,-1
 104 -167 l 1,6,7
188 -167 m 1,12,13
 188 -167 l 1,14,-1
 188 -167 l 1,15,16
 188 -167 l 1,17,-1
 188 -167 l 1,12,13
271 -167 m 1,18,19
 271 -167 l 1,20,-1
 271 -167 l 1,21,22
 271 -167 l 1,23,-1
 271 -167 l 1,18,19
354 -167 m 1,24,25
 354 -167 l 1,26,-1
 354 -167 l 1,27,28
 354 -167 l 1,29,-1
 354 -167 l 1,24,25
437 -167 m 1,30,31
 437 -167 l 1,32,-1
 437 -167 l 1,33,34
 437 -167 l 1,35,-1
 437 -167 l 1,30,31
0 -173 m 1,36,37
 -17 -173 -17 -173 -29 -160 c 0,38,39
 -41 -146 -41 -146 -41 -125 c 256,40,41
 -41 -105 -41 -105 -29 -92 c 256,42,43
 -17 -78 -17 -78 0 -78 c 0,44,45
 11 -78 11 -78 20 -84 c 1,46,-1
 20 -84 l 1,47,48
 30 -78 30 -78 41 -78 c 0,49,50
 53 -78 53 -78 62 -84 c 1,51,-1
 62 -84 l 1,52,53
 72 -78 72 -78 83 -78 c 0,54,55
 95 -78 95 -78 104 -84 c 1,56,-1
 104 -84 l 1,57,58
 113 -78 113 -78 125 -78 c 0,59,60
 136 -78 136 -78 146 -84 c 1,61,-1
 146 -84 l 1,62,63
 154 -78 154 -78 166 -78 c 128,-1,64
 178 -78 178 -78 188 -84 c 1,65,-1
 188 -84 l 1,66,67
 197 -78 197 -78 208 -78 c 0,68,69
 220 -78 220 -78 229 -84 c 1,70,-1
 229 -84 l 1,71,72
 239 -78 239 -78 250 -78 c 0,73,74
 262 -78 262 -78 271 -84 c 1,75,-1
 271 -84 l 1,76,77
 280 -78 280 -78 292 -78 c 0,78,79
 303 -78 303 -78 313 -84 c 1,80,-1
 313 -84 l 1,81,82
 322 -78 322 -78 333 -78 c 128,-1,83
 344 -78 344 -78 354 -84 c 1,84,-1
 354 -84 l 1,85,86
 363 -78 363 -78 375 -78 c 0,87,88
 386 -78 386 -78 395 -84 c 1,89,-1
 395 -84 l 1,90,91
 405 -78 405 -78 416 -78 c 0,92,93
 428 -78 428 -78 437 -84 c 1,94,-1
 437 -84 l 1,95,96
 447 -78 447 -78 458 -78 c 0,97,98
 476 -78 476 -78 488 -92 c 128,-1,99
 500 -106 500 -106 500 -125 c 256,100,101
 500 -145 500 -145 488 -160 c 0,102,103
 475.866666667 -173.066666667 475.866666667 -173.066666667 460.248888889 -173.066666667 c 0,104,105
 459.133333333 -173.066666667 459.133333333 -173.066666667 458 -173 c 0,106,107
 447 -173 447 -173 437 -167 c 1,108,109
 428 -173 428 -173 416 -173 c 0,110,111
 405 -173 405 -173 395 -167 c 1,112,113
 386 -173 386 -173 375 -173 c 0,114,115
 363 -173 363 -173 354 -167 c 1,116,117
 344 -173 344 -173 333 -173 c 0,118,119
 321 -173 321 -173 313 -167 c 1,120,-1
 313 -167 l 1,121,122
 303 -173 303 -173 292 -173 c 0,123,124
 280 -173 280 -173 271 -167 c 1,125,-1
 271 -167 l 1,126,127
 262 -173 262 -173 250 -173 c 0,128,129
 239 -173 239 -173 229 -167 c 1,130,131
 220 -173 220 -173 208 -173 c 0,132,133
 198 -173 198 -173 188 -167 c 1,134,-1
 188 -167 l 1,135,136
 178 -173 178 -173 166 -173 c 128,-1,137
 154 -173 154 -173 146 -167 c 1,138,-1
 146 -167 l 1,139,140
 136 -173 136 -173 125 -173 c 0,141,142
 113 -173 113 -173 104 -167 c 1,143,-1
 104 -167 l 1,144,145
 95 -173 95 -173 83 -173 c 0,146,147
 72 -173 72 -173 62 -167 c 1,148,-1
 62 -167 l 1,149,150
 53 -173 53 -173 41 -173 c 0,151,152
 30 -173 30 -173 20 -167 c 1,153,-1
 20 -167 l 1,154,155
 11 -173 11 -173 0 -173 c 1,156,-1
 0 -173 l 1,36,37
188 180 m 1,157,-1
 188 180 l 1,158,-1
 188 180 l 1,159,-1
 188 180 l 1,160,-1
 188 180 l 1,157,-1
125 87 m 1,161,162
 123.866666667 86.9333333333 123.866666667 86.9333333333 122.751111111 86.9333333333 c 0,163,164
 107.133333333 86.9333333333 107.133333333 86.9333333333 95 100 c 0,165,166
 83 114 83 114 83 134 c 256,167,168
 83 154 83 154 95 168 c 0,169,170
 108 182 108 182 125 182 c 256,171,172
 142 182 142 182 154 168 c 128,-1,173
 166 154 166 154 166 134 c 256,174,175
 166 114 166 114 154 100 c 0,176,177
 142.8 86.9333333333 142.8 86.9333333333 127.244444444 86.9333333333 c 0,178,179
 126.133333333 86.9333333333 126.133333333 86.9333333333 125 87 c 1,180,-1
 125 87 l 1,161,162
292 87 m 1,181,182
 290.866666667 86.9333333333 290.866666667 86.9333333333 289.751111111 86.9333333333 c 0,183,184
 274.133333333 86.9333333333 274.133333333 86.9333333333 262 100 c 0,185,186
 250 114 250 114 250 134 c 256,187,188
 250 154 250 154 262 168 c 0,189,190
 275 182 275 182 292 182 c 256,191,192
 309 182 309 182 321 168 c 0,193,194
 333.071428571 155 333.071428571 155 333.071428571 136.826530612 c 0,195,196
 333.071428571 114.083333333 333.071428571 114.083333333 321 100 c 0,197,198
 309.8 86.9333333333 309.8 86.9333333333 294.244444444 86.9333333333 c 0,199,200
 293.133333333 86.9333333333 293.133333333 86.9333333333 292 87 c 1,201,-1
 292 87 l 1,181,182
62 266 m 1,202,-1
 62 266 l 1,203,-1
 62 266 l 1,204,-1
 62 266 l 1,205,-1
 62 266 l 1,202,-1
104 266 m 1,206,-1
 104 266 l 1,207,-1
 104 266 l 1,208,209
 104 266 l 1,210,-1
 104 266 l 1,206,-1
313 266 m 1,211,212
 313 266 l 1,213,-1
 313 266 l 1,214,215
 313 266 l 1,216,-1
 313 266 l 1,211,212
166 173 m 1,217,218
 149 174 149 174 137 188 c 128,-1,219
 125 202 125 202 125 221 c 256,220,221
 125 241 125 241 137 255 c 0,222,223
 150 268 150 268 166 268 c 0,224,225
 178 268 178 268 188 262 c 1,226,-1
 188 262 l 1,227,228
 197 268 197 268 208 268 c 0,229,230
 220 268 220 268 229 262 c 1,231,-1
 229 262 l 1,232,233
 239 268 239 268 250 268 c 0,234,235
 267 268 267 268 280 255 c 0,236,237
 292 241 292 241 292 221 c 256,238,239
 292 202 292 202 280 188 c 0,240,241
 267 174 267 174 250 173 c 0,242,243
 239 173 239 173 229 180 c 1,244,-1
 229 180 l 1,245,246
 220 174 220 174 208 173 c 0,247,248
 198 173 198 173 188 180 c 1,249,-1
 188 180 l 1,250,251
 178 174 178 174 166 173 c 1,252,-1
 166 173 l 1,217,218
229 353 m 1,253,-1
 229 353 l 1,254,-1
 229 353 l 1,255,-1
 229 353 l 1,256,-1
 229 353 l 1,253,-1
41 260 m 1,257,258
 24 260 24 260 12 274 c 256,259,260
 0 288 0 288 0 308 c 256,261,262
 0 328 0 328 12 342 c 256,263,264
 24 356 24 356 41 356 c 0,265,266
 53 356 53 356 62 350 c 1,267,-1
 62 350 l 1,268,269
 72 356 72 356 83 356 c 0,270,271
 95 356 95 356 104 350 c 1,272,-1
 104 350 l 1,273,274
 113 356 113 356 125 356 c 0,275,276
 142 356 142 356 154 342 c 128,-1,277
 166 328 166 328 166 308 c 256,278,279
 166 288 166 288 154 274 c 128,-1,280
 142 260 142 260 125 260 c 0,281,282
 113 260 113 260 104 266 c 1,283,284
 95 260 95 260 83 260 c 0,285,286
 72 260 72 260 62 266 c 1,287,-1
 62 266 l 1,288,289
 53 260 53 260 41 260 c 1,290,-1
 41 260 l 1,257,258
292 260 m 1,291,292
 275 260 275 260 262 274 c 0,293,294
 250 288 250 288 250 308 c 256,295,296
 250 328 250 328 262 342 c 0,297,298
 275 356 275 356 292 356 c 0,299,300
 303 356 303 356 313 350 c 1,301,-1
 313 350 l 1,302,303
 322 356 322 356 333 356 c 128,-1,304
 344 356 344 356 354 350 c 1,305,-1
 354 350 l 1,306,307
 363 356 363 356 375 356 c 0,308,309
 392 356 392 356 404 342 c 256,310,311
 416 328 416 328 416 308 c 256,312,313
 416 288 416 288 404 274 c 256,314,315
 392 260 392 260 375 260 c 0,316,317
 363 260 363 260 354 266 c 1,318,319
 344 260 344 260 333 260 c 0,320,321
 321 260 321 260 313 266 c 1,322,-1
 313 266 l 1,323,324
 303 260 303 260 292 260 c 1,325,-1
 292 260 l 1,291,292
166 347 m 1,326,327
 149 347 149 347 137 361 c 0,328,329
 125 374 125 374 125 394 c 256,330,331
 125 414 125 414 137 428 c 0,332,333
 150 442 150 442 166 442 c 0,334,335
 178 442 178 442 188 436 c 1,336,-1
 188 436 l 1,337,338
 197 442 197 442 208 442 c 0,339,340
 220 442 220 442 229 436 c 1,341,-1
 229 436 l 1,342,343
 239 442 239 442 250 442 c 0,344,345
 267 442 267 442 280 428 c 0,346,347
 292 414 292 414 292 394 c 256,348,349
 292 374 292 374 280 361 c 0,350,351
 267 347 267 347 250 347 c 0,352,353
 239 347 239 347 229 353 c 1,354,-1
 229 353 l 1,355,356
 220 347 220 347 208 347 c 0,357,358
 198 347 198 347 188 353 c 1,359,-1
 188 353 l 1,360,361
 178 347 178 347 166 347 c 1,362,-1
 166 347 l 1,326,327
125 434 m 1,363,364
 108 434 108 434 95 448 c 0,365,366
 83 462 83 462 83 482 c 256,367,368
 83 502 83 502 95 515 c 0,369,370
 108 530 108 530 125 530 c 256,371,372
 142 530 142 530 154 515 c 0,373,374
 166 502 166 502 166 482 c 256,375,376
 166 462 166 462 154 448 c 128,-1,377
 142 434 142 434 125 434 c 1,378,-1
 125 434 l 1,363,364
292 434 m 1,379,380
 275 434 275 434 262 448 c 0,381,382
 250 462 250 462 250 482 c 256,383,384
 250 502 250 502 262 515 c 0,385,386
 275 530 275 530 292 530 c 256,387,388
 309 530 309 530 321 515 c 0,389,390
 333.071428571 502.928571429 333.071428571 502.928571429 333.071428571 484.821428571 c 0,391,392
 333.071428571 462.083333333 333.071428571 462.083333333 321 448 c 128,-1,393
 309 434 309 434 292 434 c 1,394,-1
 292 434 l 1,379,380
EndSplineSet
EndChar

StartChar: plus
Encoding: 43 43 11
Width: 499
VWidth: 750
Flags: W
LayerCount: 2
Fore
SplineSet
20 -167 m 1,0,1
 20 -167 l 1,2,-1
 20 -167 l 1,3,4
 20 -167 l 1,5,-1
 20 -167 l 1,0,1
104 -167 m 1,6,7
 104 -167 l 1,8,-1
 104 -167 l 1,9,10
 104 -167 l 1,11,-1
 104 -167 l 1,6,7
188 -167 m 1,12,13
 188 -167 l 1,14,-1
 188 -167 l 1,15,16
 188 -167 l 1,17,-1
 188 -167 l 1,12,13
271 -167 m 1,18,19
 271 -167 l 1,20,-1
 271 -167 l 1,21,22
 271 -167 l 1,23,-1
 271 -167 l 1,18,19
354 -167 m 1,24,25
 354 -167 l 1,26,-1
 354 -167 l 1,27,28
 354 -167 l 1,29,-1
 354 -167 l 1,24,25
437 -167 m 1,30,31
 437 -167 l 1,32,-1
 437 -167 l 1,33,34
 437 -167 l 1,35,-1
 437 -167 l 1,30,31
0 -173 m 1,36,37
 -17 -173 -17 -173 -29 -160 c 0,38,39
 -41 -146 -41 -146 -41 -125 c 256,40,41
 -41 -105 -41 -105 -29 -92 c 256,42,43
 -17 -78 -17 -78 0 -78 c 0,44,45
 11 -78 11 -78 20 -84 c 1,46,-1
 20 -84 l 1,47,48
 30 -78 30 -78 41 -78 c 0,49,50
 53 -78 53 -78 62 -84 c 1,51,-1
 62 -84 l 1,52,53
 72 -78 72 -78 83 -78 c 0,54,55
 95 -78 95 -78 104 -84 c 1,56,-1
 104 -84 l 1,57,58
 113 -78 113 -78 125 -78 c 0,59,60
 136 -78 136 -78 146 -84 c 1,61,-1
 146 -84 l 1,62,63
 154 -78 154 -78 166 -78 c 128,-1,64
 178 -78 178 -78 188 -84 c 1,65,-1
 188 -84 l 1,66,67
 197 -78 197 -78 208 -78 c 0,68,69
 220 -78 220 -78 229 -84 c 1,70,-1
 229 -84 l 1,71,72
 239 -78 239 -78 250 -78 c 0,73,74
 262 -78 262 -78 271 -84 c 1,75,-1
 271 -84 l 1,76,77
 280 -78 280 -78 292 -78 c 0,78,79
 303 -78 303 -78 313 -84 c 1,80,-1
 313 -84 l 1,81,82
 322 -78 322 -78 333 -78 c 128,-1,83
 344 -78 344 -78 354 -84 c 1,84,-1
 354 -84 l 1,85,86
 363 -78 363 -78 375 -78 c 0,87,88
 386 -78 386 -78 395 -84 c 1,89,-1
 395 -84 l 1,90,91
 405 -78 405 -78 416 -78 c 0,92,93
 428 -78 428 -78 437 -84 c 1,94,-1
 437 -84 l 1,95,96
 447 -78 447 -78 458 -78 c 0,97,98
 476 -78 476 -78 488 -92 c 128,-1,99
 500 -106 500 -106 500 -125 c 256,100,101
 500 -145 500 -145 488 -160 c 0,102,103
 475.866666667 -173.066666667 475.866666667 -173.066666667 460.248888889 -173.066666667 c 0,104,105
 459.133333333 -173.066666667 459.133333333 -173.066666667 458 -173 c 0,106,107
 447 -173 447 -173 437 -167 c 1,108,109
 428 -173 428 -173 416 -173 c 0,110,111
 405 -173 405 -173 395 -167 c 1,112,113
 386 -173 386 -173 375 -173 c 0,114,115
 363 -173 363 -173 354 -167 c 1,116,117
 344 -173 344 -173 333 -173 c 0,118,119
 321 -173 321 -173 313 -167 c 1,120,-1
 313 -167 l 1,121,122
 303 -173 303 -173 292 -173 c 0,123,124
 280 -173 280 -173 271 -167 c 1,125,-1
 271 -167 l 1,126,127
 262 -173 262 -173 250 -173 c 0,128,129
 239 -173 239 -173 229 -167 c 1,130,131
 220 -173 220 -173 208 -173 c 0,132,133
 198 -173 198 -173 188 -167 c 1,134,-1
 188 -167 l 1,135,136
 178 -173 178 -173 166 -173 c 128,-1,137
 154 -173 154 -173 146 -167 c 1,138,-1
 146 -167 l 1,139,140
 136 -173 136 -173 125 -173 c 0,141,142
 113 -173 113 -173 104 -167 c 1,143,-1
 104 -167 l 1,144,145
 95 -173 95 -173 83 -173 c 0,146,147
 72 -173 72 -173 62 -167 c 1,148,-1
 62 -167 l 1,149,150
 53 -173 53 -173 41 -173 c 0,151,152
 30 -173 30 -173 20 -167 c 1,153,-1
 20 -167 l 1,154,155
 11 -173 11 -173 0 -173 c 1,156,-1
 0 -173 l 1,36,37
62 266 m 1,157,-1
 62 266 l 1,158,-1
 62 266 l 1,159,-1
 62 266 l 1,160,-1
 62 266 l 1,157,-1
146 266 m 1,161,-1
 146 266 l 1,162,-1
 146 266 l 1,163,-1
 146 266 l 1,164,-1
 146 266 l 1,161,-1
229 266 m 1,165,-1
 229 266 l 1,166,-1
 229 266 l 1,167,-1
 229 266 l 1,168,-1
 229 266 l 1,165,-1
313 266 m 1,169,-1
 313 266 l 1,170,-1
 313 266 l 1,171,-1
 313 266 l 1,172,-1
 313 266 l 1,169,-1
208 87 m 1,173,174
 206.8 86.9333333333 206.8 86.9333333333 205.626666667 86.9333333333 c 0,175,176
 189.2 86.9333333333 189.2 86.9333333333 178 100 c 256,177,178
 166 114 166 114 166 134 c 256,179,180
 166 154 166 154 178 168 c 0,181,182
 182 174 182 174 190 178 c 1,183,-1
 190 178 l 1,184,185
 184 182 184 182 178 188 c 0,186,187
 166 202 166 202 166 221 c 256,188,189
 166 241 166 241 178 255 c 0,190,191
 182 261 182 261 190 265 c 1,192,-1
 190 265 l 1,193,-1
 188 266 l 1,194,195
 178 260 178 260 166 260 c 128,-1,196
 154 260 154 260 146 266 c 1,197,198
 136 260 136 260 125 260 c 0,199,200
 113 260 113 260 104 266 c 1,201,-1
 104 266 l 1,202,203
 95 260 95 260 83 260 c 0,204,205
 72 260 72 260 62 266 c 1,206,-1
 62 266 l 1,207,208
 53 260 53 260 41 260 c 0,209,210
 24 260 24 260 12 274 c 256,211,212
 0 288 0 288 0 308 c 256,213,214
 0 328 0 328 12 342 c 256,215,216
 24 356 24 356 41 356 c 0,217,218
 53 356 53 356 62 350 c 1,219,-1
 62 350 l 1,220,221
 72 356 72 356 83 356 c 0,222,223
 95 356 95 356 104 350 c 1,224,-1
 104 350 l 1,225,226
 113 356 113 356 125 356 c 0,227,228
 136 356 136 356 146 350 c 1,229,-1
 146 350 l 1,230,231
 154 356 154 356 166 356 c 128,-1,232
 178 356 178 356 188 350 c 1,233,-1
 188 350 l 1,234,235
 190 351 190 351 190 352 c 1,236,-1
 190 352 l 1,237,238
 184 355 184 355 178 361 c 0,239,240
 166 374 166 374 166 394 c 256,241,242
 166 414 166 414 178 428 c 0,243,244
 182 434 182 434 190 438 c 1,245,-1
 190 438 l 1,246,247
 184 441 184 441 178 448 c 0,248,249
 166 462 166 462 166 482 c 256,250,251
 166 502 166 502 178 515 c 256,252,253
 190 530 190 530 208 530 c 256,254,255
 225 530 225 530 238 515 c 0,256,257
 250 502 250 502 250 482 c 256,258,259
 250 462 250 462 238 448 c 0,260,261
 233 442 233 442 226 438 c 1,262,-1
 226 438 l 1,263,264
 232 434 232 434 238 428 c 0,265,266
 250 414 250 414 250 394 c 256,267,268
 250 374 250 374 238 361 c 0,269,270
 233 355 233 355 226 352 c 1,271,-1
 226 352 l 1,272,273
 228 352 228 352 229 350 c 1,274,-1
 229 350 l 1,275,276
 239 356 239 356 250 356 c 0,277,278
 262 356 262 356 271 350 c 1,279,-1
 271 350 l 1,280,281
 280 356 280 356 292 356 c 0,282,283
 303 356 303 356 313 350 c 1,284,-1
 313 350 l 1,285,286
 322 356 322 356 333 356 c 128,-1,287
 344 356 344 356 354 350 c 1,288,-1
 354 350 l 1,289,290
 363 356 363 356 375 356 c 0,291,292
 392 356 392 356 404 342 c 256,293,294
 416 328 416 328 416 308 c 256,295,296
 416 288 416 288 404 274 c 256,297,298
 392 260 392 260 375 260 c 0,299,300
 363 260 363 260 354 266 c 1,301,302
 344 260 344 260 333 260 c 0,303,304
 321 260 321 260 313 266 c 1,305,-1
 313 266 l 1,306,307
 303 260 303 260 292 260 c 0,308,309
 280 260 280 260 271 266 c 1,310,-1
 271 266 l 1,311,312
 262 260 262 260 250 260 c 0,313,314
 239 260 239 260 229 266 c 1,315,-1
 229 266 l 1,316,317
 227 265 227 265 226 265 c 1,318,-1
 226 265 l 1,319,320
 232 262 232 262 238 255 c 0,321,322
 250 241 250 241 250 221 c 256,323,324
 250 202 250 202 238 188 c 0,325,326
 233 182 233 182 226 178 c 1,327,-1
 226 178 l 1,328,329
 232 175 232 175 238 168 c 0,330,331
 250 154 250 154 250 134 c 256,332,333
 250 114 250 114 238 100 c 0,334,335
 225.866666667 86.9333333333 225.866666667 86.9333333333 210.248888889 86.9333333333 c 0,336,337
 209.133333333 86.9333333333 209.133333333 86.9333333333 208 87 c 1,338,-1
 208 87 l 1,173,174
EndSplineSet
EndChar

StartChar: comma
Encoding: 44 44 12
Width: 291
VWidth: 750
Flags: W
LayerCount: 2
Fore
SplineSet
20 -167 m 1,0,1
 20 -167 l 1,2,-1
 20 -167 l 1,3,4
 20 -167 l 1,5,-1
 20 -167 l 1,0,1
104 -167 m 1,6,7
 104 -167 l 1,8,-1
 104 -167 l 1,9,10
 104 -167 l 1,11,-1
 104 -167 l 1,6,7
188 -167 m 1,12,13
 188 -167 l 1,14,-1
 188 -167 l 1,15,16
 188 -167 l 1,17,-1
 188 -167 l 1,12,13
0 -173 m 1,18,19
 -17 -173 -17 -173 -29 -160 c 0,20,21
 -41 -146 -41 -146 -41 -125 c 256,22,23
 -41 -105 -41 -105 -29 -92 c 256,24,25
 -17 -78 -17 -78 0 -78 c 0,26,27
 11 -78 11 -78 20 -84 c 1,28,-1
 20 -84 l 1,29,30
 22 -82 22 -82 24 -82 c 1,31,-1
 24 -82 l 1,32,33
 18 -78 18 -78 12 -73 c 0,34,35
 0 -59 0 -59 0 -39 c 256,36,37
 0 -19 0 -19 12 -5 c 0,38,39
 23.2 8.06666666667 23.2 8.06666666667 38.7555555556 8.06666666667 c 0,40,41
 39.8666666667 8.06666666667 39.8666666667 8.06666666667 41 8 c 256,42,43
 58 8 58 8 71 -5 c 0,44,45
 83 -19 83 -19 83 -39 c 256,46,47
 83 -59 83 -59 71 -73 c 0,48,49
 66 -78 66 -78 59 -82 c 1,50,-1
 59 -82 l 1,51,52
 61 -83 61 -83 62 -84 c 1,53,-1
 62 -84 l 1,54,55
 72 -78 72 -78 83 -78 c 0,56,57
 95 -78 95 -78 104 -84 c 1,58,-1
 104 -84 l 1,59,60
 113 -78 113 -78 125 -78 c 0,61,62
 136 -78 136 -78 146 -84 c 1,63,-1
 146 -84 l 1,64,65
 154 -78 154 -78 166 -78 c 128,-1,66
 178 -78 178 -78 188 -84 c 1,67,-1
 188 -84 l 1,68,69
 197 -78 197 -78 208 -78 c 0,70,71
 220 -78 220 -78 229 -84 c 1,72,-1
 229 -84 l 1,73,74
 239 -78 239 -78 250 -78 c 0,75,76
 267 -78 267 -78 280 -92 c 0,77,78
 292 -106 292 -106 292 -125 c 256,79,80
 292 -145 292 -145 280 -160 c 0,81,82
 267.866666667 -173.066666667 267.866666667 -173.066666667 252.248888889 -173.066666667 c 0,83,84
 251.133333333 -173.066666667 251.133333333 -173.066666667 250 -173 c 0,85,86
 239 -173 239 -173 229 -167 c 1,87,88
 220 -173 220 -173 208 -173 c 0,89,90
 198 -173 198 -173 188 -167 c 1,91,-1
 188 -167 l 1,92,93
 178 -173 178 -173 166 -173 c 128,-1,94
 154 -173 154 -173 146 -167 c 1,95,-1
 146 -167 l 1,96,97
 136 -173 136 -173 125 -173 c 0,98,99
 113 -173 113 -173 104 -167 c 1,100,-1
 104 -167 l 1,101,102
 95 -173 95 -173 83 -173 c 0,103,104
 72 -173 72 -173 62 -167 c 1,105,-1
 62 -167 l 1,106,107
 53 -173 53 -173 41 -173 c 0,108,109
 30 -173 30 -173 20 -167 c 1,110,-1
 20 -167 l 1,111,112
 11 -173 11 -173 0 -173 c 1,113,-1
 0 -173 l 1,18,19
62 93 m 1,114,-1
 62 93 l 1,115,-1
 62 93 l 1,116,-1
 62 93 l 1,117,-1
 62 93 l 1,114,-1
104 93 m 1,118,119
 104 93 l 1,120,-1
 104 93 l 1,121,122
 104 93 l 1,123,-1
 104 93 l 1,118,119
83 0 m 1,124,125
 66 0 66 0 54 14 c 0,126,127
 41 28 41 28 41 47 c 256,128,129
 41 67 41 67 54 81 c 0,130,131
 59 87 59 87 65 91 c 1,132,-1
 65 91 l 1,133,134
 63 92 63 92 62 93 c 1,135,-1
 62 93 l 1,136,137
 53 87 53 87 41 87 c 0,138,139
 39.8666666667 86.9333333333 39.8666666667 86.9333333333 38.7555555556 86.9333333333 c 0,140,141
 23.2 86.9333333333 23.2 86.9333333333 12 100 c 256,142,143
 0 114 0 114 0 134 c 256,144,145
 0 154 0 154 12 168 c 256,146,147
 24 182 24 182 41 182 c 0,148,149
 53 182 53 182 62 176 c 1,150,-1
 62 176 l 1,151,152
 64 177 64 177 65 178 c 1,153,-1
 65 178 l 1,154,155
 58 182 58 182 54 188 c 0,156,157
 41 202 41 202 41 221 c 256,158,159
 41 241 41 241 54 255 c 0,160,161
 66 268 66 268 83 268 c 256,162,163
 100 268 100 268 112 255 c 0,164,165
 124 241 124 241 125 221 c 256,166,167
 124 202 124 202 112 188 c 0,168,169
 106 182 106 182 100 178 c 1,170,-1
 100 178 l 1,171,172
 102 178 102 178 104 176 c 1,173,-1
 104 176 l 1,174,175
 113 182 113 182 125 182 c 0,176,177
 142 182 142 182 154 168 c 128,-1,178
 166 154 166 154 166 134 c 256,179,180
 166 114 166 114 154 100 c 0,181,182
 142.8 86.9333333333 142.8 86.9333333333 127.244444444 86.9333333333 c 0,183,184
 126.133333333 86.9333333333 126.133333333 86.9333333333 125 87 c 0,185,186
 113 87 113 87 104 93 c 1,187,-1
 104 93 l 1,188,189
 102 92 102 92 100 91 c 1,190,-1
 100 91 l 1,191,192
 106 88 106 88 112 81 c 0,193,194
 124 67 124 67 125 47 c 256,195,196
 124 27 124 27 112 14 c 0,197,198
 99 0 99 0 83 0 c 1,199,-1
 83 0 l 1,124,125
EndSplineSet
EndChar

StartChar: hyphen
Encoding: 45 45 13
Width: 499
VWidth: 750
Flags: W
LayerCount: 2
Fore
SplineSet
20 -167 m 1,0,1
 20 -167 l 1,2,-1
 20 -167 l 1,3,4
 20 -167 l 1,5,-1
 20 -167 l 1,0,1
104 -167 m 1,6,7
 104 -167 l 1,8,-1
 104 -167 l 1,9,10
 104 -167 l 1,11,-1
 104 -167 l 1,6,7
188 -167 m 1,12,13
 188 -167 l 1,14,-1
 188 -167 l 1,15,16
 188 -167 l 1,17,-1
 188 -167 l 1,12,13
271 -167 m 1,18,19
 271 -167 l 1,20,-1
 271 -167 l 1,21,22
 271 -167 l 1,23,-1
 271 -167 l 1,18,19
354 -167 m 1,24,25
 354 -167 l 1,26,-1
 354 -167 l 1,27,28
 354 -167 l 1,29,-1
 354 -167 l 1,24,25
437 -167 m 1,30,31
 437 -167 l 1,32,-1
 437 -167 l 1,33,34
 437 -167 l 1,35,-1
 437 -167 l 1,30,31
0 -173 m 1,36,37
 -17 -173 -17 -173 -29 -160 c 0,38,39
 -41 -146 -41 -146 -41 -125 c 256,40,41
 -41 -105 -41 -105 -29 -92 c 256,42,43
 -17 -78 -17 -78 0 -78 c 0,44,45
 11 -78 11 -78 20 -84 c 1,46,-1
 20 -84 l 1,47,48
 30 -78 30 -78 41 -78 c 0,49,50
 53 -78 53 -78 62 -84 c 1,51,-1
 62 -84 l 1,52,53
 72 -78 72 -78 83 -78 c 0,54,55
 95 -78 95 -78 104 -84 c 1,56,-1
 104 -84 l 1,57,58
 113 -78 113 -78 125 -78 c 0,59,60
 136 -78 136 -78 146 -84 c 1,61,-1
 146 -84 l 1,62,63
 154 -78 154 -78 166 -78 c 128,-1,64
 178 -78 178 -78 188 -84 c 1,65,-1
 188 -84 l 1,66,67
 197 -78 197 -78 208 -78 c 0,68,69
 220 -78 220 -78 229 -84 c 1,70,-1
 229 -84 l 1,71,72
 239 -78 239 -78 250 -78 c 0,73,74
 262 -78 262 -78 271 -84 c 1,75,-1
 271 -84 l 1,76,77
 280 -78 280 -78 292 -78 c 0,78,79
 303 -78 303 -78 313 -84 c 1,80,-1
 313 -84 l 1,81,82
 322 -78 322 -78 333 -78 c 128,-1,83
 344 -78 344 -78 354 -84 c 1,84,-1
 354 -84 l 1,85,86
 363 -78 363 -78 375 -78 c 0,87,88
 386 -78 386 -78 395 -84 c 1,89,-1
 395 -84 l 1,90,91
 405 -78 405 -78 416 -78 c 0,92,93
 428 -78 428 -78 437 -84 c 1,94,-1
 437 -84 l 1,95,96
 447 -78 447 -78 458 -78 c 0,97,98
 476 -78 476 -78 488 -92 c 128,-1,99
 500 -106 500 -106 500 -125 c 256,100,101
 500 -145 500 -145 488 -160 c 0,102,103
 475.866666667 -173.066666667 475.866666667 -173.066666667 460.248888889 -173.066666667 c 0,104,105
 459.133333333 -173.066666667 459.133333333 -173.066666667 458 -173 c 0,106,107
 447 -173 447 -173 437 -167 c 1,108,109
 428 -173 428 -173 416 -173 c 0,110,111
 405 -173 405 -173 395 -167 c 1,112,113
 386 -173 386 -173 375 -173 c 0,114,115
 363 -173 363 -173 354 -167 c 1,116,117
 344 -173 344 -173 333 -173 c 0,118,119
 321 -173 321 -173 313 -167 c 1,120,-1
 313 -167 l 1,121,122
 303 -173 303 -173 292 -173 c 0,123,124
 280 -173 280 -173 271 -167 c 1,125,-1
 271 -167 l 1,126,127
 262 -173 262 -173 250 -173 c 0,128,129
 239 -173 239 -173 229 -167 c 1,130,131
 220 -173 220 -173 208 -173 c 0,132,133
 198 -173 198 -173 188 -167 c 1,134,-1
 188 -167 l 1,135,136
 178 -173 178 -173 166 -173 c 128,-1,137
 154 -173 154 -173 146 -167 c 1,138,-1
 146 -167 l 1,139,140
 136 -173 136 -173 125 -173 c 0,141,142
 113 -173 113 -173 104 -167 c 1,143,-1
 104 -167 l 1,144,145
 95 -173 95 -173 83 -173 c 0,146,147
 72 -173 72 -173 62 -167 c 1,148,-1
 62 -167 l 1,149,150
 53 -173 53 -173 41 -173 c 0,151,152
 30 -173 30 -173 20 -167 c 1,153,-1
 20 -167 l 1,154,155
 11 -173 11 -173 0 -173 c 1,156,-1
 0 -173 l 1,36,37
62 266 m 1,157,-1
 62 266 l 1,158,-1
 62 266 l 1,159,-1
 62 266 l 1,160,-1
 62 266 l 1,157,-1
146 266 m 1,161,-1
 146 266 l 1,162,-1
 146 266 l 1,163,-1
 146 266 l 1,164,-1
 146 266 l 1,161,-1
229 266 m 1,165,-1
 229 266 l 1,166,-1
 229 266 l 1,167,-1
 229 266 l 1,168,-1
 229 266 l 1,165,-1
313 266 m 1,169,-1
 313 266 l 1,170,-1
 313 266 l 1,171,-1
 313 266 l 1,172,-1
 313 266 l 1,169,-1
41 260 m 1,173,174
 24 260 24 260 12 274 c 256,175,176
 0 288 0 288 0 308 c 256,177,178
 0 328 0 328 12 342 c 256,179,180
 24 356 24 356 41 356 c 0,181,182
 53 356 53 356 62 350 c 1,183,-1
 62 350 l 1,184,185
 72 356 72 356 83 356 c 0,186,187
 95 356 95 356 104 350 c 1,188,-1
 104 350 l 1,189,190
 113 356 113 356 125 356 c 0,191,192
 136 356 136 356 146 350 c 1,193,-1
 146 350 l 1,194,195
 154 356 154 356 166 356 c 128,-1,196
 178 356 178 356 188 350 c 1,197,-1
 188 350 l 1,198,199
 197 356 197 356 208 356 c 0,200,201
 220 356 220 356 229 350 c 1,202,-1
 229 350 l 1,203,204
 239 356 239 356 250 356 c 0,205,206
 262 356 262 356 271 350 c 1,207,-1
 271 350 l 1,208,209
 280 356 280 356 292 356 c 0,210,211
 303 356 303 356 313 350 c 1,212,-1
 313 350 l 1,213,214
 322 356 322 356 333 356 c 128,-1,215
 344 356 344 356 354 350 c 1,216,-1
 354 350 l 1,217,218
 363 356 363 356 375 356 c 0,219,220
 392 356 392 356 404 342 c 256,221,222
 416 328 416 328 416 308 c 256,223,224
 416 288 416 288 404 274 c 256,225,226
 392 260 392 260 375 260 c 0,227,228
 363 260 363 260 354 266 c 1,229,230
 344 260 344 260 333 260 c 0,231,232
 321 260 321 260 313 266 c 1,233,-1
 313 266 l 1,234,235
 303 260 303 260 292 260 c 0,236,237
 280 260 280 260 271 266 c 1,238,239
 262 260 262 260 250 260 c 0,240,241
 239 260 239 260 229 266 c 1,242,-1
 229 266 l 1,243,244
 220 260 220 260 208 260 c 0,245,246
 198 260 198 260 188 266 c 1,247,248
 178 260 178 260 166 260 c 128,-1,249
 154 260 154 260 146 266 c 1,250,-1
 146 266 l 1,251,252
 136 260 136 260 125 260 c 0,253,254
 113 260 113 260 104 266 c 1,255,-1
 104 266 l 1,256,257
 95 260 95 260 83 260 c 0,258,259
 72 260 72 260 62 266 c 1,260,-1
 62 266 l 1,261,262
 53 260 53 260 41 260 c 1,263,-1
 41 260 l 1,173,174
EndSplineSet
EndChar

StartChar: period
Encoding: 46 46 14
Width: 291
VWidth: 750
Flags: W
LayerCount: 2
Fore
SplineSet
20 -167 m 1,0,1
 20 -167 l 1,2,-1
 20 -167 l 1,3,4
 20 -167 l 1,5,-1
 20 -167 l 1,0,1
104 -167 m 1,6,7
 104 -167 l 1,8,-1
 104 -167 l 1,9,10
 104 -167 l 1,11,-1
 104 -167 l 1,6,7
188 -167 m 1,12,13
 188 -167 l 1,14,-1
 188 -167 l 1,15,16
 188 -167 l 1,17,-1
 188 -167 l 1,12,13
0 -173 m 1,18,19
 -17 -173 -17 -173 -29 -160 c 0,20,21
 -41 -146 -41 -146 -41 -125 c 256,22,23
 -41 -105 -41 -105 -29 -92 c 256,24,25
 -17 -78 -17 -78 0 -78 c 0,26,27
 11 -78 11 -78 20 -84 c 1,28,-1
 20 -84 l 1,29,30
 30 -78 30 -78 41 -78 c 0,31,32
 53 -78 53 -78 62 -84 c 1,33,-1
 62 -84 l 1,34,35
 72 -78 72 -78 83 -78 c 0,36,37
 95 -78 95 -78 104 -84 c 1,38,-1
 104 -84 l 1,39,40
 113 -78 113 -78 125 -78 c 0,41,42
 136 -78 136 -78 146 -84 c 1,43,-1
 146 -84 l 1,44,45
 154 -78 154 -78 166 -78 c 128,-1,46
 178 -78 178 -78 188 -84 c 1,47,-1
 188 -84 l 1,48,49
 197 -78 197 -78 208 -78 c 0,50,51
 220 -78 220 -78 229 -84 c 1,52,-1
 229 -84 l 1,53,54
 239 -78 239 -78 250 -78 c 0,55,56
 267 -78 267 -78 280 -92 c 0,57,58
 292 -106 292 -106 292 -125 c 256,59,60
 292 -145 292 -145 280 -160 c 0,61,62
 267.866666667 -173.066666667 267.866666667 -173.066666667 252.248888889 -173.066666667 c 0,63,64
 251.133333333 -173.066666667 251.133333333 -173.066666667 250 -173 c 0,65,66
 239 -173 239 -173 229 -167 c 1,67,68
 220 -173 220 -173 208 -173 c 0,69,70
 198 -173 198 -173 188 -167 c 1,71,-1
 188 -167 l 1,72,73
 178 -173 178 -173 166 -173 c 128,-1,74
 154 -173 154 -173 146 -167 c 1,75,-1
 146 -167 l 1,76,77
 136 -173 136 -173 125 -173 c 0,78,79
 113 -173 113 -173 104 -167 c 1,80,-1
 104 -167 l 1,81,82
 95 -173 95 -173 83 -173 c 0,83,84
 72 -173 72 -173 62 -167 c 1,85,-1
 62 -167 l 1,86,87
 53 -173 53 -173 41 -173 c 0,88,89
 30 -173 30 -173 20 -167 c 1,90,-1
 20 -167 l 1,91,92
 11 -173 11 -173 0 -173 c 1,93,-1
 0 -173 l 1,18,19
62 93 m 1,94,95
 62 93 l 1,96,-1
 62 93 l 1,97,98
 62 93 l 1,99,-1
 62 93 l 1,94,95
83 0 m 1,100,101
 66 0 66 0 54 14 c 0,102,103
 41 28 41 28 41 47 c 256,104,105
 41 67 41 67 54 81 c 0,106,107
 59 87 59 87 65 91 c 1,108,-1
 65 91 l 1,109,110
 63 92 63 92 62 93 c 1,111,112
 53 87 53 87 41 87 c 0,113,114
 39.8666666667 86.9333333333 39.8666666667 86.9333333333 38.7555555556 86.9333333333 c 0,115,116
 23.2 86.9333333333 23.2 86.9333333333 12 100 c 256,117,118
 0 114 0 114 0 134 c 256,119,120
 0 154 0 154 12 168 c 256,121,122
 24 182 24 182 41 182 c 0,123,124
 53 182 53 182 62 176 c 1,125,-1
 62 176 l 1,126,127
 64 177 64 177 65 178 c 1,128,-1
 65 178 l 1,129,130
 58 182 58 182 54 188 c 0,131,132
 41 202 41 202 41 221 c 256,133,134
 41 241 41 241 54 255 c 0,135,136
 66 268 66 268 83 268 c 256,137,138
 100 268 100 268 112 255 c 0,139,140
 124 241 124 241 125 221 c 256,141,142
 124 202 124 202 112 188 c 0,143,144
 106 182 106 182 100 178 c 1,145,-1
 100 178 l 1,146,147
 102 178 102 178 104 176 c 1,148,-1
 104 176 l 1,149,150
 113 182 113 182 125 182 c 0,151,152
 142 182 142 182 154 168 c 128,-1,153
 166 154 166 154 166 134 c 256,154,155
 166 114 166 114 154 100 c 0,156,157
 142.8 86.9333333333 142.8 86.9333333333 127.244444444 86.9333333333 c 0,158,159
 126.133333333 86.9333333333 126.133333333 86.9333333333 125 87 c 0,160,161
 113 87 113 87 104 93 c 1,162,-1
 104 93 l 1,163,164
 102 92 102 92 100 91 c 1,165,-1
 100 91 l 1,166,167
 106 88 106 88 112 81 c 0,168,169
 124 67 124 67 125 47 c 256,170,171
 124 27 124 27 112 14 c 0,172,173
 99 0 99 0 83 0 c 1,174,-1
 83 0 l 1,100,101
EndSplineSet
EndChar

StartChar: slash
Encoding: 47 47 15
Width: 499
VWidth: 750
Flags: W
LayerCount: 2
Fore
SplineSet
20 -167 m 1,0,1
 20 -167 l 1,2,-1
 20 -167 l 1,3,4
 20 -167 l 1,5,-1
 20 -167 l 1,0,1
104 -167 m 1,6,7
 104 -167 l 1,8,-1
 104 -167 l 1,9,10
 104 -167 l 1,11,-1
 104 -167 l 1,6,7
188 -167 m 1,12,13
 188 -167 l 1,14,-1
 188 -167 l 1,15,16
 188 -167 l 1,17,-1
 188 -167 l 1,12,13
271 -167 m 1,18,19
 271 -167 l 1,20,-1
 271 -167 l 1,21,22
 271 -167 l 1,23,-1
 271 -167 l 1,18,19
354 -167 m 1,24,25
 354 -167 l 1,26,-1
 354 -167 l 1,27,28
 354 -167 l 1,29,-1
 354 -167 l 1,24,25
437 -167 m 1,30,31
 437 -167 l 1,32,-1
 437 -167 l 1,33,34
 437 -167 l 1,35,-1
 437 -167 l 1,30,31
0 -173 m 1,36,37
 -17 -173 -17 -173 -29 -160 c 0,38,39
 -41 -146 -41 -146 -41 -125 c 256,40,41
 -41 -105 -41 -105 -29 -92 c 256,42,43
 -17 -78 -17 -78 0 -78 c 0,44,45
 11 -78 11 -78 20 -84 c 1,46,-1
 20 -84 l 1,47,48
 30 -78 30 -78 41 -78 c 0,49,50
 53 -78 53 -78 62 -84 c 1,51,-1
 62 -84 l 1,52,53
 72 -78 72 -78 83 -78 c 0,54,55
 95 -78 95 -78 104 -84 c 1,56,-1
 104 -84 l 1,57,58
 113 -78 113 -78 125 -78 c 0,59,60
 136 -78 136 -78 146 -84 c 1,61,-1
 146 -84 l 1,62,63
 154 -78 154 -78 166 -78 c 128,-1,64
 178 -78 178 -78 188 -84 c 1,65,-1
 188 -84 l 1,66,67
 197 -78 197 -78 208 -78 c 0,68,69
 220 -78 220 -78 229 -84 c 1,70,-1
 229 -84 l 1,71,72
 239 -78 239 -78 250 -78 c 0,73,74
 262 -78 262 -78 271 -84 c 1,75,-1
 271 -84 l 1,76,77
 280 -78 280 -78 292 -78 c 0,78,79
 303 -78 303 -78 313 -84 c 1,80,-1
 313 -84 l 1,81,82
 322 -78 322 -78 333 -78 c 128,-1,83
 344 -78 344 -78 354 -84 c 1,84,-1
 354 -84 l 1,85,86
 363 -78 363 -78 375 -78 c 0,87,88
 386 -78 386 -78 395 -84 c 1,89,-1
 395 -84 l 1,90,91
 405 -78 405 -78 416 -78 c 0,92,93
 428 -78 428 -78 437 -84 c 1,94,-1
 437 -84 l 1,95,96
 447 -78 447 -78 458 -78 c 0,97,98
 476 -78 476 -78 488 -92 c 128,-1,99
 500 -106 500 -106 500 -125 c 256,100,101
 500 -145 500 -145 488 -160 c 0,102,103
 475.866666667 -173.066666667 475.866666667 -173.066666667 460.248888889 -173.066666667 c 0,104,105
 459.133333333 -173.066666667 459.133333333 -173.066666667 458 -173 c 0,106,107
 447 -173 447 -173 437 -167 c 1,108,109
 428 -173 428 -173 416 -173 c 0,110,111
 405 -173 405 -173 395 -167 c 1,112,113
 386 -173 386 -173 375 -173 c 0,114,115
 363 -173 363 -173 354 -167 c 1,116,117
 344 -173 344 -173 333 -173 c 0,118,119
 321 -173 321 -173 313 -167 c 1,120,-1
 313 -167 l 1,121,122
 303 -173 303 -173 292 -173 c 0,123,124
 280 -173 280 -173 271 -167 c 1,125,-1
 271 -167 l 1,126,127
 262 -173 262 -173 250 -173 c 0,128,129
 239 -173 239 -173 229 -167 c 1,130,131
 220 -173 220 -173 208 -173 c 0,132,133
 198 -173 198 -173 188 -167 c 1,134,-1
 188 -167 l 1,135,136
 178 -173 178 -173 166 -173 c 128,-1,137
 154 -173 154 -173 146 -167 c 1,138,-1
 146 -167 l 1,139,140
 136 -173 136 -173 125 -173 c 0,141,142
 113 -173 113 -173 104 -167 c 1,143,-1
 104 -167 l 1,144,145
 95 -173 95 -173 83 -173 c 0,146,147
 72 -173 72 -173 62 -167 c 1,148,-1
 62 -167 l 1,149,150
 53 -173 53 -173 41 -173 c 0,151,152
 30 -173 30 -173 20 -167 c 1,153,-1
 20 -167 l 1,154,155
 11 -173 11 -173 0 -173 c 1,156,-1
 0 -173 l 1,36,37
41 0 m 1,157,158
 24 0 24 0 12 14 c 256,159,160
 0 28 0 28 0 47 c 256,161,162
 0 67 0 67 12 81 c 256,163,164
 24 95 24 95 41 95 c 256,165,166
 58 95 58 95 71 81 c 0,167,168
 83 67 83 67 83 47 c 256,169,170
 83 27 83 27 71 14 c 0,171,172
 58 0 58 0 41 0 c 1,173,-1
 41 0 l 1,157,158
125 87 m 1,174,175
 123.866666667 86.9333333333 123.866666667 86.9333333333 122.751111111 86.9333333333 c 0,176,177
 107.133333333 86.9333333333 107.133333333 86.9333333333 95 100 c 0,178,179
 83 114 83 114 83 134 c 256,180,181
 83 154 83 154 95 168 c 0,182,183
 108 182 108 182 125 182 c 256,184,185
 142 182 142 182 154 168 c 128,-1,186
 166 154 166 154 166 134 c 256,187,188
 166 114 166 114 154 100 c 0,189,190
 142.8 86.9333333333 142.8 86.9333333333 127.244444444 86.9333333333 c 0,191,192
 126.133333333 86.9333333333 126.133333333 86.9333333333 125 87 c 1,193,-1
 125 87 l 1,174,175
166 173 m 1,194,195
 149 174 149 174 137 188 c 128,-1,196
 125 202 125 202 125 221 c 256,197,198
 125 241 125 241 137 255 c 0,199,200
 150 268 150 268 166 268 c 256,201,202
 183 268 183 268 196 255 c 256,203,204
 208 241 208 241 208 221 c 256,205,206
 208 202 208 202 196 188 c 256,207,208
 184 174 184 174 166 173 c 1,209,-1
 166 173 l 1,194,195
208 260 m 1,210,211
 190 260 190 260 178 274 c 256,212,213
 166 288 166 288 166 308 c 256,214,215
 166 328 166 328 178 342 c 256,216,217
 190 356 190 356 208 356 c 256,218,219
 225 356 225 356 238 342 c 0,220,221
 250 328 250 328 250 308 c 256,222,223
 250 288 250 288 238 274 c 0,224,225
 225 260 225 260 208 260 c 1,226,-1
 208 260 l 1,210,211
250 347 m 1,227,228
 232 347 232 347 220 361 c 0,229,230
 207.928571429 373.071428571 207.928571429 373.071428571 207.928571429 391.178571429 c 0,231,232
 207.928571429 413.916666667 207.928571429 413.916666667 220 428 c 128,-1,233
 232 442 232 442 250 442 c 256,234,235
 267 442 267 442 280 428 c 0,236,237
 292 414 292 414 292 394 c 256,238,239
 292 374 292 374 280 361 c 0,240,241
 267 347 267 347 250 347 c 1,242,-1
 250 347 l 1,227,228
292 434 m 1,243,244
 275 434 275 434 262 448 c 0,245,246
 250 462 250 462 250 482 c 256,247,248
 250 502 250 502 262 515 c 0,249,250
 275 530 275 530 292 530 c 256,251,252
 309 530 309 530 321 515 c 0,253,254
 333.071428571 502.928571429 333.071428571 502.928571429 333.071428571 484.821428571 c 0,255,256
 333.071428571 462.083333333 333.071428571 462.083333333 321 448 c 128,-1,257
 309 434 309 434 292 434 c 1,258,-1
 292 434 l 1,243,244
375 520 m 1,259,260
 358 520 358 520 345 535 c 256,261,262
 333 548 333 548 333 568 c 256,263,264
 333 588 333 588 345 602 c 256,265,266
 357 616 357 616 375 616 c 0,267,268
 392 616 392 616 404 602 c 256,269,270
 416 588 416 588 416 568 c 256,271,272
 416 548 416 548 404 535 c 256,273,274
 392 520 392 520 375 520 c 1,275,-1
 375 520 l 1,259,260
EndSplineSet
EndChar

StartChar: zero
Encoding: 48 48 16
Width: 499
VWidth: 750
Flags: W
LayerCount: 2
Fore
SplineSet
20 -167 m 1,0,1
 20 -167 l 1,2,-1
 20 -167 l 1,3,4
 20 -167 l 1,5,-1
 20 -167 l 1,0,1
104 -167 m 1,6,7
 104 -167 l 1,8,-1
 104 -167 l 1,9,10
 104 -167 l 1,11,-1
 104 -167 l 1,6,7
188 -167 m 1,12,13
 188 -167 l 1,14,-1
 188 -167 l 1,15,16
 188 -167 l 1,17,-1
 188 -167 l 1,12,13
271 -167 m 1,18,19
 271 -167 l 1,20,-1
 271 -167 l 1,21,22
 271 -167 l 1,23,-1
 271 -167 l 1,18,19
354 -167 m 1,24,25
 354 -167 l 1,26,-1
 354 -167 l 1,27,28
 354 -167 l 1,29,-1
 354 -167 l 1,24,25
437 -167 m 1,30,31
 437 -167 l 1,32,-1
 437 -167 l 1,33,34
 437 -167 l 1,35,-1
 437 -167 l 1,30,31
0 -173 m 1,36,37
 -17 -173 -17 -173 -29 -160 c 0,38,39
 -41 -146 -41 -146 -41 -125 c 256,40,41
 -41 -105 -41 -105 -29 -92 c 256,42,43
 -17 -78 -17 -78 0 -78 c 0,44,45
 11 -78 11 -78 20 -84 c 1,46,-1
 20 -84 l 1,47,48
 30 -78 30 -78 41 -78 c 0,49,50
 53 -78 53 -78 62 -84 c 1,51,-1
 62 -84 l 1,52,53
 72 -78 72 -78 83 -78 c 0,54,55
 95 -78 95 -78 104 -84 c 1,56,-1
 104 -84 l 1,57,58
 113 -78 113 -78 125 -78 c 0,59,60
 136 -78 136 -78 146 -84 c 1,61,-1
 146 -84 l 1,62,63
 154 -78 154 -78 166 -78 c 128,-1,64
 178 -78 178 -78 188 -84 c 1,65,-1
 188 -84 l 1,66,67
 197 -78 197 -78 208 -78 c 0,68,69
 220 -78 220 -78 229 -84 c 1,70,-1
 229 -84 l 1,71,72
 239 -78 239 -78 250 -78 c 0,73,74
 262 -78 262 -78 271 -84 c 1,75,-1
 271 -84 l 1,76,77
 280 -78 280 -78 292 -78 c 0,78,79
 303 -78 303 -78 313 -84 c 1,80,-1
 313 -84 l 1,81,82
 322 -78 322 -78 333 -78 c 128,-1,83
 344 -78 344 -78 354 -84 c 1,84,-1
 354 -84 l 1,85,86
 363 -78 363 -78 375 -78 c 0,87,88
 386 -78 386 -78 395 -84 c 1,89,-1
 395 -84 l 1,90,91
 405 -78 405 -78 416 -78 c 0,92,93
 428 -78 428 -78 437 -84 c 1,94,-1
 437 -84 l 1,95,96
 447 -78 447 -78 458 -78 c 0,97,98
 476 -78 476 -78 488 -92 c 128,-1,99
 500 -106 500 -106 500 -125 c 256,100,101
 500 -145 500 -145 488 -160 c 0,102,103
 475.866666667 -173.066666667 475.866666667 -173.066666667 460.248888889 -173.066666667 c 0,104,105
 459.133333333 -173.066666667 459.133333333 -173.066666667 458 -173 c 0,106,107
 447 -173 447 -173 437 -167 c 1,108,109
 428 -173 428 -173 416 -173 c 0,110,111
 405 -173 405 -173 395 -167 c 1,112,113
 386 -173 386 -173 375 -173 c 0,114,115
 363 -173 363 -173 354 -167 c 1,116,117
 344 -173 344 -173 333 -173 c 0,118,119
 321 -173 321 -173 313 -167 c 1,120,-1
 313 -167 l 1,121,122
 303 -173 303 -173 292 -173 c 0,123,124
 280 -173 280 -173 271 -167 c 1,125,-1
 271 -167 l 1,126,127
 262 -173 262 -173 250 -173 c 0,128,129
 239 -173 239 -173 229 -167 c 1,130,131
 220 -173 220 -173 208 -173 c 0,132,133
 198 -173 198 -173 188 -167 c 1,134,-1
 188 -167 l 1,135,136
 178 -173 178 -173 166 -173 c 128,-1,137
 154 -173 154 -173 146 -167 c 1,138,-1
 146 -167 l 1,139,140
 136 -173 136 -173 125 -173 c 0,141,142
 113 -173 113 -173 104 -167 c 1,143,-1
 104 -167 l 1,144,145
 95 -173 95 -173 83 -173 c 0,146,147
 72 -173 72 -173 62 -167 c 1,148,-1
 62 -167 l 1,149,150
 53 -173 53 -173 41 -173 c 0,151,152
 30 -173 30 -173 20 -167 c 1,153,-1
 20 -167 l 1,154,155
 11 -173 11 -173 0 -173 c 1,156,-1
 0 -173 l 1,36,37
188 6 m 1,157,-1
 188 6 l 1,158,-1
 188 6 l 1,159,-1
 188 6 l 1,160,-1
 188 6 l 1,157,-1
166 0 m 1,161,162
 149 0 149 0 137 14 c 128,-1,163
 125 28 125 28 125 47 c 256,164,165
 125 67 125 67 137 81 c 0,166,167
 150 95 150 95 166 95 c 0,168,169
 178 95 178 95 188 89 c 1,170,-1
 188 89 l 1,171,172
 197 95 197 95 208 95 c 0,173,174
 220 95 220 95 229 89 c 1,175,-1
 229 89 l 1,176,177
 239 95 239 95 250 95 c 0,178,179
 267 95 267 95 280 81 c 0,180,181
 292 67 292 67 292 47 c 256,182,183
 292 27 292 27 280 14 c 0,184,185
 267 0 267 0 250 0 c 0,186,187
 239 0 239 0 229 6 c 1,188,189
 220 0 220 0 208 0 c 0,190,191
 198 0 198 0 188 6 c 1,192,193
 178 0 178 0 166 0 c 1,194,-1
 166 0 l 1,161,162
83 87 m 1,195,196
 81.8666666667 86.9333333333 81.8666666667 86.9333333333 80.7555555556 86.9333333333 c 0,197,198
 65.2 86.9333333333 65.2 86.9333333333 54 100 c 0,199,200
 41 114 41 114 41 134 c 256,201,202
 41 154 41 154 54 168 c 0,203,204
 66 182 66 182 83 182 c 256,205,206
 100 182 100 182 112 168 c 128,-1,207
 124 154 124 154 125 134 c 256,208,209
 124 114 124 114 112 100 c 0,210,211
 99.8666666667 86.9333333333 99.8666666667 86.9333333333 85.12 86.9333333333 c 0,212,213
 84.0666666667 86.9333333333 84.0666666667 86.9333333333 83 87 c 1,214,-1
 83 87 l 1,195,196
333 87 m 1,215,216
 331.866666667 86.9333333333 331.866666667 86.9333333333 330.755555556 86.9333333333 c 0,217,218
 315.2 86.9333333333 315.2 86.9333333333 304 100 c 0,219,220
 292 114 292 114 292 134 c 256,221,222
 292 154 292 154 304 168 c 0,223,224
 317 182 317 182 333 182 c 256,225,226
 350 182 350 182 362 168 c 0,227,228
 375 154 375 154 375 134 c 256,229,230
 375 114 375 114 362 100 c 0,231,232
 350.8 86.9333333333 350.8 86.9333333333 335.244444444 86.9333333333 c 0,233,234
 334.133333333 86.9333333333 334.133333333 86.9333333333 333 87 c 1,235,-1
 333 87 l 1,215,216
41 173 m 1,236,237
 24 174 24 174 12 188 c 256,238,239
 0 202 0 202 0 221 c 256,240,241
 0 241 0 241 12 255 c 0,242,243
 17 261 17 261 24 265 c 1,244,-1
 24 265 l 1,245,246
 18 268 18 268 12 274 c 0,247,248
 0 288 0 288 0 308 c 256,249,250
 0 328 0 328 12 342 c 0,251,252
 17 348 17 348 24 352 c 1,253,-1
 24 352 l 1,254,255
 18 355 18 355 12 361 c 0,256,257
 0 374 0 374 0 394 c 256,258,259
 0 414 0 414 12 428 c 256,260,261
 24 442 24 442 41 442 c 256,262,263
 58 442 58 442 71 428 c 0,264,265
 83 414 83 414 83 394 c 256,266,267
 83 374 83 374 71 361 c 0,268,269
 66 355 66 355 59 352 c 1,270,-1
 59 352 l 1,271,272
 65 348 65 348 71 342 c 0,273,274
 83 328 83 328 83 308 c 256,275,276
 83 288 83 288 71 274 c 0,277,278
 66 268 66 268 59 265 c 1,279,-1
 59 265 l 1,280,281
 65 262 65 262 71 255 c 0,282,283
 83 241 83 241 83 221 c 256,284,285
 83 202 83 202 71 188 c 0,286,287
 58 174 58 174 41 173 c 1,288,-1
 41 173 l 1,236,237
375 173 m 1,289,290
 358 174 358 174 345 188 c 256,291,292
 333 202 333 202 333 221 c 256,293,294
 333 241 333 241 345 255 c 0,295,296
 350 261 350 261 357 265 c 1,297,-1
 357 265 l 1,298,299
 351 268 351 268 345 274 c 0,300,301
 333 288 333 288 333 308 c 256,302,303
 333 328 333 328 345 342 c 0,304,305
 350 348 350 348 357 352 c 1,306,-1
 357 352 l 1,307,308
 351 355 351 355 345 361 c 0,309,310
 333 374 333 374 333 394 c 256,311,312
 333 414 333 414 345 428 c 256,313,314
 357 442 357 442 375 442 c 0,315,316
 392 442 392 442 404 428 c 256,317,318
 416 414 416 414 416 394 c 256,319,320
 416 374 416 374 404 361 c 0,321,322
 399 355 399 355 392 352 c 1,323,-1
 392 352 l 1,324,325
 398 348 398 348 404 342 c 0,326,327
 416 328 416 328 416 308 c 256,328,329
 416 288 416 288 404 274 c 0,330,331
 399 268 399 268 392 265 c 1,332,-1
 392 265 l 1,333,334
 398 262 398 262 404 255 c 0,335,336
 416 241 416 241 416 221 c 256,337,338
 416 202 416 202 404 188 c 256,339,340
 392 174 392 174 375 173 c 1,341,-1
 375 173 l 1,289,290
188 527 m 1,342,-1
 188 527 l 1,343,-1
 188 527 l 1,344,-1
 188 527 l 1,345,-1
 188 527 l 1,342,-1
229 527 m 1,346,347
 229 527 l 1,348,-1
 229 527 l 1,349,350
 229 527 l 1,351,-1
 229 527 l 1,346,347
83 434 m 1,352,353
 66 434 66 434 54 448 c 0,354,355
 41 462 41 462 41 482 c 256,356,357
 41 502 41 502 54 515 c 0,358,359
 66 530 66 530 83 530 c 256,360,361
 100 530 100 530 112 515 c 0,362,363
 124 502 124 502 125 482 c 256,364,365
 124 462 124 462 112 448 c 0,366,367
 99 434 99 434 83 434 c 1,368,-1
 83 434 l 1,352,353
333 434 m 1,369,370
 316 434 316 434 304 448 c 128,-1,371
 292 462 292 462 292 482 c 256,372,373
 292 502 292 502 304 515 c 0,374,375
 317 530 317 530 333 530 c 256,376,377
 350 530 350 530 362 515 c 0,378,379
 375 502 375 502 375 482 c 256,380,381
 375 462 375 462 362 448 c 0,382,383
 350 434 350 434 333 434 c 1,384,-1
 333 434 l 1,369,370
166 520 m 1,385,386
 149 520 149 520 137 535 c 0,387,388
 125 548 125 548 125 568 c 256,389,390
 125 588 125 588 137 602 c 0,391,392
 150 616 150 616 166 616 c 0,393,394
 178 616 178 616 188 610 c 1,395,-1
 188 610 l 1,396,397
 197 616 197 616 208 616 c 0,398,399
 220 616 220 616 229 610 c 1,400,-1
 229 610 l 1,401,402
 239 616 239 616 250 616 c 0,403,404
 267 616 267 616 280 602 c 0,405,406
 292 588 292 588 292 568 c 256,407,408
 292 548 292 548 280 535 c 0,409,410
 267 520 267 520 250 520 c 0,411,412
 239 520 239 520 229 527 c 1,413,414
 220 520 220 520 208 520 c 0,415,416
 198 520 198 520 188 527 c 1,417,418
 178 520 178 520 166 520 c 1,419,-1
 166 520 l 1,385,386
EndSplineSet
EndChar

StartChar: one
Encoding: 49 49 17
Width: 499
VWidth: 750
Flags: W
LayerCount: 2
Fore
SplineSet
20 -167 m 1,0,1
 20 -167 l 1,2,-1
 20 -167 l 1,3,4
 20 -167 l 1,5,-1
 20 -167 l 1,0,1
104 -167 m 1,6,7
 104 -167 l 1,8,-1
 104 -167 l 1,9,10
 104 -167 l 1,11,-1
 104 -167 l 1,6,7
188 -167 m 1,12,13
 188 -167 l 1,14,-1
 188 -167 l 1,15,16
 188 -167 l 1,17,-1
 188 -167 l 1,12,13
271 -167 m 1,18,19
 271 -167 l 1,20,-1
 271 -167 l 1,21,22
 271 -167 l 1,23,-1
 271 -167 l 1,18,19
354 -167 m 1,24,25
 354 -167 l 1,26,-1
 354 -167 l 1,27,28
 354 -167 l 1,29,-1
 354 -167 l 1,24,25
437 -167 m 1,30,31
 437 -167 l 1,32,-1
 437 -167 l 1,33,34
 437 -167 l 1,35,-1
 437 -167 l 1,30,31
0 -173 m 1,36,37
 -17 -173 -17 -173 -29 -160 c 0,38,39
 -41 -146 -41 -146 -41 -125 c 256,40,41
 -41 -105 -41 -105 -29 -92 c 256,42,43
 -17 -78 -17 -78 0 -78 c 0,44,45
 11 -78 11 -78 20 -84 c 1,46,-1
 20 -84 l 1,47,48
 30 -78 30 -78 41 -78 c 0,49,50
 53 -78 53 -78 62 -84 c 1,51,-1
 62 -84 l 1,52,53
 72 -78 72 -78 83 -78 c 0,54,55
 95 -78 95 -78 104 -84 c 1,56,-1
 104 -84 l 1,57,58
 113 -78 113 -78 125 -78 c 0,59,60
 136 -78 136 -78 146 -84 c 1,61,-1
 146 -84 l 1,62,63
 154 -78 154 -78 166 -78 c 128,-1,64
 178 -78 178 -78 188 -84 c 1,65,-1
 188 -84 l 1,66,67
 197 -78 197 -78 208 -78 c 0,68,69
 220 -78 220 -78 229 -84 c 1,70,-1
 229 -84 l 1,71,72
 239 -78 239 -78 250 -78 c 0,73,74
 262 -78 262 -78 271 -84 c 1,75,-1
 271 -84 l 1,76,77
 280 -78 280 -78 292 -78 c 0,78,79
 303 -78 303 -78 313 -84 c 1,80,-1
 313 -84 l 1,81,82
 322 -78 322 -78 333 -78 c 128,-1,83
 344 -78 344 -78 354 -84 c 1,84,-1
 354 -84 l 1,85,86
 363 -78 363 -78 375 -78 c 0,87,88
 386 -78 386 -78 395 -84 c 1,89,-1
 395 -84 l 1,90,91
 405 -78 405 -78 416 -78 c 0,92,93
 428 -78 428 -78 437 -84 c 1,94,-1
 437 -84 l 1,95,96
 447 -78 447 -78 458 -78 c 0,97,98
 476 -78 476 -78 488 -92 c 128,-1,99
 500 -106 500 -106 500 -125 c 256,100,101
 500 -145 500 -145 488 -160 c 0,102,103
 475.866666667 -173.066666667 475.866666667 -173.066666667 460.248888889 -173.066666667 c 0,104,105
 459.133333333 -173.066666667 459.133333333 -173.066666667 458 -173 c 0,106,107
 447 -173 447 -173 437 -167 c 1,108,109
 428 -173 428 -173 416 -173 c 0,110,111
 405 -173 405 -173 395 -167 c 1,112,113
 386 -173 386 -173 375 -173 c 0,114,115
 363 -173 363 -173 354 -167 c 1,116,117
 344 -173 344 -173 333 -173 c 0,118,119
 321 -173 321 -173 313 -167 c 1,120,-1
 313 -167 l 1,121,122
 303 -173 303 -173 292 -173 c 0,123,124
 280 -173 280 -173 271 -167 c 1,125,-1
 271 -167 l 1,126,127
 262 -173 262 -173 250 -173 c 0,128,129
 239 -173 239 -173 229 -167 c 1,130,131
 220 -173 220 -173 208 -173 c 0,132,133
 198 -173 198 -173 188 -167 c 1,134,-1
 188 -167 l 1,135,136
 178 -173 178 -173 166 -173 c 128,-1,137
 154 -173 154 -173 146 -167 c 1,138,-1
 146 -167 l 1,139,140
 136 -173 136 -173 125 -173 c 0,141,142
 113 -173 113 -173 104 -167 c 1,143,-1
 104 -167 l 1,144,145
 95 -173 95 -173 83 -173 c 0,146,147
 72 -173 72 -173 62 -167 c 1,148,-1
 62 -167 l 1,149,150
 53 -173 53 -173 41 -173 c 0,151,152
 30 -173 30 -173 20 -167 c 1,153,-1
 20 -167 l 1,154,155
 11 -173 11 -173 0 -173 c 1,156,-1
 0 -173 l 1,36,37
146 6 m 1,157,-1
 146 6 l 1,158,-1
 146 6 l 1,159,-1
 146 6 l 1,160,-1
 146 6 l 1,157,-1
146 440 m 1,161,-1
 146 440 l 1,162,-1
 146 440 l 1,163,-1
 146 440 l 1,164,-1
 146 440 l 1,161,-1
125 0 m 1,165,166
 108 0 108 0 95 14 c 0,167,168
 83 28 83 28 83 47 c 256,169,170
 83 67 83 67 95 81 c 0,171,172
 108 95 108 95 125 95 c 0,173,174
 136 95 136 95 146 89 c 1,175,-1
 146 89 l 1,176,177
 148 90 148 90 148 91 c 1,178,-1
 148 91 l 1,179,180
 142 94 142 94 137 100 c 0,181,182
 125 114 125 114 125 134 c 256,183,184
 125 154 125 154 137 168 c 0,185,186
 142 174 142 174 148 178 c 1,187,-1
 148 178 l 1,188,189
 142 182 142 182 137 188 c 0,190,191
 125 202 125 202 125 221 c 256,192,193
 125 241 125 241 137 255 c 0,194,195
 142 261 142 261 148 265 c 1,196,-1
 148 265 l 1,197,198
 142 268 142 268 137 274 c 0,199,200
 125 288 125 288 125 308 c 256,201,202
 125 328 125 328 137 342 c 0,203,204
 142 348 142 348 148 352 c 1,205,-1
 148 352 l 1,206,207
 142 355 142 355 137 361 c 0,208,209
 125 374 125 374 125 394 c 256,210,211
 125 414 125 414 137 428 c 0,212,213
 142 434 142 434 148 438 c 1,214,-1
 148 438 l 1,215,216
 146 439 146 439 146 440 c 1,217,-1
 146 440 l 1,218,219
 136 434 136 434 125 434 c 0,220,221
 108 434 108 434 95 448 c 0,222,223
 83 462 83 462 83 482 c 256,224,225
 83 502 83 502 95 515 c 0,226,227
 108 530 108 530 125 530 c 0,228,229
 136 530 136 530 146 523 c 1,230,-1
 146 523 l 1,231,232
 148 524 148 524 148 525 c 1,233,-1
 148 525 l 1,234,235
 142 528 142 528 137 535 c 0,236,237
 125 548 125 548 125 568 c 256,238,239
 125 588 125 588 137 602 c 0,240,241
 150 616 150 616 166 616 c 256,242,243
 183 616 183 616 196 602 c 256,244,245
 208 588 208 588 208 568 c 256,246,247
 208 548 208 548 196 535 c 0,248,249
 190 529 190 529 184 525 c 1,250,-1
 184 525 l 1,251,252
 190 521 190 521 196 515 c 0,253,254
 208 502 208 502 208 482 c 256,255,256
 208 462 208 462 196 448 c 0,257,258
 190 442 190 442 184 438 c 1,259,-1
 184 438 l 1,260,261
 190 434 190 434 196 428 c 0,262,263
 208 414 208 414 208 394 c 256,264,265
 208 374 208 374 196 361 c 0,266,267
 190 355 190 355 184 352 c 1,268,-1
 184 352 l 1,269,270
 190 348 190 348 196 342 c 0,271,272
 208 328 208 328 208 308 c 256,273,274
 208 288 208 288 196 274 c 0,275,276
 190 268 190 268 184 265 c 1,277,-1
 184 265 l 1,278,279
 190 262 190 262 196 255 c 0,280,281
 208 241 208 241 208 221 c 256,282,283
 208 202 208 202 196 188 c 0,284,285
 190 182 190 182 184 178 c 1,286,-1
 184 178 l 1,287,288
 190 175 190 175 196 168 c 0,289,290
 208 154 208 154 208 134 c 256,291,292
 208 114 208 114 196 100 c 0,293,294
 190 94 190 94 184 91 c 1,295,-1
 184 91 l 1,296,297
 186 90 186 90 188 89 c 1,298,-1
 188 89 l 1,299,300
 197 95 197 95 208 95 c 0,301,302
 225 95 225 95 238 81 c 0,303,304
 250 67 250 67 250 47 c 256,305,306
 250 27 250 27 238 14 c 0,307,308
 225 0 225 0 208 0 c 0,309,310
 198 0 198 0 188 6 c 1,311,312
 178 0 178 0 166 0 c 128,-1,313
 154 0 154 0 146 6 c 1,314,-1
 146 6 l 1,315,316
 136 0 136 0 125 0 c 1,317,-1
 125 0 l 1,165,166
EndSplineSet
EndChar

StartChar: two
Encoding: 50 50 18
Width: 499
VWidth: 750
Flags: W
LayerCount: 2
Fore
SplineSet
20 -167 m 1,0,1
 20 -167 l 1,2,-1
 20 -167 l 1,3,4
 20 -167 l 1,5,-1
 20 -167 l 1,0,1
104 -167 m 1,6,7
 104 -167 l 1,8,-1
 104 -167 l 1,9,10
 104 -167 l 1,11,-1
 104 -167 l 1,6,7
188 -167 m 1,12,13
 188 -167 l 1,14,-1
 188 -167 l 1,15,16
 188 -167 l 1,17,-1
 188 -167 l 1,12,13
271 -167 m 1,18,19
 271 -167 l 1,20,-1
 271 -167 l 1,21,22
 271 -167 l 1,23,-1
 271 -167 l 1,18,19
354 -167 m 1,24,25
 354 -167 l 1,26,-1
 354 -167 l 1,27,28
 354 -167 l 1,29,-1
 354 -167 l 1,24,25
437 -167 m 1,30,31
 437 -167 l 1,32,-1
 437 -167 l 1,33,34
 437 -167 l 1,35,-1
 437 -167 l 1,30,31
0 -173 m 1,36,37
 -17 -173 -17 -173 -29 -160 c 0,38,39
 -41 -146 -41 -146 -41 -125 c 256,40,41
 -41 -105 -41 -105 -29 -92 c 256,42,43
 -17 -78 -17 -78 0 -78 c 0,44,45
 11 -78 11 -78 20 -84 c 1,46,-1
 20 -84 l 1,47,48
 30 -78 30 -78 41 -78 c 0,49,50
 53 -78 53 -78 62 -84 c 1,51,-1
 62 -84 l 1,52,53
 72 -78 72 -78 83 -78 c 0,54,55
 95 -78 95 -78 104 -84 c 1,56,-1
 104 -84 l 1,57,58
 113 -78 113 -78 125 -78 c 0,59,60
 136 -78 136 -78 146 -84 c 1,61,-1
 146 -84 l 1,62,63
 154 -78 154 -78 166 -78 c 128,-1,64
 178 -78 178 -78 188 -84 c 1,65,-1
 188 -84 l 1,66,67
 197 -78 197 -78 208 -78 c 0,68,69
 220 -78 220 -78 229 -84 c 1,70,-1
 229 -84 l 1,71,72
 239 -78 239 -78 250 -78 c 0,73,74
 262 -78 262 -78 271 -84 c 1,75,-1
 271 -84 l 1,76,77
 280 -78 280 -78 292 -78 c 0,78,79
 303 -78 303 -78 313 -84 c 1,80,-1
 313 -84 l 1,81,82
 322 -78 322 -78 333 -78 c 128,-1,83
 344 -78 344 -78 354 -84 c 1,84,-1
 354 -84 l 1,85,86
 363 -78 363 -78 375 -78 c 0,87,88
 386 -78 386 -78 395 -84 c 1,89,-1
 395 -84 l 1,90,91
 405 -78 405 -78 416 -78 c 0,92,93
 428 -78 428 -78 437 -84 c 1,94,-1
 437 -84 l 1,95,96
 447 -78 447 -78 458 -78 c 0,97,98
 476 -78 476 -78 488 -92 c 128,-1,99
 500 -106 500 -106 500 -125 c 256,100,101
 500 -145 500 -145 488 -160 c 0,102,103
 475.866666667 -173.066666667 475.866666667 -173.066666667 460.248888889 -173.066666667 c 0,104,105
 459.133333333 -173.066666667 459.133333333 -173.066666667 458 -173 c 0,106,107
 447 -173 447 -173 437 -167 c 1,108,109
 428 -173 428 -173 416 -173 c 0,110,111
 405 -173 405 -173 395 -167 c 1,112,113
 386 -173 386 -173 375 -173 c 0,114,115
 363 -173 363 -173 354 -167 c 1,116,117
 344 -173 344 -173 333 -173 c 0,118,119
 321 -173 321 -173 313 -167 c 1,120,-1
 313 -167 l 1,121,122
 303 -173 303 -173 292 -173 c 0,123,124
 280 -173 280 -173 271 -167 c 1,125,-1
 271 -167 l 1,126,127
 262 -173 262 -173 250 -173 c 0,128,129
 239 -173 239 -173 229 -167 c 1,130,131
 220 -173 220 -173 208 -173 c 0,132,133
 198 -173 198 -173 188 -167 c 1,134,-1
 188 -167 l 1,135,136
 178 -173 178 -173 166 -173 c 128,-1,137
 154 -173 154 -173 146 -167 c 1,138,-1
 146 -167 l 1,139,140
 136 -173 136 -173 125 -173 c 0,141,142
 113 -173 113 -173 104 -167 c 1,143,-1
 104 -167 l 1,144,145
 95 -173 95 -173 83 -173 c 0,146,147
 72 -173 72 -173 62 -167 c 1,148,-1
 62 -167 l 1,149,150
 53 -173 53 -173 41 -173 c 0,151,152
 30 -173 30 -173 20 -167 c 1,153,-1
 20 -167 l 1,154,155
 11 -173 11 -173 0 -173 c 1,156,-1
 0 -173 l 1,36,37
62 6 m 1,157,-1
 62 6 l 1,158,-1
 62 6 l 1,159,-1
 62 6 l 1,160,-1
 62 6 l 1,157,-1
146 6 m 1,161,-1
 146 6 l 1,162,-1
 146 6 l 1,163,-1
 146 6 l 1,164,-1
 146 6 l 1,161,-1
229 6 m 1,165,-1
 229 6 l 1,166,-1
 229 6 l 1,167,-1
 229 6 l 1,168,-1
 229 6 l 1,165,-1
313 6 m 1,169,-1
 313 6 l 1,170,-1
 313 6 l 1,171,-1
 313 6 l 1,172,-1
 313 6 l 1,169,-1
41 0 m 1,173,174
 24 0 24 0 12 14 c 256,175,176
 0 28 0 28 0 47 c 256,177,178
 0 67 0 67 12 81 c 256,179,180
 24 95 24 95 41 95 c 0,181,182
 53 95 53 95 62 89 c 1,183,-1
 62 89 l 1,184,185
 72 95 72 95 83 95 c 0,186,187
 95 95 95 95 104 89 c 1,188,-1
 104 89 l 1,189,190
 106 90 106 90 107 91 c 1,191,-1
 107 91 l 1,192,193
 100 94 100 94 95 100 c 0,194,195
 83 114 83 114 83 134 c 256,196,197
 83 154 83 154 95 168 c 0,198,199
 108 182 108 182 125 182 c 256,200,201
 142 182 142 182 154 168 c 128,-1,202
 166 154 166 154 166 134 c 256,203,204
 166 114 166 114 154 100 c 0,205,206
 148 94 148 94 142 91 c 1,207,-1
 142 91 l 1,208,209
 144 90 144 90 146 89 c 1,210,-1
 146 89 l 1,211,212
 154 95 154 95 166 95 c 128,-1,213
 178 95 178 95 188 89 c 1,214,-1
 188 89 l 1,215,216
 197 95 197 95 208 95 c 0,217,218
 220 95 220 95 229 89 c 1,219,-1
 229 89 l 1,220,221
 239 95 239 95 250 95 c 0,222,223
 262 95 262 95 271 89 c 1,224,-1
 271 89 l 1,225,226
 280 95 280 95 292 95 c 0,227,228
 303 95 303 95 313 89 c 1,229,-1
 313 89 l 1,230,231
 322 95 322 95 333 95 c 128,-1,232
 344 95 344 95 354 89 c 1,233,-1
 354 89 l 1,234,235
 363 95 363 95 375 95 c 0,236,237
 392 95 392 95 404 81 c 256,238,239
 416 67 416 67 416 47 c 256,240,241
 416 27 416 27 404 14 c 256,242,243
 392 0 392 0 375 0 c 0,244,245
 363 0 363 0 354 6 c 1,246,247
 344 0 344 0 333 0 c 0,248,249
 321 0 321 0 313 6 c 1,250,-1
 313 6 l 1,251,252
 303 0 303 0 292 0 c 0,253,254
 280 0 280 0 271 6 c 1,255,256
 262 0 262 0 250 0 c 0,257,258
 239 0 239 0 229 6 c 1,259,260
 220 0 220 0 208 0 c 0,261,262
 198 0 198 0 188 6 c 1,263,264
 178 0 178 0 166 0 c 128,-1,265
 154 0 154 0 146 6 c 1,266,267
 136 0 136 0 125 0 c 0,268,269
 113 0 113 0 104 6 c 1,270,271
 95 0 95 0 83 0 c 0,272,273
 72 0 72 0 62 6 c 1,274,275
 53 0 53 0 41 0 c 1,276,-1
 41 0 l 1,173,174
208 173 m 1,277,278
 190 174 190 174 178 188 c 256,279,280
 166 202 166 202 166 221 c 256,281,282
 166 241 166 241 178 255 c 256,283,284
 190 268 190 268 208 268 c 256,285,286
 225 268 225 268 238 255 c 0,287,288
 250 241 250 241 250 221 c 256,289,290
 250 202 250 202 238 188 c 0,291,292
 225 174 225 174 208 173 c 1,293,-1
 208 173 l 1,277,278
292 260 m 1,294,295
 275 260 275 260 262 274 c 0,296,297
 250 288 250 288 250 308 c 256,298,299
 250 328 250 328 262 342 c 0,300,301
 275 356 275 356 292 356 c 256,302,303
 309 356 309 356 321 342 c 0,304,305
 333.071428571 329 333.071428571 329 333.071428571 310.826530612 c 0,306,307
 333.071428571 288.083333333 333.071428571 288.083333333 321 274 c 128,-1,308
 309 260 309 260 292 260 c 1,309,-1
 292 260 l 1,294,295
333 347 m 1,310,311
 316 347 316 347 304 361 c 0,312,313
 292 374 292 374 292 394 c 256,314,315
 292 414 292 414 304 428 c 0,316,317
 317 442 317 442 333 442 c 256,318,319
 350 442 350 442 362 428 c 0,320,321
 375 414 375 414 375 394 c 256,322,323
 375 374 375 374 362 361 c 0,324,325
 350 347 350 347 333 347 c 1,326,-1
 333 347 l 1,310,311
188 527 m 1,327,-1
 188 527 l 1,328,-1
 188 527 l 1,329,-1
 188 527 l 1,330,-1
 188 527 l 1,327,-1
271 527 m 1,331,-1
 271 527 l 1,332,-1
 271 527 l 1,333,-1
 271 527 l 1,334,-1
 271 527 l 1,331,-1
41 434 m 1,335,336
 24 434 24 434 12 448 c 256,337,338
 0 462 0 462 0 482 c 256,339,340
 0 502 0 502 12 515 c 256,341,342
 24 530 24 530 41 530 c 256,343,344
 58 530 58 530 71 515 c 0,345,346
 83 502 83 502 83 482 c 256,347,348
 83 462 83 462 71 448 c 0,349,350
 58 434 58 434 41 434 c 1,351,-1
 41 434 l 1,335,336
375 434 m 1,352,353
 358 434 358 434 345 448 c 256,354,355
 333 462 333 462 333 482 c 256,356,357
 333 502 333 502 345 515 c 256,358,359
 357 530 357 530 375 530 c 0,360,361
 392 530 392 530 404 515 c 256,362,363
 416 502 416 502 416 482 c 256,364,365
 416 462 416 462 404 448 c 256,366,367
 392 434 392 434 375 434 c 1,368,-1
 375 434 l 1,352,353
125 520 m 1,369,370
 108 520 108 520 95 535 c 0,371,372
 83 548 83 548 83 568 c 256,373,374
 83 588 83 588 95 602 c 0,375,376
 108 616 108 616 125 616 c 0,377,378
 136 616 136 616 146 610 c 1,379,-1
 146 610 l 1,380,381
 154 616 154 616 166 616 c 128,-1,382
 178 616 178 616 188 610 c 1,383,-1
 188 610 l 1,384,385
 197 616 197 616 208 616 c 0,386,387
 220 616 220 616 229 610 c 1,388,-1
 229 610 l 1,389,390
 239 616 239 616 250 616 c 0,391,392
 262 616 262 616 271 610 c 1,393,-1
 271 610 l 1,394,395
 280 616 280 616 292 616 c 0,396,397
 309 616 309 616 321 602 c 0,398,399
 333.071428571 589 333.071428571 589 333.071428571 570.826530612 c 0,400,401
 333.071428571 548.077380952 333.071428571 548.077380952 321 535 c 0,402,403
 309 520 309 520 292 520 c 0,404,405
 280 520 280 520 271 527 c 1,406,-1
 271 527 l 1,407,408
 262 520 262 520 250 520 c 0,409,410
 239 520 239 520 229 527 c 1,411,412
 220 520 220 520 208 520 c 0,413,414
 198 520 198 520 188 527 c 1,415,-1
 188 527 l 1,416,417
 178 520 178 520 166 520 c 128,-1,418
 154 520 154 520 146 527 c 1,419,-1
 146 527 l 1,420,421
 136 520 136 520 125 520 c 1,422,-1
 125 520 l 1,369,370
EndSplineSet
EndChar

StartChar: three
Encoding: 51 51 19
Width: 499
VWidth: 750
Flags: W
LayerCount: 2
Fore
SplineSet
20 -167 m 1,0,1
 20 -167 l 1,2,-1
 20 -167 l 1,3,4
 20 -167 l 1,5,-1
 20 -167 l 1,0,1
104 -167 m 1,6,7
 104 -167 l 1,8,-1
 104 -167 l 1,9,10
 104 -167 l 1,11,-1
 104 -167 l 1,6,7
188 -167 m 1,12,13
 188 -167 l 1,14,-1
 188 -167 l 1,15,16
 188 -167 l 1,17,-1
 188 -167 l 1,12,13
271 -167 m 1,18,19
 271 -167 l 1,20,-1
 271 -167 l 1,21,22
 271 -167 l 1,23,-1
 271 -167 l 1,18,19
354 -167 m 1,24,25
 354 -167 l 1,26,-1
 354 -167 l 1,27,28
 354 -167 l 1,29,-1
 354 -167 l 1,24,25
437 -167 m 1,30,31
 437 -167 l 1,32,-1
 437 -167 l 1,33,34
 437 -167 l 1,35,-1
 437 -167 l 1,30,31
0 -173 m 1,36,37
 -17 -173 -17 -173 -29 -160 c 0,38,39
 -41 -146 -41 -146 -41 -125 c 256,40,41
 -41 -105 -41 -105 -29 -92 c 256,42,43
 -17 -78 -17 -78 0 -78 c 0,44,45
 11 -78 11 -78 20 -84 c 1,46,-1
 20 -84 l 1,47,48
 30 -78 30 -78 41 -78 c 0,49,50
 53 -78 53 -78 62 -84 c 1,51,-1
 62 -84 l 1,52,53
 72 -78 72 -78 83 -78 c 0,54,55
 95 -78 95 -78 104 -84 c 1,56,-1
 104 -84 l 1,57,58
 113 -78 113 -78 125 -78 c 0,59,60
 136 -78 136 -78 146 -84 c 1,61,-1
 146 -84 l 1,62,63
 154 -78 154 -78 166 -78 c 128,-1,64
 178 -78 178 -78 188 -84 c 1,65,-1
 188 -84 l 1,66,67
 197 -78 197 -78 208 -78 c 0,68,69
 220 -78 220 -78 229 -84 c 1,70,-1
 229 -84 l 1,71,72
 239 -78 239 -78 250 -78 c 0,73,74
 262 -78 262 -78 271 -84 c 1,75,-1
 271 -84 l 1,76,77
 280 -78 280 -78 292 -78 c 0,78,79
 303 -78 303 -78 313 -84 c 1,80,-1
 313 -84 l 1,81,82
 322 -78 322 -78 333 -78 c 128,-1,83
 344 -78 344 -78 354 -84 c 1,84,-1
 354 -84 l 1,85,86
 363 -78 363 -78 375 -78 c 0,87,88
 386 -78 386 -78 395 -84 c 1,89,-1
 395 -84 l 1,90,91
 405 -78 405 -78 416 -78 c 0,92,93
 428 -78 428 -78 437 -84 c 1,94,-1
 437 -84 l 1,95,96
 447 -78 447 -78 458 -78 c 0,97,98
 476 -78 476 -78 488 -92 c 128,-1,99
 500 -106 500 -106 500 -125 c 256,100,101
 500 -145 500 -145 488 -160 c 0,102,103
 475.866666667 -173.066666667 475.866666667 -173.066666667 460.248888889 -173.066666667 c 0,104,105
 459.133333333 -173.066666667 459.133333333 -173.066666667 458 -173 c 0,106,107
 447 -173 447 -173 437 -167 c 1,108,109
 428 -173 428 -173 416 -173 c 0,110,111
 405 -173 405 -173 395 -167 c 1,112,113
 386 -173 386 -173 375 -173 c 0,114,115
 363 -173 363 -173 354 -167 c 1,116,117
 344 -173 344 -173 333 -173 c 0,118,119
 321 -173 321 -173 313 -167 c 1,120,-1
 313 -167 l 1,121,122
 303 -173 303 -173 292 -173 c 0,123,124
 280 -173 280 -173 271 -167 c 1,125,-1
 271 -167 l 1,126,127
 262 -173 262 -173 250 -173 c 0,128,129
 239 -173 239 -173 229 -167 c 1,130,131
 220 -173 220 -173 208 -173 c 0,132,133
 198 -173 198 -173 188 -167 c 1,134,-1
 188 -167 l 1,135,136
 178 -173 178 -173 166 -173 c 128,-1,137
 154 -173 154 -173 146 -167 c 1,138,-1
 146 -167 l 1,139,140
 136 -173 136 -173 125 -173 c 0,141,142
 113 -173 113 -173 104 -167 c 1,143,-1
 104 -167 l 1,144,145
 95 -173 95 -173 83 -173 c 0,146,147
 72 -173 72 -173 62 -167 c 1,148,-1
 62 -167 l 1,149,150
 53 -173 53 -173 41 -173 c 0,151,152
 30 -173 30 -173 20 -167 c 1,153,-1
 20 -167 l 1,154,155
 11 -173 11 -173 0 -173 c 1,156,-1
 0 -173 l 1,36,37
146 6 m 1,157,-1
 146 6 l 1,158,-1
 146 6 l 1,159,-1
 146 6 l 1,160,-1
 146 6 l 1,157,-1
229 6 m 1,161,-1
 229 6 l 1,162,-1
 229 6 l 1,163,-1
 229 6 l 1,164,-1
 229 6 l 1,161,-1
125 0 m 1,165,166
 108 0 108 0 95 14 c 0,167,168
 83 28 83 28 83 47 c 256,169,170
 83 67 83 67 95 81 c 0,171,172
 108 95 108 95 125 95 c 0,173,174
 136 95 136 95 146 89 c 1,175,-1
 146 89 l 1,176,177
 154 95 154 95 166 95 c 128,-1,178
 178 95 178 95 188 89 c 1,179,-1
 188 89 l 1,180,181
 197 95 197 95 208 95 c 0,182,183
 220 95 220 95 229 89 c 1,184,-1
 229 89 l 1,185,186
 239 95 239 95 250 95 c 0,187,188
 262 95 262 95 271 89 c 1,189,-1
 271 89 l 1,190,191
 280 95 280 95 292 95 c 0,192,193
 309 95 309 95 321 81 c 0,194,195
 333.071428571 68 333.071428571 68 333.071428571 49.8265306122 c 0,196,197
 333.071428571 27.0773809524 333.071428571 27.0773809524 321 14 c 0,198,199
 309 0 309 0 292 0 c 0,200,201
 280 0 280 0 271 6 c 1,202,-1
 271 6 l 1,203,204
 262 0 262 0 250 0 c 0,205,206
 239 0 239 0 229 6 c 1,207,208
 220 0 220 0 208 0 c 0,209,210
 198 0 198 0 188 6 c 1,211,212
 178 0 178 0 166 0 c 128,-1,213
 154 0 154 0 146 6 c 1,214,-1
 146 6 l 1,215,216
 136 0 136 0 125 0 c 1,217,-1
 125 0 l 1,165,166
41 87 m 1,218,219
 39.8666666667 86.9333333333 39.8666666667 86.9333333333 38.7555555556 86.9333333333 c 0,220,221
 23.2 86.9333333333 23.2 86.9333333333 12 100 c 256,222,223
 0 114 0 114 0 134 c 256,224,225
 0 154 0 154 12 168 c 256,226,227
 24 182 24 182 41 182 c 256,228,229
 58 182 58 182 71 168 c 0,230,231
 83 154 83 154 83 134 c 256,232,233
 83 114 83 114 71 100 c 0,234,235
 58.8666666667 86.9333333333 58.8666666667 86.9333333333 43.2488888889 86.9333333333 c 0,236,237
 42.1333333333 86.9333333333 42.1333333333 86.9333333333 41 87 c 1,238,-1
 41 87 l 1,218,219
229 266 m 1,239,-1
 229 266 l 1,240,-1
 229 266 l 1,241,-1
 229 266 l 1,242,-1
 229 266 l 1,239,-1
375 87 m 1,243,244
 373.866666667 86.9333333333 373.866666667 86.9333333333 372.751111111 86.9333333333 c 0,245,246
 357.133333333 86.9333333333 357.133333333 86.9333333333 345 100 c 256,247,248
 333 114 333 114 333 134 c 256,249,250
 333 154 333 154 345 168 c 0,251,252
 350 174 350 174 357 178 c 1,253,-1
 357 178 l 1,254,255
 351 182 351 182 345 188 c 0,256,257
 333 202 333 202 333 221 c 256,258,259
 333 241 333 241 345 255 c 256,260,261
 357 268 357 268 375 268 c 0,262,263
 392 268 392 268 404 255 c 256,264,265
 416 241 416 241 416 221 c 256,266,267
 416 202 416 202 404 188 c 0,268,269
 399 182 399 182 392 178 c 1,270,-1
 392 178 l 1,271,272
 398 175 398 175 404 168 c 0,273,274
 416 154 416 154 416 134 c 256,275,276
 416 114 416 114 404 100 c 256,277,278
 392.8 86.9333333333 392.8 86.9333333333 377.244444444 86.9333333333 c 0,279,280
 376.133333333 86.9333333333 376.133333333 86.9333333333 375 87 c 1,281,-1
 375 87 l 1,243,244
208 260 m 1,282,283
 190 260 190 260 178 274 c 256,284,285
 166 288 166 288 166 308 c 256,286,287
 166 328 166 328 178 342 c 256,288,289
 190 356 190 356 208 356 c 0,290,291
 220 356 220 356 229 350 c 1,292,-1
 229 350 l 1,293,294
 239 356 239 356 250 356 c 0,295,296
 262 356 262 356 271 350 c 1,297,-1
 271 350 l 1,298,299
 280 356 280 356 292 356 c 0,300,301
 309 356 309 356 321 342 c 0,302,303
 333.071428571 329 333.071428571 329 333.071428571 310.826530612 c 0,304,305
 333.071428571 288.083333333 333.071428571 288.083333333 321 274 c 128,-1,306
 309 260 309 260 292 260 c 0,307,308
 280 260 280 260 271 266 c 1,309,310
 262 260 262 260 250 260 c 0,311,312
 239 260 239 260 229 266 c 1,313,-1
 229 266 l 1,314,315
 220 260 220 260 208 260 c 1,316,-1
 208 260 l 1,282,283
146 527 m 1,317,-1
 146 527 l 1,318,-1
 146 527 l 1,319,-1
 146 527 l 1,320,-1
 146 527 l 1,317,-1
229 527 m 1,321,-1
 229 527 l 1,322,-1
 229 527 l 1,323,-1
 229 527 l 1,324,-1
 229 527 l 1,321,-1
41 434 m 1,325,326
 24 434 24 434 12 448 c 256,327,328
 0 462 0 462 0 482 c 256,329,330
 0 502 0 502 12 515 c 256,331,332
 24 530 24 530 41 530 c 256,333,334
 58 530 58 530 71 515 c 0,335,336
 83 502 83 502 83 482 c 256,337,338
 83 462 83 462 71 448 c 0,339,340
 58 434 58 434 41 434 c 1,341,-1
 41 434 l 1,325,326
375 347 m 1,342,343
 358 347 358 347 345 361 c 256,344,345
 333 374 333 374 333 394 c 256,346,347
 333 414 333 414 345 428 c 0,348,349
 350 434 350 434 357 438 c 1,350,-1
 357 438 l 1,351,352
 351 441 351 441 345 448 c 0,353,354
 333 462 333 462 333 482 c 256,355,356
 333 502 333 502 345 515 c 256,357,358
 357 530 357 530 375 530 c 0,359,360
 392 530 392 530 404 515 c 256,361,362
 416 502 416 502 416 482 c 256,363,364
 416 462 416 462 404 448 c 0,365,366
 399 442 399 442 392 438 c 1,367,-1
 392 438 l 1,368,369
 398 434 398 434 404 428 c 0,370,371
 416 414 416 414 416 394 c 256,372,373
 416 374 416 374 404 361 c 256,374,375
 392 347 392 347 375 347 c 1,376,-1
 375 347 l 1,342,343
125 520 m 1,377,378
 108 520 108 520 95 535 c 0,379,380
 83 548 83 548 83 568 c 256,381,382
 83 588 83 588 95 602 c 0,383,384
 108 616 108 616 125 616 c 0,385,386
 136 616 136 616 146 610 c 1,387,-1
 146 610 l 1,388,389
 154 616 154 616 166 616 c 128,-1,390
 178 616 178 616 188 610 c 1,391,-1
 188 610 l 1,392,393
 197 616 197 616 208 616 c 0,394,395
 220 616 220 616 229 610 c 1,396,-1
 229 610 l 1,397,398
 239 616 239 616 250 616 c 0,399,400
 262 616 262 616 271 610 c 1,401,-1
 271 610 l 1,402,403
 280 616 280 616 292 616 c 0,404,405
 309 616 309 616 321 602 c 0,406,407
 333.071428571 589 333.071428571 589 333.071428571 570.826530612 c 0,408,409
 333.071428571 548.077380952 333.071428571 548.077380952 321 535 c 0,410,411
 309 520 309 520 292 520 c 0,412,413
 280 520 280 520 271 527 c 1,414,415
 262 520 262 520 250 520 c 0,416,417
 239 520 239 520 229 527 c 1,418,-1
 229 527 l 1,419,420
 220 520 220 520 208 520 c 0,421,422
 198 520 198 520 188 527 c 1,423,424
 178 520 178 520 166 520 c 128,-1,425
 154 520 154 520 146 527 c 1,426,427
 136 520 136 520 125 520 c 1,428,-1
 125 520 l 1,377,378
EndSplineSet
EndChar

StartChar: four
Encoding: 52 52 20
Width: 499
VWidth: 750
Flags: W
LayerCount: 2
Fore
SplineSet
20 -167 m 1,0,1
 20 -167 l 1,2,-1
 20 -167 l 1,3,4
 20 -167 l 1,5,-1
 20 -167 l 1,0,1
104 -167 m 1,6,7
 104 -167 l 1,8,-1
 104 -167 l 1,9,10
 104 -167 l 1,11,-1
 104 -167 l 1,6,7
188 -167 m 1,12,13
 188 -167 l 1,14,-1
 188 -167 l 1,15,16
 188 -167 l 1,17,-1
 188 -167 l 1,12,13
271 -167 m 1,18,19
 271 -167 l 1,20,-1
 271 -167 l 1,21,22
 271 -167 l 1,23,-1
 271 -167 l 1,18,19
354 -167 m 1,24,25
 354 -167 l 1,26,-1
 354 -167 l 1,27,28
 354 -167 l 1,29,-1
 354 -167 l 1,24,25
437 -167 m 1,30,31
 437 -167 l 1,32,-1
 437 -167 l 1,33,34
 437 -167 l 1,35,-1
 437 -167 l 1,30,31
0 -173 m 1,36,37
 -17 -173 -17 -173 -29 -160 c 0,38,39
 -41 -146 -41 -146 -41 -125 c 256,40,41
 -41 -105 -41 -105 -29 -92 c 256,42,43
 -17 -78 -17 -78 0 -78 c 0,44,45
 11 -78 11 -78 20 -84 c 1,46,-1
 20 -84 l 1,47,48
 30 -78 30 -78 41 -78 c 0,49,50
 53 -78 53 -78 62 -84 c 1,51,-1
 62 -84 l 1,52,53
 72 -78 72 -78 83 -78 c 0,54,55
 95 -78 95 -78 104 -84 c 1,56,-1
 104 -84 l 1,57,58
 113 -78 113 -78 125 -78 c 0,59,60
 136 -78 136 -78 146 -84 c 1,61,-1
 146 -84 l 1,62,63
 154 -78 154 -78 166 -78 c 128,-1,64
 178 -78 178 -78 188 -84 c 1,65,-1
 188 -84 l 1,66,67
 197 -78 197 -78 208 -78 c 0,68,69
 220 -78 220 -78 229 -84 c 1,70,-1
 229 -84 l 1,71,72
 239 -78 239 -78 250 -78 c 0,73,74
 262 -78 262 -78 271 -84 c 1,75,-1
 271 -84 l 1,76,77
 280 -78 280 -78 292 -78 c 0,78,79
 303 -78 303 -78 313 -84 c 1,80,-1
 313 -84 l 1,81,82
 322 -78 322 -78 333 -78 c 128,-1,83
 344 -78 344 -78 354 -84 c 1,84,-1
 354 -84 l 1,85,86
 363 -78 363 -78 375 -78 c 0,87,88
 386 -78 386 -78 395 -84 c 1,89,-1
 395 -84 l 1,90,91
 405 -78 405 -78 416 -78 c 0,92,93
 428 -78 428 -78 437 -84 c 1,94,-1
 437 -84 l 1,95,96
 447 -78 447 -78 458 -78 c 0,97,98
 476 -78 476 -78 488 -92 c 128,-1,99
 500 -106 500 -106 500 -125 c 256,100,101
 500 -145 500 -145 488 -160 c 0,102,103
 475.866666667 -173.066666667 475.866666667 -173.066666667 460.248888889 -173.066666667 c 0,104,105
 459.133333333 -173.066666667 459.133333333 -173.066666667 458 -173 c 0,106,107
 447 -173 447 -173 437 -167 c 1,108,109
 428 -173 428 -173 416 -173 c 0,110,111
 405 -173 405 -173 395 -167 c 1,112,113
 386 -173 386 -173 375 -173 c 0,114,115
 363 -173 363 -173 354 -167 c 1,116,117
 344 -173 344 -173 333 -173 c 0,118,119
 321 -173 321 -173 313 -167 c 1,120,-1
 313 -167 l 1,121,122
 303 -173 303 -173 292 -173 c 0,123,124
 280 -173 280 -173 271 -167 c 1,125,-1
 271 -167 l 1,126,127
 262 -173 262 -173 250 -173 c 0,128,129
 239 -173 239 -173 229 -167 c 1,130,131
 220 -173 220 -173 208 -173 c 0,132,133
 198 -173 198 -173 188 -167 c 1,134,-1
 188 -167 l 1,135,136
 178 -173 178 -173 166 -173 c 128,-1,137
 154 -173 154 -173 146 -167 c 1,138,-1
 146 -167 l 1,139,140
 136 -173 136 -173 125 -173 c 0,141,142
 113 -173 113 -173 104 -167 c 1,143,-1
 104 -167 l 1,144,145
 95 -173 95 -173 83 -173 c 0,146,147
 72 -173 72 -173 62 -167 c 1,148,-1
 62 -167 l 1,149,150
 53 -173 53 -173 41 -173 c 0,151,152
 30 -173 30 -173 20 -167 c 1,153,-1
 20 -167 l 1,154,155
 11 -173 11 -173 0 -173 c 1,156,-1
 0 -173 l 1,36,37
62 180 m 1,157,-1
 62 180 l 1,158,-1
 62 180 l 1,159,-1
 62 180 l 1,160,-1
 62 180 l 1,157,-1
146 180 m 1,161,-1
 146 180 l 1,162,-1
 146 180 l 1,163,-1
 146 180 l 1,164,-1
 146 180 l 1,161,-1
229 180 m 1,165,-1
 229 180 l 1,166,-1
 229 180 l 1,167,-1
 229 180 l 1,168,-1
 229 180 l 1,165,-1
313 180 m 1,169,-1
 313 180 l 1,170,-1
 313 180 l 1,171,-1
 313 180 l 1,172,-1
 313 180 l 1,169,-1
125 347 m 1,173,174
 108 347 108 347 95 361 c 0,175,176
 83 374 83 374 83 394 c 256,177,178
 83 414 83 414 95 428 c 0,179,180
 108 442 108 442 125 442 c 256,181,182
 142 442 142 442 154 428 c 128,-1,183
 166 414 166 414 166 394 c 256,184,185
 166 374 166 374 154 361 c 0,186,187
 142 347 142 347 125 347 c 1,188,-1
 125 347 l 1,173,174
166 434 m 1,189,190
 149 434 149 434 137 448 c 128,-1,191
 125 462 125 462 125 482 c 256,192,193
 125 502 125 502 137 515 c 0,194,195
 150 530 150 530 166 530 c 256,196,197
 183 530 183 530 196 515 c 256,198,199
 208 502 208 502 208 482 c 256,200,201
 208 462 208 462 196 448 c 256,202,203
 184 434 184 434 166 434 c 1,204,-1
 166 434 l 1,189,190
208 520 m 1,205,206
 190 520 190 520 178 535 c 256,207,208
 166 548 166 548 166 568 c 256,209,210
 166 588 166 588 178 602 c 256,211,212
 190 616 190 616 208 616 c 256,213,214
 225 616 225 616 238 602 c 0,215,216
 250 588 250 588 250 568 c 256,217,218
 250 548 250 548 238 535 c 0,219,220
 225 520 225 520 208 520 c 1,221,-1
 208 520 l 1,205,206
292 0 m 1,222,223
 275 0 275 0 262 14 c 0,224,225
 250 28 250 28 250 47 c 256,226,227
 250 67 250 67 262 81 c 0,228,229
 267 87 267 87 274 91 c 1,230,-1
 274 91 l 1,231,232
 267 94 267 94 262 100 c 0,233,234
 250 114 250 114 250 134 c 256,235,236
 250 154 250 154 262 168 c 0,237,238
 267 174 267 174 274 178 c 1,239,-1
 274 178 l 1,240,241
 272 179 272 179 271 180 c 1,242,-1
 271 180 l 1,243,244
 262 174 262 174 250 173 c 0,245,246
 239 173 239 173 229 180 c 1,247,-1
 229 180 l 1,248,249
 220 174 220 174 208 173 c 0,250,251
 198 173 198 173 188 180 c 1,252,253
 178 174 178 174 166 173 c 0,254,255
 154 173 154 173 146 180 c 1,256,257
 136 174 136 174 125 173 c 0,258,259
 113 173 113 173 104 180 c 1,260,-1
 104 180 l 1,261,262
 95 174 95 174 83 173 c 0,263,264
 72 173 72 173 62 180 c 1,265,-1
 62 180 l 1,266,267
 53 174 53 174 41 173 c 0,268,269
 24 174 24 174 12 188 c 256,270,271
 0 202 0 202 0 221 c 256,272,273
 0 241 0 241 12 255 c 256,274,275
 24 268 24 268 41 268 c 0,276,277
 53 268 53 268 62 262 c 1,278,-1
 62 262 l 1,279,280
 64 263 64 263 65 265 c 1,281,-1
 65 265 l 1,282,283
 58 268 58 268 54 274 c 0,284,285
 41 288 41 288 41 308 c 256,286,287
 41 328 41 328 54 342 c 0,288,289
 66 356 66 356 83 356 c 256,290,291
 100 356 100 356 112 342 c 128,-1,292
 124 328 124 328 125 308 c 256,293,294
 124 288 124 288 112 274 c 0,295,296
 106 268 106 268 100 265 c 1,297,-1
 100 265 l 1,298,299
 102 264 102 264 104 262 c 1,300,-1
 104 262 l 1,301,302
 113 268 113 268 125 268 c 0,303,304
 136 268 136 268 146 262 c 1,305,-1
 146 262 l 1,306,307
 154 268 154 268 166 268 c 128,-1,308
 178 268 178 268 188 262 c 1,309,-1
 188 262 l 1,310,311
 197 268 197 268 208 268 c 0,312,313
 220 268 220 268 229 262 c 1,314,-1
 229 262 l 1,315,316
 239 268 239 268 250 268 c 0,317,318
 262 268 262 268 271 262 c 1,319,-1
 271 262 l 1,320,321
 273 263 273 263 274 265 c 1,322,-1
 274 265 l 1,323,324
 267 268 267 268 262 274 c 0,325,326
 250 288 250 288 250 308 c 256,327,328
 250 328 250 328 262 342 c 0,329,330
 267 348 267 348 274 352 c 1,331,-1
 274 352 l 1,332,333
 267 355 267 355 262 361 c 0,334,335
 250 374 250 374 250 394 c 256,336,337
 250 414 250 414 262 428 c 0,338,339
 267 434 267 434 274 438 c 1,340,-1
 274 438 l 1,341,342
 267 441 267 441 262 448 c 0,343,344
 250 462 250 462 250 482 c 256,345,346
 250 502 250 502 262 515 c 0,347,348
 267 521 267 521 274 525 c 1,349,-1
 274 525 l 1,350,351
 267 528 267 528 262 535 c 0,352,353
 250 548 250 548 250 568 c 256,354,355
 250 588 250 588 262 602 c 0,356,357
 275 616 275 616 292 616 c 256,358,359
 309 616 309 616 321 602 c 0,360,361
 333.071428571 589 333.071428571 589 333.071428571 570.826530612 c 0,362,363
 333.071428571 548.077380952 333.071428571 548.077380952 321 535 c 0,364,365
 316 529 316 529 309 525 c 1,366,-1
 309 525 l 1,367,368
 316 521 316 521 321 515 c 0,369,370
 333.071428571 502.928571429 333.071428571 502.928571429 333.071428571 484.821428571 c 0,371,372
 333.071428571 462.083333333 333.071428571 462.083333333 321 448 c 0,373,374
 316 442 316 442 309 438 c 1,375,-1
 309 438 l 1,376,377
 316 434 316 434 321 428 c 0,378,379
 333.071428571 415 333.071428571 415 333.071428571 396.826530612 c 0,380,381
 333.071428571 374.077380952 333.071428571 374.077380952 321 361 c 0,382,383
 316 355 316 355 309 352 c 1,384,-1
 309 352 l 1,385,386
 316 348 316 348 321 342 c 0,387,388
 333.071428571 329 333.071428571 329 333.071428571 310.826530612 c 0,389,390
 333.071428571 288.083333333 333.071428571 288.083333333 321 274 c 0,391,392
 316 268 316 268 309 265 c 1,393,-1
 309 265 l 1,394,395
 311 264 311 264 313 262 c 1,396,-1
 313 262 l 1,397,398
 322 268 322 268 333 268 c 0,399,400
 350 268 350 268 362 255 c 0,401,402
 375 241 375 241 375 221 c 256,403,404
 375 202 375 202 362 188 c 0,405,406
 350 174 350 174 333 173 c 0,407,408
 321 173 321 173 313 180 c 1,409,-1
 313 180 l 1,410,411
 311 179 311 179 309 178 c 1,412,-1
 309 178 l 1,413,414
 316 175 316 175 321 168 c 0,415,416
 333.071428571 155 333.071428571 155 333.071428571 136.826530612 c 0,417,418
 333.071428571 114.083333333 333.071428571 114.083333333 321 100 c 0,419,420
 316 94 316 94 309 91 c 1,421,-1
 309 91 l 1,422,423
 316 88 316 88 321 81 c 0,424,425
 333.071428571 68 333.071428571 68 333.071428571 49.8265306122 c 0,426,427
 333.071428571 27.0773809524 333.071428571 27.0773809524 321 14 c 0,428,429
 309 0 309 0 292 0 c 1,430,-1
 292 0 l 1,222,223
EndSplineSet
EndChar

StartChar: five
Encoding: 53 53 21
Width: 499
VWidth: 750
Flags: W
LayerCount: 2
Fore
SplineSet
20 -167 m 1,0,1
 20 -167 l 1,2,-1
 20 -167 l 1,3,4
 20 -167 l 1,5,-1
 20 -167 l 1,0,1
104 -167 m 1,6,7
 104 -167 l 1,8,-1
 104 -167 l 1,9,10
 104 -167 l 1,11,-1
 104 -167 l 1,6,7
188 -167 m 1,12,13
 188 -167 l 1,14,-1
 188 -167 l 1,15,16
 188 -167 l 1,17,-1
 188 -167 l 1,12,13
271 -167 m 1,18,19
 271 -167 l 1,20,-1
 271 -167 l 1,21,22
 271 -167 l 1,23,-1
 271 -167 l 1,18,19
354 -167 m 1,24,25
 354 -167 l 1,26,-1
 354 -167 l 1,27,28
 354 -167 l 1,29,-1
 354 -167 l 1,24,25
437 -167 m 1,30,31
 437 -167 l 1,32,-1
 437 -167 l 1,33,34
 437 -167 l 1,35,-1
 437 -167 l 1,30,31
0 -173 m 1,36,37
 -17 -173 -17 -173 -29 -160 c 0,38,39
 -41 -146 -41 -146 -41 -125 c 256,40,41
 -41 -105 -41 -105 -29 -92 c 256,42,43
 -17 -78 -17 -78 0 -78 c 0,44,45
 11 -78 11 -78 20 -84 c 1,46,-1
 20 -84 l 1,47,48
 30 -78 30 -78 41 -78 c 0,49,50
 53 -78 53 -78 62 -84 c 1,51,-1
 62 -84 l 1,52,53
 72 -78 72 -78 83 -78 c 0,54,55
 95 -78 95 -78 104 -84 c 1,56,-1
 104 -84 l 1,57,58
 113 -78 113 -78 125 -78 c 0,59,60
 136 -78 136 -78 146 -84 c 1,61,-1
 146 -84 l 1,62,63
 154 -78 154 -78 166 -78 c 128,-1,64
 178 -78 178 -78 188 -84 c 1,65,-1
 188 -84 l 1,66,67
 197 -78 197 -78 208 -78 c 0,68,69
 220 -78 220 -78 229 -84 c 1,70,-1
 229 -84 l 1,71,72
 239 -78 239 -78 250 -78 c 0,73,74
 262 -78 262 -78 271 -84 c 1,75,-1
 271 -84 l 1,76,77
 280 -78 280 -78 292 -78 c 0,78,79
 303 -78 303 -78 313 -84 c 1,80,-1
 313 -84 l 1,81,82
 322 -78 322 -78 333 -78 c 128,-1,83
 344 -78 344 -78 354 -84 c 1,84,-1
 354 -84 l 1,85,86
 363 -78 363 -78 375 -78 c 0,87,88
 386 -78 386 -78 395 -84 c 1,89,-1
 395 -84 l 1,90,91
 405 -78 405 -78 416 -78 c 0,92,93
 428 -78 428 -78 437 -84 c 1,94,-1
 437 -84 l 1,95,96
 447 -78 447 -78 458 -78 c 0,97,98
 476 -78 476 -78 488 -92 c 128,-1,99
 500 -106 500 -106 500 -125 c 256,100,101
 500 -145 500 -145 488 -160 c 0,102,103
 475.866666667 -173.066666667 475.866666667 -173.066666667 460.248888889 -173.066666667 c 0,104,105
 459.133333333 -173.066666667 459.133333333 -173.066666667 458 -173 c 0,106,107
 447 -173 447 -173 437 -167 c 1,108,109
 428 -173 428 -173 416 -173 c 0,110,111
 405 -173 405 -173 395 -167 c 1,112,113
 386 -173 386 -173 375 -173 c 0,114,115
 363 -173 363 -173 354 -167 c 1,116,117
 344 -173 344 -173 333 -173 c 0,118,119
 321 -173 321 -173 313 -167 c 1,120,-1
 313 -167 l 1,121,122
 303 -173 303 -173 292 -173 c 0,123,124
 280 -173 280 -173 271 -167 c 1,125,-1
 271 -167 l 1,126,127
 262 -173 262 -173 250 -173 c 0,128,129
 239 -173 239 -173 229 -167 c 1,130,131
 220 -173 220 -173 208 -173 c 0,132,133
 198 -173 198 -173 188 -167 c 1,134,-1
 188 -167 l 1,135,136
 178 -173 178 -173 166 -173 c 128,-1,137
 154 -173 154 -173 146 -167 c 1,138,-1
 146 -167 l 1,139,140
 136 -173 136 -173 125 -173 c 0,141,142
 113 -173 113 -173 104 -167 c 1,143,-1
 104 -167 l 1,144,145
 95 -173 95 -173 83 -173 c 0,146,147
 72 -173 72 -173 62 -167 c 1,148,-1
 62 -167 l 1,149,150
 53 -173 53 -173 41 -173 c 0,151,152
 30 -173 30 -173 20 -167 c 1,153,-1
 20 -167 l 1,154,155
 11 -173 11 -173 0 -173 c 1,156,-1
 0 -173 l 1,36,37
146 6 m 1,157,-1
 146 6 l 1,158,-1
 146 6 l 1,159,-1
 146 6 l 1,160,-1
 146 6 l 1,157,-1
229 6 m 1,161,-1
 229 6 l 1,162,-1
 229 6 l 1,163,-1
 229 6 l 1,164,-1
 229 6 l 1,161,-1
125 0 m 1,165,166
 108 0 108 0 95 14 c 0,167,168
 83 28 83 28 83 47 c 256,169,170
 83 67 83 67 95 81 c 0,171,172
 108 95 108 95 125 95 c 0,173,174
 136 95 136 95 146 89 c 1,175,-1
 146 89 l 1,176,177
 154 95 154 95 166 95 c 128,-1,178
 178 95 178 95 188 89 c 1,179,-1
 188 89 l 1,180,181
 197 95 197 95 208 95 c 0,182,183
 220 95 220 95 229 89 c 1,184,-1
 229 89 l 1,185,186
 239 95 239 95 250 95 c 0,187,188
 262 95 262 95 271 89 c 1,189,-1
 271 89 l 1,190,191
 280 95 280 95 292 95 c 0,192,193
 309 95 309 95 321 81 c 0,194,195
 333.071428571 68 333.071428571 68 333.071428571 49.8265306122 c 0,196,197
 333.071428571 27.0773809524 333.071428571 27.0773809524 321 14 c 0,198,199
 309 0 309 0 292 0 c 0,200,201
 280 0 280 0 271 6 c 1,202,-1
 271 6 l 1,203,204
 262 0 262 0 250 0 c 0,205,206
 239 0 239 0 229 6 c 1,207,208
 220 0 220 0 208 0 c 0,209,210
 198 0 198 0 188 6 c 1,211,212
 178 0 178 0 166 0 c 128,-1,213
 154 0 154 0 146 6 c 1,214,-1
 146 6 l 1,215,216
 136 0 136 0 125 0 c 1,217,-1
 125 0 l 1,165,166
41 87 m 1,218,219
 39.8666666667 86.9333333333 39.8666666667 86.9333333333 38.7555555556 86.9333333333 c 0,220,221
 23.2 86.9333333333 23.2 86.9333333333 12 100 c 256,222,223
 0 114 0 114 0 134 c 256,224,225
 0 154 0 154 12 168 c 256,226,227
 24 182 24 182 41 182 c 256,228,229
 58 182 58 182 71 168 c 0,230,231
 83 154 83 154 83 134 c 256,232,233
 83 114 83 114 71 100 c 0,234,235
 58.8666666667 86.9333333333 58.8666666667 86.9333333333 43.2488888889 86.9333333333 c 0,236,237
 42.1333333333 86.9333333333 42.1333333333 86.9333333333 41 87 c 1,238,-1
 41 87 l 1,218,219
62 353 m 1,239,-1
 62 353 l 1,240,-1
 62 353 l 1,241,-1
 62 353 l 1,242,-1
 62 353 l 1,239,-1
104 353 m 1,243,-1
 104 353 l 1,244,-1
 104 353 l 1,245,-1
 104 353 l 1,246,-1
 104 353 l 1,243,-1
188 353 m 1,247,-1
 188 353 l 1,248,-1
 188 353 l 1,249,-1
 188 353 l 1,250,-1
 188 353 l 1,247,-1
271 353 m 1,251,-1
 271 353 l 1,252,-1
 271 353 l 1,253,-1
 271 353 l 1,254,-1
 271 353 l 1,251,-1
375 87 m 1,255,256
 373.866666667 86.9333333333 373.866666667 86.9333333333 372.751111111 86.9333333333 c 0,257,258
 357.133333333 86.9333333333 357.133333333 86.9333333333 345 100 c 256,259,260
 333 114 333 114 333 134 c 256,261,262
 333 154 333 154 345 168 c 0,263,264
 350 174 350 174 357 178 c 1,265,-1
 357 178 l 1,266,267
 351 182 351 182 345 188 c 0,268,269
 333 202 333 202 333 221 c 256,270,271
 333 241 333 241 345 255 c 0,272,273
 350 261 350 261 357 265 c 1,274,-1
 357 265 l 1,275,276
 351 268 351 268 345 274 c 0,277,278
 333 288 333 288 333 308 c 256,279,280
 333 328 333 328 345 342 c 256,281,282
 357 356 357 356 375 356 c 0,283,284
 392 356 392 356 404 342 c 256,285,286
 416 328 416 328 416 308 c 256,287,288
 416 288 416 288 404 274 c 0,289,290
 399 268 399 268 392 265 c 1,291,-1
 392 265 l 1,292,293
 398 262 398 262 404 255 c 0,294,295
 416 241 416 241 416 221 c 256,296,297
 416 202 416 202 404 188 c 0,298,299
 399 182 399 182 392 178 c 1,300,-1
 392 178 l 1,301,302
 398 175 398 175 404 168 c 0,303,304
 416 154 416 154 416 134 c 256,305,306
 416 114 416 114 404 100 c 256,307,308
 392.8 86.9333333333 392.8 86.9333333333 377.244444444 86.9333333333 c 0,309,310
 376.133333333 86.9333333333 376.133333333 86.9333333333 375 87 c 1,311,-1
 375 87 l 1,255,256
104 527 m 1,312,-1
 104 527 l 1,313,-1
 104 527 l 1,314,-1
 104 527 l 1,315,-1
 104 527 l 1,312,-1
188 527 m 1,316,-1
 188 527 l 1,317,-1
 188 527 l 1,318,-1
 188 527 l 1,319,-1
 188 527 l 1,316,-1
271 527 m 1,320,-1
 271 527 l 1,321,-1
 271 527 l 1,322,-1
 271 527 l 1,323,-1
 271 527 l 1,320,-1
354 527 m 1,324,-1
 354 527 l 1,325,-1
 354 527 l 1,326,-1
 354 527 l 1,327,-1
 354 527 l 1,324,-1
41 347 m 1,328,329
 24 347 24 347 12 361 c 256,330,331
 0 374 0 374 0 394 c 256,332,333
 0 414 0 414 12 428 c 0,334,335
 17 434 17 434 24 438 c 1,336,-1
 24 438 l 1,337,338
 18 441 18 441 12 448 c 0,339,340
 0 462 0 462 0 482 c 256,341,342
 0 502 0 502 12 515 c 0,343,344
 17 521 17 521 24 525 c 1,345,-1
 24 525 l 1,346,347
 18 528 18 528 12 535 c 0,348,349
 0 548 0 548 0 568 c 256,350,351
 0 588 0 588 12 602 c 256,352,353
 24 616 24 616 41 616 c 0,354,355
 53 616 53 616 62 610 c 1,356,-1
 62 610 l 1,357,358
 72 616 72 616 83 616 c 0,359,360
 95 616 95 616 104 610 c 1,361,-1
 104 610 l 1,362,363
 113 616 113 616 125 616 c 0,364,365
 136 616 136 616 146 610 c 1,366,-1
 146 610 l 1,367,368
 154 616 154 616 166 616 c 128,-1,369
 178 616 178 616 188 610 c 1,370,-1
 188 610 l 1,371,372
 197 616 197 616 208 616 c 0,373,374
 220 616 220 616 229 610 c 1,375,-1
 229 610 l 1,376,377
 239 616 239 616 250 616 c 0,378,379
 262 616 262 616 271 610 c 1,380,-1
 271 610 l 1,381,382
 280 616 280 616 292 616 c 0,383,384
 303 616 303 616 313 610 c 1,385,-1
 313 610 l 1,386,387
 322 616 322 616 333 616 c 128,-1,388
 344 616 344 616 354 610 c 1,389,-1
 354 610 l 1,390,391
 363 616 363 616 375 616 c 0,392,393
 392 616 392 616 404 602 c 256,394,395
 416 588 416 588 416 568 c 256,396,397
 416 548 416 548 404 535 c 256,398,399
 392 520 392 520 375 520 c 0,400,401
 363 520 363 520 354 527 c 1,402,403
 344 520 344 520 333 520 c 0,404,405
 321 520 321 520 313 527 c 1,406,407
 303 520 303 520 292 520 c 0,408,409
 280 520 280 520 271 527 c 1,410,-1
 271 527 l 1,411,412
 262 520 262 520 250 520 c 0,413,414
 239 520 239 520 229 527 c 1,415,416
 220 520 220 520 208 520 c 0,417,418
 198 520 198 520 188 527 c 1,419,-1
 188 527 l 1,420,421
 178 520 178 520 166 520 c 128,-1,422
 154 520 154 520 146 527 c 1,423,-1
 146 527 l 1,424,425
 136 520 136 520 125 520 c 0,426,427
 113 520 113 520 104 527 c 1,428,-1
 104 527 l 1,429,430
 95 520 95 520 83 520 c 0,431,432
 72 520 72 520 62 527 c 1,433,-1
 62 527 l 1,434,435
 60 526 60 526 59 525 c 1,436,-1
 59 525 l 1,437,438
 65 521 65 521 71 515 c 0,439,440
 83 502 83 502 83 482 c 256,441,442
 83 462 83 462 71 448 c 0,443,444
 66 442 66 442 59 438 c 1,445,-1
 59 438 l 1,446,447
 61 436 61 436 62 436 c 1,448,-1
 62 436 l 1,449,450
 72 442 72 442 83 442 c 0,451,452
 95 442 95 442 104 436 c 1,453,-1
 104 436 l 1,454,455
 113 442 113 442 125 442 c 0,456,457
 136 442 136 442 146 436 c 1,458,-1
 146 436 l 1,459,460
 154 442 154 442 166 442 c 128,-1,461
 178 442 178 442 188 436 c 1,462,-1
 188 436 l 1,463,464
 197 442 197 442 208 442 c 0,465,466
 220 442 220 442 229 436 c 1,467,-1
 229 436 l 1,468,469
 239 442 239 442 250 442 c 0,470,471
 262 442 262 442 271 436 c 1,472,-1
 271 436 l 1,473,474
 280 442 280 442 292 442 c 0,475,476
 309 442 309 442 321 428 c 0,477,478
 333.071428571 415 333.071428571 415 333.071428571 396.826530612 c 0,479,480
 333.071428571 374.077380952 333.071428571 374.077380952 321 361 c 0,481,482
 309 347 309 347 292 347 c 0,483,484
 280 347 280 347 271 353 c 1,485,-1
 271 353 l 1,486,487
 262 347 262 347 250 347 c 0,488,489
 239 347 239 347 229 353 c 1,490,491
 220 347 220 347 208 347 c 0,492,493
 198 347 198 347 188 353 c 1,494,-1
 188 353 l 1,495,496
 178 347 178 347 166 347 c 128,-1,497
 154 347 154 347 146 353 c 1,498,-1
 146 353 l 1,499,500
 136 347 136 347 125 347 c 0,501,502
 113 347 113 347 104 353 c 1,503,504
 95 347 95 347 83 347 c 0,505,506
 72 347 72 347 62 353 c 1,507,-1
 62 353 l 1,508,509
 53 347 53 347 41 347 c 1,510,-1
 41 347 l 1,328,329
EndSplineSet
EndChar

StartChar: six
Encoding: 54 54 22
Width: 499
VWidth: 750
Flags: W
LayerCount: 2
Fore
SplineSet
20 -167 m 1,0,1
 20 -167 l 1,2,-1
 20 -167 l 1,3,4
 20 -167 l 1,5,-1
 20 -167 l 1,0,1
104 -167 m 1,6,7
 104 -167 l 1,8,-1
 104 -167 l 1,9,10
 104 -167 l 1,11,-1
 104 -167 l 1,6,7
188 -167 m 1,12,13
 188 -167 l 1,14,-1
 188 -167 l 1,15,16
 188 -167 l 1,17,-1
 188 -167 l 1,12,13
271 -167 m 1,18,19
 271 -167 l 1,20,-1
 271 -167 l 1,21,22
 271 -167 l 1,23,-1
 271 -167 l 1,18,19
354 -167 m 1,24,25
 354 -167 l 1,26,-1
 354 -167 l 1,27,28
 354 -167 l 1,29,-1
 354 -167 l 1,24,25
437 -167 m 1,30,31
 437 -167 l 1,32,-1
 437 -167 l 1,33,34
 437 -167 l 1,35,-1
 437 -167 l 1,30,31
0 -173 m 1,36,37
 -17 -173 -17 -173 -29 -160 c 0,38,39
 -41 -146 -41 -146 -41 -125 c 256,40,41
 -41 -105 -41 -105 -29 -92 c 256,42,43
 -17 -78 -17 -78 0 -78 c 0,44,45
 11 -78 11 -78 20 -84 c 1,46,-1
 20 -84 l 1,47,48
 30 -78 30 -78 41 -78 c 0,49,50
 53 -78 53 -78 62 -84 c 1,51,-1
 62 -84 l 1,52,53
 72 -78 72 -78 83 -78 c 0,54,55
 95 -78 95 -78 104 -84 c 1,56,-1
 104 -84 l 1,57,58
 113 -78 113 -78 125 -78 c 0,59,60
 136 -78 136 -78 146 -84 c 1,61,-1
 146 -84 l 1,62,63
 154 -78 154 -78 166 -78 c 128,-1,64
 178 -78 178 -78 188 -84 c 1,65,-1
 188 -84 l 1,66,67
 197 -78 197 -78 208 -78 c 0,68,69
 220 -78 220 -78 229 -84 c 1,70,-1
 229 -84 l 1,71,72
 239 -78 239 -78 250 -78 c 0,73,74
 262 -78 262 -78 271 -84 c 1,75,-1
 271 -84 l 1,76,77
 280 -78 280 -78 292 -78 c 0,78,79
 303 -78 303 -78 313 -84 c 1,80,-1
 313 -84 l 1,81,82
 322 -78 322 -78 333 -78 c 128,-1,83
 344 -78 344 -78 354 -84 c 1,84,-1
 354 -84 l 1,85,86
 363 -78 363 -78 375 -78 c 0,87,88
 386 -78 386 -78 395 -84 c 1,89,-1
 395 -84 l 1,90,91
 405 -78 405 -78 416 -78 c 0,92,93
 428 -78 428 -78 437 -84 c 1,94,-1
 437 -84 l 1,95,96
 447 -78 447 -78 458 -78 c 0,97,98
 476 -78 476 -78 488 -92 c 128,-1,99
 500 -106 500 -106 500 -125 c 256,100,101
 500 -145 500 -145 488 -160 c 0,102,103
 475.866666667 -173.066666667 475.866666667 -173.066666667 460.248888889 -173.066666667 c 0,104,105
 459.133333333 -173.066666667 459.133333333 -173.066666667 458 -173 c 0,106,107
 447 -173 447 -173 437 -167 c 1,108,109
 428 -173 428 -173 416 -173 c 0,110,111
 405 -173 405 -173 395 -167 c 1,112,113
 386 -173 386 -173 375 -173 c 0,114,115
 363 -173 363 -173 354 -167 c 1,116,117
 344 -173 344 -173 333 -173 c 0,118,119
 321 -173 321 -173 313 -167 c 1,120,-1
 313 -167 l 1,121,122
 303 -173 303 -173 292 -173 c 0,123,124
 280 -173 280 -173 271 -167 c 1,125,-1
 271 -167 l 1,126,127
 262 -173 262 -173 250 -173 c 0,128,129
 239 -173 239 -173 229 -167 c 1,130,131
 220 -173 220 -173 208 -173 c 0,132,133
 198 -173 198 -173 188 -167 c 1,134,-1
 188 -167 l 1,135,136
 178 -173 178 -173 166 -173 c 128,-1,137
 154 -173 154 -173 146 -167 c 1,138,-1
 146 -167 l 1,139,140
 136 -173 136 -173 125 -173 c 0,141,142
 113 -173 113 -173 104 -167 c 1,143,-1
 104 -167 l 1,144,145
 95 -173 95 -173 83 -173 c 0,146,147
 72 -173 72 -173 62 -167 c 1,148,-1
 62 -167 l 1,149,150
 53 -173 53 -173 41 -173 c 0,151,152
 30 -173 30 -173 20 -167 c 1,153,-1
 20 -167 l 1,154,155
 11 -173 11 -173 0 -173 c 1,156,-1
 0 -173 l 1,36,37
146 6 m 1,157,-1
 146 6 l 1,158,-1
 146 6 l 1,159,-1
 146 6 l 1,160,-1
 146 6 l 1,157,-1
229 6 m 1,161,-1
 229 6 l 1,162,-1
 229 6 l 1,163,-1
 229 6 l 1,164,-1
 229 6 l 1,161,-1
125 0 m 1,165,166
 108 0 108 0 95 14 c 0,167,168
 83 28 83 28 83 47 c 256,169,170
 83 67 83 67 95 81 c 0,171,172
 108 95 108 95 125 95 c 0,173,174
 136 95 136 95 146 89 c 1,175,-1
 146 89 l 1,176,177
 154 95 154 95 166 95 c 128,-1,178
 178 95 178 95 188 89 c 1,179,-1
 188 89 l 1,180,181
 197 95 197 95 208 95 c 0,182,183
 220 95 220 95 229 89 c 1,184,-1
 229 89 l 1,185,186
 239 95 239 95 250 95 c 0,187,188
 262 95 262 95 271 89 c 1,189,-1
 271 89 l 1,190,191
 280 95 280 95 292 95 c 0,192,193
 309 95 309 95 321 81 c 0,194,195
 333.071428571 68 333.071428571 68 333.071428571 49.8265306122 c 0,196,197
 333.071428571 27.0773809524 333.071428571 27.0773809524 321 14 c 0,198,199
 309 0 309 0 292 0 c 0,200,201
 280 0 280 0 271 6 c 1,202,-1
 271 6 l 1,203,204
 262 0 262 0 250 0 c 0,205,206
 239 0 239 0 229 6 c 1,207,208
 220 0 220 0 208 0 c 0,209,210
 198 0 198 0 188 6 c 1,211,212
 178 0 178 0 166 0 c 128,-1,213
 154 0 154 0 146 6 c 1,214,-1
 146 6 l 1,215,216
 136 0 136 0 125 0 c 1,217,-1
 125 0 l 1,165,166
229 266 m 1,218,-1
 229 266 l 1,219,-1
 229 266 l 1,220,-1
 229 266 l 1,221,-1
 229 266 l 1,218,-1
41 87 m 1,222,223
 39.8666666667 86.9333333333 39.8666666667 86.9333333333 38.7555555556 86.9333333333 c 0,224,225
 23.2 86.9333333333 23.2 86.9333333333 12 100 c 256,226,227
 0 114 0 114 0 134 c 256,228,229
 0 154 0 154 12 168 c 0,230,231
 17 174 17 174 24 178 c 1,232,-1
 24 178 l 1,233,234
 18 182 18 182 12 188 c 0,235,236
 0 202 0 202 0 221 c 256,237,238
 0 241 0 241 12 255 c 256,239,240
 24 268 24 268 41 268 c 256,241,242
 58 268 58 268 71 255 c 0,243,244
 83 241 83 241 83 221 c 256,245,246
 83 202 83 202 71 188 c 0,247,248
 66 182 66 182 59 178 c 1,249,-1
 59 178 l 1,250,251
 65 175 65 175 71 168 c 0,252,253
 83 154 83 154 83 134 c 256,254,255
 83 114 83 114 71 100 c 0,256,257
 58.8666666667 86.9333333333 58.8666666667 86.9333333333 43.2488888889 86.9333333333 c 0,258,259
 42.1333333333 86.9333333333 42.1333333333 86.9333333333 41 87 c 1,260,-1
 41 87 l 1,222,223
375 87 m 1,261,262
 373.866666667 86.9333333333 373.866666667 86.9333333333 372.751111111 86.9333333333 c 0,263,264
 357.133333333 86.9333333333 357.133333333 86.9333333333 345 100 c 256,265,266
 333 114 333 114 333 134 c 256,267,268
 333 154 333 154 345 168 c 0,269,270
 350 174 350 174 357 178 c 1,271,-1
 357 178 l 1,272,273
 351 182 351 182 345 188 c 0,274,275
 333 202 333 202 333 221 c 256,276,277
 333 241 333 241 345 255 c 256,278,279
 357 268 357 268 375 268 c 0,280,281
 392 268 392 268 404 255 c 256,282,283
 416 241 416 241 416 221 c 256,284,285
 416 202 416 202 404 188 c 0,286,287
 399 182 399 182 392 178 c 1,288,-1
 392 178 l 1,289,290
 398 175 398 175 404 168 c 0,291,292
 416 154 416 154 416 134 c 256,293,294
 416 114 416 114 404 100 c 256,295,296
 392.8 86.9333333333 392.8 86.9333333333 377.244444444 86.9333333333 c 0,297,298
 376.133333333 86.9333333333 376.133333333 86.9333333333 375 87 c 1,299,-1
 375 87 l 1,261,262
83 260 m 1,300,301
 66 260 66 260 54 274 c 0,302,303
 41 288 41 288 41 308 c 256,304,305
 41 328 41 328 54 342 c 0,306,307
 66 356 66 356 83 356 c 256,308,309
 100 356 100 356 112 342 c 128,-1,310
 124 328 124 328 125 308 c 256,311,312
 124 288 124 288 112 274 c 0,313,314
 99 260 99 260 83 260 c 1,315,-1
 83 260 l 1,300,301
208 260 m 1,316,317
 190 260 190 260 178 274 c 256,318,319
 166 288 166 288 166 308 c 256,320,321
 166 328 166 328 178 342 c 256,322,323
 190 356 190 356 208 356 c 0,324,325
 220 356 220 356 229 350 c 1,326,-1
 229 350 l 1,327,328
 239 356 239 356 250 356 c 0,329,330
 262 356 262 356 271 350 c 1,331,-1
 271 350 l 1,332,333
 280 356 280 356 292 356 c 0,334,335
 309 356 309 356 321 342 c 0,336,337
 333.071428571 329 333.071428571 329 333.071428571 310.826530612 c 0,338,339
 333.071428571 288.083333333 333.071428571 288.083333333 321 274 c 128,-1,340
 309 260 309 260 292 260 c 0,341,342
 280 260 280 260 271 266 c 1,343,-1
 271 266 l 1,344,345
 262 260 262 260 250 260 c 0,346,347
 239 260 239 260 229 266 c 1,348,-1
 229 266 l 1,349,350
 220 260 220 260 208 260 c 1,351,-1
 208 260 l 1,316,317
125 347 m 1,352,353
 108 347 108 347 95 361 c 0,354,355
 83 374 83 374 83 394 c 256,356,357
 83 414 83 414 95 428 c 0,358,359
 108 442 108 442 125 442 c 256,360,361
 142 442 142 442 154 428 c 128,-1,362
 166 414 166 414 166 394 c 256,363,364
 166 374 166 374 154 361 c 0,365,366
 142 347 142 347 125 347 c 1,367,-1
 125 347 l 1,352,353
166 434 m 1,368,369
 149 434 149 434 137 448 c 128,-1,370
 125 462 125 462 125 482 c 256,371,372
 125 502 125 502 137 515 c 0,373,374
 150 530 150 530 166 530 c 256,375,376
 183 530 183 530 196 515 c 256,377,378
 208 502 208 502 208 482 c 256,379,380
 208 462 208 462 196 448 c 256,381,382
 184 434 184 434 166 434 c 1,383,-1
 166 434 l 1,368,369
208 520 m 1,384,385
 190 520 190 520 178 535 c 256,386,387
 166 548 166 548 166 568 c 256,388,389
 166 588 166 588 178 602 c 256,390,391
 190 616 190 616 208 616 c 256,392,393
 225 616 225 616 238 602 c 0,394,395
 250 588 250 588 250 568 c 256,396,397
 250 548 250 548 238 535 c 0,398,399
 225 520 225 520 208 520 c 1,400,-1
 208 520 l 1,384,385
EndSplineSet
EndChar

StartChar: seven
Encoding: 55 55 23
Width: 499
VWidth: 750
Flags: W
LayerCount: 2
Fore
SplineSet
20 -167 m 1,0,1
 20 -167 l 1,2,-1
 20 -167 l 1,3,4
 20 -167 l 1,5,-1
 20 -167 l 1,0,1
104 -167 m 1,6,7
 104 -167 l 1,8,-1
 104 -167 l 1,9,10
 104 -167 l 1,11,-1
 104 -167 l 1,6,7
188 -167 m 1,12,13
 188 -167 l 1,14,-1
 188 -167 l 1,15,16
 188 -167 l 1,17,-1
 188 -167 l 1,12,13
271 -167 m 1,18,19
 271 -167 l 1,20,-1
 271 -167 l 1,21,22
 271 -167 l 1,23,-1
 271 -167 l 1,18,19
354 -167 m 1,24,25
 354 -167 l 1,26,-1
 354 -167 l 1,27,28
 354 -167 l 1,29,-1
 354 -167 l 1,24,25
437 -167 m 1,30,31
 437 -167 l 1,32,-1
 437 -167 l 1,33,34
 437 -167 l 1,35,-1
 437 -167 l 1,30,31
0 -173 m 1,36,37
 -17 -173 -17 -173 -29 -160 c 0,38,39
 -41 -146 -41 -146 -41 -125 c 256,40,41
 -41 -105 -41 -105 -29 -92 c 256,42,43
 -17 -78 -17 -78 0 -78 c 0,44,45
 11 -78 11 -78 20 -84 c 1,46,-1
 20 -84 l 1,47,48
 30 -78 30 -78 41 -78 c 0,49,50
 53 -78 53 -78 62 -84 c 1,51,-1
 62 -84 l 1,52,53
 72 -78 72 -78 83 -78 c 0,54,55
 95 -78 95 -78 104 -84 c 1,56,-1
 104 -84 l 1,57,58
 113 -78 113 -78 125 -78 c 0,59,60
 136 -78 136 -78 146 -84 c 1,61,-1
 146 -84 l 1,62,63
 154 -78 154 -78 166 -78 c 128,-1,64
 178 -78 178 -78 188 -84 c 1,65,-1
 188 -84 l 1,66,67
 197 -78 197 -78 208 -78 c 0,68,69
 220 -78 220 -78 229 -84 c 1,70,-1
 229 -84 l 1,71,72
 239 -78 239 -78 250 -78 c 0,73,74
 262 -78 262 -78 271 -84 c 1,75,-1
 271 -84 l 1,76,77
 280 -78 280 -78 292 -78 c 0,78,79
 303 -78 303 -78 313 -84 c 1,80,-1
 313 -84 l 1,81,82
 322 -78 322 -78 333 -78 c 128,-1,83
 344 -78 344 -78 354 -84 c 1,84,-1
 354 -84 l 1,85,86
 363 -78 363 -78 375 -78 c 0,87,88
 386 -78 386 -78 395 -84 c 1,89,-1
 395 -84 l 1,90,91
 405 -78 405 -78 416 -78 c 0,92,93
 428 -78 428 -78 437 -84 c 1,94,-1
 437 -84 l 1,95,96
 447 -78 447 -78 458 -78 c 0,97,98
 476 -78 476 -78 488 -92 c 128,-1,99
 500 -106 500 -106 500 -125 c 256,100,101
 500 -145 500 -145 488 -160 c 0,102,103
 475.866666667 -173.066666667 475.866666667 -173.066666667 460.248888889 -173.066666667 c 0,104,105
 459.133333333 -173.066666667 459.133333333 -173.066666667 458 -173 c 0,106,107
 447 -173 447 -173 437 -167 c 1,108,109
 428 -173 428 -173 416 -173 c 0,110,111
 405 -173 405 -173 395 -167 c 1,112,113
 386 -173 386 -173 375 -173 c 0,114,115
 363 -173 363 -173 354 -167 c 1,116,117
 344 -173 344 -173 333 -173 c 0,118,119
 321 -173 321 -173 313 -167 c 1,120,-1
 313 -167 l 1,121,122
 303 -173 303 -173 292 -173 c 0,123,124
 280 -173 280 -173 271 -167 c 1,125,-1
 271 -167 l 1,126,127
 262 -173 262 -173 250 -173 c 0,128,129
 239 -173 239 -173 229 -167 c 1,130,131
 220 -173 220 -173 208 -173 c 0,132,133
 198 -173 198 -173 188 -167 c 1,134,-1
 188 -167 l 1,135,136
 178 -173 178 -173 166 -173 c 128,-1,137
 154 -173 154 -173 146 -167 c 1,138,-1
 146 -167 l 1,139,140
 136 -173 136 -173 125 -173 c 0,141,142
 113 -173 113 -173 104 -167 c 1,143,-1
 104 -167 l 1,144,145
 95 -173 95 -173 83 -173 c 0,146,147
 72 -173 72 -173 62 -167 c 1,148,-1
 62 -167 l 1,149,150
 53 -173 53 -173 41 -173 c 0,151,152
 30 -173 30 -173 20 -167 c 1,153,-1
 20 -167 l 1,154,155
 11 -173 11 -173 0 -173 c 1,156,-1
 0 -173 l 1,36,37
125 0 m 1,157,158
 108 0 108 0 95 14 c 0,159,160
 83 28 83 28 83 47 c 256,161,162
 83 67 83 67 95 81 c 0,163,164
 108 95 108 95 125 95 c 256,165,166
 142 95 142 95 154 81 c 128,-1,167
 166 67 166 67 166 47 c 256,168,169
 166 27 166 27 154 14 c 0,170,171
 142 0 142 0 125 0 c 1,172,-1
 125 0 l 1,157,158
166 87 m 1,173,174
 164.866666667 86.9333333333 164.866666667 86.9333333333 163.755555556 86.9333333333 c 0,175,176
 148.2 86.9333333333 148.2 86.9333333333 137 100 c 0,177,178
 125 114 125 114 125 134 c 256,179,180
 125 154 125 154 137 168 c 0,181,182
 150 182 150 182 166 182 c 256,183,184
 183 182 183 182 196 168 c 256,185,186
 208 154 208 154 208 134 c 256,187,188
 208 114 208 114 196 100 c 256,189,190
 184.8 86.9333333333 184.8 86.9333333333 168.373333333 86.9333333333 c 0,191,192
 167.2 86.9333333333 167.2 86.9333333333 166 87 c 1,193,-1
 166 87 l 1,173,174
208 173 m 1,194,195
 190 174 190 174 178 188 c 256,196,197
 166 202 166 202 166 221 c 256,198,199
 166 241 166 241 178 255 c 256,200,201
 190 268 190 268 208 268 c 256,202,203
 225 268 225 268 238 255 c 0,204,205
 250 241 250 241 250 221 c 256,206,207
 250 202 250 202 238 188 c 0,208,209
 225 174 225 174 208 173 c 1,210,-1
 208 173 l 1,194,195
250 260 m 1,211,212
 232 260 232 260 220 274 c 0,213,214
 207.928571429 287 207.928571429 287 207.928571429 305.173469388 c 0,215,216
 207.928571429 327.916666667 207.928571429 327.916666667 220 342 c 128,-1,217
 232 356 232 356 250 356 c 256,218,219
 267 356 267 356 280 342 c 0,220,221
 292 328 292 328 292 308 c 256,222,223
 292 288 292 288 280 274 c 0,224,225
 267 260 267 260 250 260 c 1,226,-1
 250 260 l 1,211,212
292 347 m 1,227,228
 275 347 275 347 262 361 c 0,229,230
 250 374 250 374 250 394 c 256,231,232
 250 414 250 414 262 428 c 0,233,234
 275 442 275 442 292 442 c 256,235,236
 309 442 309 442 321 428 c 0,237,238
 333.071428571 415 333.071428571 415 333.071428571 396.826530612 c 0,239,240
 333.071428571 374.077380952 333.071428571 374.077380952 321 361 c 0,241,242
 309 347 309 347 292 347 c 1,243,-1
 292 347 l 1,227,228
62 527 m 1,244,245
 62 527 l 1,246,-1
 62 527 l 1,247,248
 62 527 l 1,249,-1
 62 527 l 1,244,245
146 527 m 1,250,251
 146 527 l 1,252,-1
 146 527 l 1,253,254
 146 527 l 1,255,-1
 146 527 l 1,250,251
229 527 m 1,256,257
 229 527 l 1,258,-1
 229 527 l 1,259,260
 229 527 l 1,261,-1
 229 527 l 1,256,257
313 527 m 1,262,263
 313 527 l 1,264,-1
 313 527 l 1,265,266
 313 527 l 1,267,-1
 313 527 l 1,262,263
333 434 m 1,268,269
 316 434 316 434 304 448 c 128,-1,270
 292 462 292 462 292 482 c 256,271,272
 292 502 292 502 304 515 c 0,273,274
 309 521 309 521 315 525 c 1,275,-1
 315 525 l 1,276,277
 313 526 313 526 313 527 c 1,278,-1
 313 527 l 1,279,280
 303 520 303 520 292 520 c 0,281,282
 280 520 280 520 271 527 c 1,283,284
 262 520 262 520 250 520 c 0,285,286
 239 520 239 520 229 527 c 1,287,-1
 229 527 l 1,288,289
 220 520 220 520 208 520 c 0,290,291
 198 520 198 520 188 527 c 1,292,293
 178 520 178 520 166 520 c 128,-1,294
 154 520 154 520 146 527 c 1,295,296
 136 520 136 520 125 520 c 0,297,298
 113 520 113 520 104 527 c 1,299,-1
 104 527 l 1,300,301
 95 520 95 520 83 520 c 0,302,303
 72 520 72 520 62 527 c 1,304,-1
 62 527 l 1,305,306
 53 520 53 520 41 520 c 0,307,308
 24 520 24 520 12 535 c 256,309,310
 0 548 0 548 0 568 c 256,311,312
 0 588 0 588 12 602 c 256,313,314
 24 616 24 616 41 616 c 0,315,316
 53 616 53 616 62 610 c 1,317,-1
 62 610 l 1,318,319
 72 616 72 616 83 616 c 0,320,321
 95 616 95 616 104 610 c 1,322,-1
 104 610 l 1,323,324
 113 616 113 616 125 616 c 0,325,326
 136 616 136 616 146 610 c 1,327,-1
 146 610 l 1,328,329
 154 616 154 616 166 616 c 128,-1,330
 178 616 178 616 188 610 c 1,331,-1
 188 610 l 1,332,333
 197 616 197 616 208 616 c 0,334,335
 220 616 220 616 229 610 c 1,336,-1
 229 610 l 1,337,338
 239 616 239 616 250 616 c 0,339,340
 262 616 262 616 271 610 c 1,341,-1
 271 610 l 1,342,343
 280 616 280 616 292 616 c 0,344,345
 303 616 303 616 313 610 c 1,346,-1
 313 610 l 1,347,348
 322 616 322 616 333 616 c 128,-1,349
 344 616 344 616 354 610 c 1,350,-1
 354 610 l 1,351,352
 363 616 363 616 375 616 c 0,353,354
 392 616 392 616 404 602 c 256,355,356
 416 588 416 588 416 568 c 256,357,358
 416 548 416 548 404 535 c 256,359,360
 392 520 392 520 375 520 c 0,361,362
 363 520 363 520 354 527 c 1,363,364
 352 526 352 526 351 525 c 1,365,-1
 351 525 l 1,366,367
 357 521 357 521 362 515 c 0,368,369
 375 502 375 502 375 482 c 256,370,371
 375 462 375 462 362 448 c 0,372,373
 350 434 350 434 333 434 c 1,374,-1
 333 434 l 1,268,269
EndSplineSet
EndChar

StartChar: eight
Encoding: 56 56 24
Width: 499
VWidth: 750
Flags: W
LayerCount: 2
Fore
SplineSet
20 -167 m 1,0,1
 20 -167 l 1,2,-1
 20 -167 l 1,3,4
 20 -167 l 1,5,-1
 20 -167 l 1,0,1
104 -167 m 1,6,7
 104 -167 l 1,8,-1
 104 -167 l 1,9,10
 104 -167 l 1,11,-1
 104 -167 l 1,6,7
188 -167 m 1,12,13
 188 -167 l 1,14,-1
 188 -167 l 1,15,16
 188 -167 l 1,17,-1
 188 -167 l 1,12,13
271 -167 m 1,18,19
 271 -167 l 1,20,-1
 271 -167 l 1,21,22
 271 -167 l 1,23,-1
 271 -167 l 1,18,19
354 -167 m 1,24,25
 354 -167 l 1,26,-1
 354 -167 l 1,27,28
 354 -167 l 1,29,-1
 354 -167 l 1,24,25
437 -167 m 1,30,31
 437 -167 l 1,32,-1
 437 -167 l 1,33,34
 437 -167 l 1,35,-1
 437 -167 l 1,30,31
0 -173 m 1,36,37
 -17 -173 -17 -173 -29 -160 c 0,38,39
 -41 -146 -41 -146 -41 -125 c 256,40,41
 -41 -105 -41 -105 -29 -92 c 256,42,43
 -17 -78 -17 -78 0 -78 c 0,44,45
 11 -78 11 -78 20 -84 c 1,46,-1
 20 -84 l 1,47,48
 30 -78 30 -78 41 -78 c 0,49,50
 53 -78 53 -78 62 -84 c 1,51,-1
 62 -84 l 1,52,53
 72 -78 72 -78 83 -78 c 0,54,55
 95 -78 95 -78 104 -84 c 1,56,-1
 104 -84 l 1,57,58
 113 -78 113 -78 125 -78 c 0,59,60
 136 -78 136 -78 146 -84 c 1,61,-1
 146 -84 l 1,62,63
 154 -78 154 -78 166 -78 c 128,-1,64
 178 -78 178 -78 188 -84 c 1,65,-1
 188 -84 l 1,66,67
 197 -78 197 -78 208 -78 c 0,68,69
 220 -78 220 -78 229 -84 c 1,70,-1
 229 -84 l 1,71,72
 239 -78 239 -78 250 -78 c 0,73,74
 262 -78 262 -78 271 -84 c 1,75,-1
 271 -84 l 1,76,77
 280 -78 280 -78 292 -78 c 0,78,79
 303 -78 303 -78 313 -84 c 1,80,-1
 313 -84 l 1,81,82
 322 -78 322 -78 333 -78 c 128,-1,83
 344 -78 344 -78 354 -84 c 1,84,-1
 354 -84 l 1,85,86
 363 -78 363 -78 375 -78 c 0,87,88
 386 -78 386 -78 395 -84 c 1,89,-1
 395 -84 l 1,90,91
 405 -78 405 -78 416 -78 c 0,92,93
 428 -78 428 -78 437 -84 c 1,94,-1
 437 -84 l 1,95,96
 447 -78 447 -78 458 -78 c 0,97,98
 476 -78 476 -78 488 -92 c 128,-1,99
 500 -106 500 -106 500 -125 c 256,100,101
 500 -145 500 -145 488 -160 c 0,102,103
 475.866666667 -173.066666667 475.866666667 -173.066666667 460.248888889 -173.066666667 c 0,104,105
 459.133333333 -173.066666667 459.133333333 -173.066666667 458 -173 c 0,106,107
 447 -173 447 -173 437 -167 c 1,108,109
 428 -173 428 -173 416 -173 c 0,110,111
 405 -173 405 -173 395 -167 c 1,112,113
 386 -173 386 -173 375 -173 c 0,114,115
 363 -173 363 -173 354 -167 c 1,116,117
 344 -173 344 -173 333 -173 c 0,118,119
 321 -173 321 -173 313 -167 c 1,120,-1
 313 -167 l 1,121,122
 303 -173 303 -173 292 -173 c 0,123,124
 280 -173 280 -173 271 -167 c 1,125,-1
 271 -167 l 1,126,127
 262 -173 262 -173 250 -173 c 0,128,129
 239 -173 239 -173 229 -167 c 1,130,131
 220 -173 220 -173 208 -173 c 0,132,133
 198 -173 198 -173 188 -167 c 1,134,-1
 188 -167 l 1,135,136
 178 -173 178 -173 166 -173 c 128,-1,137
 154 -173 154 -173 146 -167 c 1,138,-1
 146 -167 l 1,139,140
 136 -173 136 -173 125 -173 c 0,141,142
 113 -173 113 -173 104 -167 c 1,143,-1
 104 -167 l 1,144,145
 95 -173 95 -173 83 -173 c 0,146,147
 72 -173 72 -173 62 -167 c 1,148,-1
 62 -167 l 1,149,150
 53 -173 53 -173 41 -173 c 0,151,152
 30 -173 30 -173 20 -167 c 1,153,-1
 20 -167 l 1,154,155
 11 -173 11 -173 0 -173 c 1,156,-1
 0 -173 l 1,36,37
146 6 m 1,157,-1
 146 6 l 1,158,-1
 146 6 l 1,159,-1
 146 6 l 1,160,-1
 146 6 l 1,157,-1
229 6 m 1,161,-1
 229 6 l 1,162,-1
 229 6 l 1,163,-1
 229 6 l 1,164,-1
 229 6 l 1,161,-1
125 0 m 1,165,166
 108 0 108 0 95 14 c 0,167,168
 83 28 83 28 83 47 c 256,169,170
 83 67 83 67 95 81 c 0,171,172
 108 95 108 95 125 95 c 0,173,174
 136 95 136 95 146 89 c 1,175,-1
 146 89 l 1,176,177
 154 95 154 95 166 95 c 128,-1,178
 178 95 178 95 188 89 c 1,179,-1
 188 89 l 1,180,181
 197 95 197 95 208 95 c 0,182,183
 220 95 220 95 229 89 c 1,184,-1
 229 89 l 1,185,186
 239 95 239 95 250 95 c 0,187,188
 262 95 262 95 271 89 c 1,189,-1
 271 89 l 1,190,191
 280 95 280 95 292 95 c 0,192,193
 309 95 309 95 321 81 c 0,194,195
 333.071428571 68 333.071428571 68 333.071428571 49.8265306122 c 0,196,197
 333.071428571 27.0773809524 333.071428571 27.0773809524 321 14 c 0,198,199
 309 0 309 0 292 0 c 0,200,201
 280 0 280 0 271 6 c 1,202,-1
 271 6 l 1,203,204
 262 0 262 0 250 0 c 0,205,206
 239 0 239 0 229 6 c 1,207,208
 220 0 220 0 208 0 c 0,209,210
 198 0 198 0 188 6 c 1,211,212
 178 0 178 0 166 0 c 128,-1,213
 154 0 154 0 146 6 c 1,214,-1
 146 6 l 1,215,216
 136 0 136 0 125 0 c 1,217,-1
 125 0 l 1,165,166
146 266 m 1,218,-1
 146 266 l 1,219,-1
 146 266 l 1,220,-1
 146 266 l 1,221,-1
 146 266 l 1,218,-1
188 266 m 1,222,-1
 188 266 l 1,223,-1
 188 266 l 1,224,-1
 188 266 l 1,225,-1
 188 266 l 1,222,-1
271 266 m 1,226,-1
 271 266 l 1,227,-1
 271 266 l 1,228,-1
 271 266 l 1,229,-1
 271 266 l 1,226,-1
41 87 m 1,230,231
 39.8666666667 86.9333333333 39.8666666667 86.9333333333 38.7555555556 86.9333333333 c 0,232,233
 23.2 86.9333333333 23.2 86.9333333333 12 100 c 256,234,235
 0 114 0 114 0 134 c 256,236,237
 0 154 0 154 12 168 c 0,238,239
 17 174 17 174 24 178 c 1,240,-1
 24 178 l 1,241,242
 18 182 18 182 12 188 c 0,243,244
 0 202 0 202 0 221 c 256,245,246
 0 241 0 241 12 255 c 256,247,248
 24 268 24 268 41 268 c 256,249,250
 58 268 58 268 71 255 c 0,251,252
 83 241 83 241 83 221 c 256,253,254
 83 202 83 202 71 188 c 0,255,256
 66 182 66 182 59 178 c 1,257,-1
 59 178 l 1,258,259
 65 175 65 175 71 168 c 0,260,261
 83 154 83 154 83 134 c 256,262,263
 83 114 83 114 71 100 c 0,264,265
 58.8666666667 86.9333333333 58.8666666667 86.9333333333 43.2488888889 86.9333333333 c 0,266,267
 42.1333333333 86.9333333333 42.1333333333 86.9333333333 41 87 c 1,268,-1
 41 87 l 1,230,231
375 87 m 1,269,270
 373.866666667 86.9333333333 373.866666667 86.9333333333 372.751111111 86.9333333333 c 0,271,272
 357.133333333 86.9333333333 357.133333333 86.9333333333 345 100 c 256,273,274
 333 114 333 114 333 134 c 256,275,276
 333 154 333 154 345 168 c 0,277,278
 350 174 350 174 357 178 c 1,279,-1
 357 178 l 1,280,281
 351 182 351 182 345 188 c 0,282,283
 333 202 333 202 333 221 c 256,284,285
 333 241 333 241 345 255 c 256,286,287
 357 268 357 268 375 268 c 0,288,289
 392 268 392 268 404 255 c 256,290,291
 416 241 416 241 416 221 c 256,292,293
 416 202 416 202 404 188 c 0,294,295
 399 182 399 182 392 178 c 1,296,-1
 392 178 l 1,297,298
 398 175 398 175 404 168 c 0,299,300
 416 154 416 154 416 134 c 256,301,302
 416 114 416 114 404 100 c 256,303,304
 392.8 86.9333333333 392.8 86.9333333333 377.244444444 86.9333333333 c 0,305,306
 376.133333333 86.9333333333 376.133333333 86.9333333333 375 87 c 1,307,-1
 375 87 l 1,269,270
125 260 m 1,308,309
 108 260 108 260 95 274 c 0,310,311
 83 288 83 288 83 308 c 256,312,313
 83 328 83 328 95 342 c 0,314,315
 108 356 108 356 125 356 c 0,316,317
 136 356 136 356 146 350 c 1,318,-1
 146 350 l 1,319,320
 154 356 154 356 166 356 c 128,-1,321
 178 356 178 356 188 350 c 1,322,-1
 188 350 l 1,323,324
 197 356 197 356 208 356 c 0,325,326
 220 356 220 356 229 350 c 1,327,-1
 229 350 l 1,328,329
 239 356 239 356 250 356 c 0,330,331
 262 356 262 356 271 350 c 1,332,-1
 271 350 l 1,333,334
 280 356 280 356 292 356 c 0,335,336
 309 356 309 356 321 342 c 0,337,338
 333.071428571 329 333.071428571 329 333.071428571 310.826530612 c 0,339,340
 333.071428571 288.083333333 333.071428571 288.083333333 321 274 c 128,-1,341
 309 260 309 260 292 260 c 0,342,343
 280 260 280 260 271 266 c 1,344,-1
 271 266 l 1,345,346
 262 260 262 260 250 260 c 0,347,348
 239 260 239 260 229 266 c 1,349,-1
 229 266 l 1,350,351
 220 260 220 260 208 260 c 0,352,353
 198 260 198 260 188 266 c 1,354,355
 178 260 178 260 166 260 c 128,-1,356
 154 260 154 260 146 266 c 1,357,-1
 146 266 l 1,358,359
 136 260 136 260 125 260 c 1,360,-1
 125 260 l 1,308,309
146 527 m 1,361,-1
 146 527 l 1,362,-1
 146 527 l 1,363,-1
 146 527 l 1,364,-1
 146 527 l 1,361,-1
229 527 m 1,365,-1
 229 527 l 1,366,-1
 229 527 l 1,367,-1
 229 527 l 1,368,-1
 229 527 l 1,365,-1
41 347 m 1,369,370
 24 347 24 347 12 361 c 256,371,372
 0 374 0 374 0 394 c 256,373,374
 0 414 0 414 12 428 c 0,375,376
 17 434 17 434 24 438 c 1,377,-1
 24 438 l 1,378,379
 18 441 18 441 12 448 c 0,380,381
 0 462 0 462 0 482 c 256,382,383
 0 502 0 502 12 515 c 256,384,385
 24 530 24 530 41 530 c 256,386,387
 58 530 58 530 71 515 c 0,388,389
 83 502 83 502 83 482 c 256,390,391
 83 462 83 462 71 448 c 0,392,393
 66 442 66 442 59 438 c 1,394,-1
 59 438 l 1,395,396
 65 434 65 434 71 428 c 0,397,398
 83 414 83 414 83 394 c 256,399,400
 83 374 83 374 71 361 c 0,401,402
 58 347 58 347 41 347 c 1,403,-1
 41 347 l 1,369,370
375 347 m 1,404,405
 358 347 358 347 345 361 c 256,406,407
 333 374 333 374 333 394 c 256,408,409
 333 414 333 414 345 428 c 0,410,411
 350 434 350 434 357 438 c 1,412,-1
 357 438 l 1,413,414
 351 441 351 441 345 448 c 0,415,416
 333 462 333 462 333 482 c 256,417,418
 333 502 333 502 345 515 c 256,419,420
 357 530 357 530 375 530 c 0,421,422
 392 530 392 530 404 515 c 256,423,424
 416 502 416 502 416 482 c 256,425,426
 416 462 416 462 404 448 c 0,427,428
 399 442 399 442 392 438 c 1,429,-1
 392 438 l 1,430,431
 398 434 398 434 404 428 c 0,432,433
 416 414 416 414 416 394 c 256,434,435
 416 374 416 374 404 361 c 256,436,437
 392 347 392 347 375 347 c 1,438,-1
 375 347 l 1,404,405
125 520 m 1,439,440
 108 520 108 520 95 535 c 0,441,442
 83 548 83 548 83 568 c 256,443,444
 83 588 83 588 95 602 c 0,445,446
 108 616 108 616 125 616 c 0,447,448
 136 616 136 616 146 610 c 1,449,-1
 146 610 l 1,450,451
 154 616 154 616 166 616 c 128,-1,452
 178 616 178 616 188 610 c 1,453,-1
 188 610 l 1,454,455
 197 616 197 616 208 616 c 0,456,457
 220 616 220 616 229 610 c 1,458,-1
 229 610 l 1,459,460
 239 616 239 616 250 616 c 0,461,462
 262 616 262 616 271 610 c 1,463,-1
 271 610 l 1,464,465
 280 616 280 616 292 616 c 0,466,467
 309 616 309 616 321 602 c 0,468,469
 333.071428571 589 333.071428571 589 333.071428571 570.826530612 c 0,470,471
 333.071428571 548.077380952 333.071428571 548.077380952 321 535 c 0,472,473
 309 520 309 520 292 520 c 0,474,475
 280 520 280 520 271 527 c 1,476,477
 262 520 262 520 250 520 c 0,478,479
 239 520 239 520 229 527 c 1,480,-1
 229 527 l 1,481,482
 220 520 220 520 208 520 c 0,483,484
 198 520 198 520 188 527 c 1,485,486
 178 520 178 520 166 520 c 128,-1,487
 154 520 154 520 146 527 c 1,488,489
 136 520 136 520 125 520 c 1,490,-1
 125 520 l 1,439,440
EndSplineSet
EndChar

StartChar: nine
Encoding: 57 57 25
Width: 499
VWidth: 750
Flags: W
LayerCount: 2
Fore
SplineSet
20 -167 m 1,0,1
 20 -167 l 1,2,-1
 20 -167 l 1,3,4
 20 -167 l 1,5,-1
 20 -167 l 1,0,1
104 -167 m 1,6,7
 104 -167 l 1,8,-1
 104 -167 l 1,9,10
 104 -167 l 1,11,-1
 104 -167 l 1,6,7
188 -167 m 1,12,13
 188 -167 l 1,14,-1
 188 -167 l 1,15,16
 188 -167 l 1,17,-1
 188 -167 l 1,12,13
271 -167 m 1,18,19
 271 -167 l 1,20,-1
 271 -167 l 1,21,22
 271 -167 l 1,23,-1
 271 -167 l 1,18,19
354 -167 m 1,24,25
 354 -167 l 1,26,-1
 354 -167 l 1,27,28
 354 -167 l 1,29,-1
 354 -167 l 1,24,25
437 -167 m 1,30,31
 437 -167 l 1,32,-1
 437 -167 l 1,33,34
 437 -167 l 1,35,-1
 437 -167 l 1,30,31
0 -173 m 1,36,37
 -17 -173 -17 -173 -29 -160 c 0,38,39
 -41 -146 -41 -146 -41 -125 c 256,40,41
 -41 -105 -41 -105 -29 -92 c 256,42,43
 -17 -78 -17 -78 0 -78 c 0,44,45
 11 -78 11 -78 20 -84 c 1,46,-1
 20 -84 l 1,47,48
 30 -78 30 -78 41 -78 c 0,49,50
 53 -78 53 -78 62 -84 c 1,51,-1
 62 -84 l 1,52,53
 72 -78 72 -78 83 -78 c 0,54,55
 95 -78 95 -78 104 -84 c 1,56,-1
 104 -84 l 1,57,58
 113 -78 113 -78 125 -78 c 0,59,60
 136 -78 136 -78 146 -84 c 1,61,-1
 146 -84 l 1,62,63
 154 -78 154 -78 166 -78 c 128,-1,64
 178 -78 178 -78 188 -84 c 1,65,-1
 188 -84 l 1,66,67
 197 -78 197 -78 208 -78 c 0,68,69
 220 -78 220 -78 229 -84 c 1,70,-1
 229 -84 l 1,71,72
 239 -78 239 -78 250 -78 c 0,73,74
 262 -78 262 -78 271 -84 c 1,75,-1
 271 -84 l 1,76,77
 280 -78 280 -78 292 -78 c 0,78,79
 303 -78 303 -78 313 -84 c 1,80,-1
 313 -84 l 1,81,82
 322 -78 322 -78 333 -78 c 128,-1,83
 344 -78 344 -78 354 -84 c 1,84,-1
 354 -84 l 1,85,86
 363 -78 363 -78 375 -78 c 0,87,88
 386 -78 386 -78 395 -84 c 1,89,-1
 395 -84 l 1,90,91
 405 -78 405 -78 416 -78 c 0,92,93
 428 -78 428 -78 437 -84 c 1,94,-1
 437 -84 l 1,95,96
 447 -78 447 -78 458 -78 c 0,97,98
 476 -78 476 -78 488 -92 c 128,-1,99
 500 -106 500 -106 500 -125 c 256,100,101
 500 -145 500 -145 488 -160 c 0,102,103
 475.866666667 -173.066666667 475.866666667 -173.066666667 460.248888889 -173.066666667 c 0,104,105
 459.133333333 -173.066666667 459.133333333 -173.066666667 458 -173 c 0,106,107
 447 -173 447 -173 437 -167 c 1,108,109
 428 -173 428 -173 416 -173 c 0,110,111
 405 -173 405 -173 395 -167 c 1,112,113
 386 -173 386 -173 375 -173 c 0,114,115
 363 -173 363 -173 354 -167 c 1,116,117
 344 -173 344 -173 333 -173 c 0,118,119
 321 -173 321 -173 313 -167 c 1,120,-1
 313 -167 l 1,121,122
 303 -173 303 -173 292 -173 c 0,123,124
 280 -173 280 -173 271 -167 c 1,125,-1
 271 -167 l 1,126,127
 262 -173 262 -173 250 -173 c 0,128,129
 239 -173 239 -173 229 -167 c 1,130,131
 220 -173 220 -173 208 -173 c 0,132,133
 198 -173 198 -173 188 -167 c 1,134,-1
 188 -167 l 1,135,136
 178 -173 178 -173 166 -173 c 128,-1,137
 154 -173 154 -173 146 -167 c 1,138,-1
 146 -167 l 1,139,140
 136 -173 136 -173 125 -173 c 0,141,142
 113 -173 113 -173 104 -167 c 1,143,-1
 104 -167 l 1,144,145
 95 -173 95 -173 83 -173 c 0,146,147
 72 -173 72 -173 62 -167 c 1,148,-1
 62 -167 l 1,149,150
 53 -173 53 -173 41 -173 c 0,151,152
 30 -173 30 -173 20 -167 c 1,153,-1
 20 -167 l 1,154,155
 11 -173 11 -173 0 -173 c 1,156,-1
 0 -173 l 1,36,37
208 0 m 1,157,158
 190 0 190 0 178 14 c 256,159,160
 166 28 166 28 166 47 c 256,161,162
 166 67 166 67 178 81 c 256,163,164
 190 95 190 95 208 95 c 256,165,166
 225 95 225 95 238 81 c 0,167,168
 250 67 250 67 250 47 c 256,169,170
 250 27 250 27 238 14 c 0,171,172
 225 0 225 0 208 0 c 1,173,-1
 208 0 l 1,157,158
250 87 m 1,174,175
 248.8 86.9333333333 248.8 86.9333333333 247.626666667 86.9333333333 c 0,176,177
 231.2 86.9333333333 231.2 86.9333333333 220 100 c 0,178,179
 207.928571429 113 207.928571429 113 207.928571429 131.173469388 c 0,180,181
 207.928571429 153.916666667 207.928571429 153.916666667 220 168 c 128,-1,182
 232 182 232 182 250 182 c 256,183,184
 267 182 267 182 280 168 c 0,185,186
 292 154 292 154 292 134 c 256,187,188
 292 114 292 114 280 100 c 0,189,190
 267.866666667 86.9333333333 267.866666667 86.9333333333 252.248888889 86.9333333333 c 0,191,192
 251.133333333 86.9333333333 251.133333333 86.9333333333 250 87 c 1,193,-1
 250 87 l 1,174,175
188 266 m 1,194,-1
 188 266 l 1,195,-1
 188 266 l 1,196,197
 188 266 l 1,198,-1
 188 266 l 1,194,-1
292 173 m 1,199,200
 275 174 275 174 262 188 c 0,201,202
 250 202 250 202 250 221 c 256,203,204
 250 241 250 241 262 255 c 0,205,206
 275 268 275 268 292 268 c 256,207,208
 309 268 309 268 321 255 c 128,-1,209
 333.071428571 242 333.071428571 242 333.071428571 223.826530612 c 0,210,211
 333.071428571 202.083333333 333.071428571 202.083333333 321 188 c 128,-1,212
 309 174 309 174 292 173 c 1,213,-1
 292 173 l 1,199,200
125 260 m 1,214,215
 108 260 108 260 95 274 c 0,216,217
 83 288 83 288 83 308 c 256,218,219
 83 328 83 328 95 342 c 0,220,221
 108 356 108 356 125 356 c 0,222,223
 136 356 136 356 146 350 c 1,224,-1
 146 350 l 1,225,226
 154 356 154 356 166 356 c 128,-1,227
 178 356 178 356 188 350 c 1,228,-1
 188 350 l 1,229,230
 197 356 197 356 208 356 c 0,231,232
 225 356 225 356 238 342 c 0,233,234
 250 328 250 328 250 308 c 256,235,236
 250 288 250 288 238 274 c 0,237,238
 225 260 225 260 208 260 c 0,239,240
 198 260 198 260 188 266 c 1,241,-1
 188 266 l 1,242,243
 178 260 178 260 166 260 c 128,-1,244
 154 260 154 260 146 266 c 1,245,-1
 146 266 l 1,246,247
 136 260 136 260 125 260 c 1,248,-1
 125 260 l 1,214,215
333 260 m 1,249,250
 316 260 316 260 304 274 c 128,-1,251
 292 288 292 288 292 308 c 256,252,253
 292 328 292 328 304 342 c 0,254,255
 317 356 317 356 333 356 c 256,256,257
 350 356 350 356 362 342 c 0,258,259
 375 328 375 328 375 308 c 256,260,261
 375 288 375 288 362 274 c 0,262,263
 350 260 350 260 333 260 c 1,264,-1
 333 260 l 1,249,250
188 527 m 1,265,-1
 188 527 l 1,266,-1
 188 527 l 1,267,-1
 188 527 l 1,268,-1
 188 527 l 1,265,-1
271 527 m 1,269,-1
 271 527 l 1,270,-1
 271 527 l 1,271,-1
 271 527 l 1,272,-1
 271 527 l 1,269,-1
41 347 m 1,273,274
 24 347 24 347 12 361 c 256,275,276
 0 374 0 374 0 394 c 256,277,278
 0 414 0 414 12 428 c 0,279,280
 17 434 17 434 24 438 c 1,281,-1
 24 438 l 1,282,283
 18 441 18 441 12 448 c 0,284,285
 0 462 0 462 0 482 c 256,286,287
 0 502 0 502 12 515 c 256,288,289
 24 530 24 530 41 530 c 256,290,291
 58 530 58 530 71 515 c 0,292,293
 83 502 83 502 83 482 c 256,294,295
 83 462 83 462 71 448 c 0,296,297
 66 442 66 442 59 438 c 1,298,-1
 59 438 l 1,299,300
 65 434 65 434 71 428 c 0,301,302
 83 414 83 414 83 394 c 256,303,304
 83 374 83 374 71 361 c 0,305,306
 58 347 58 347 41 347 c 1,307,-1
 41 347 l 1,273,274
375 347 m 1,308,309
 358 347 358 347 345 361 c 256,310,311
 333 374 333 374 333 394 c 256,312,313
 333 414 333 414 345 428 c 0,314,315
 350 434 350 434 357 438 c 1,316,-1
 357 438 l 1,317,318
 351 441 351 441 345 448 c 0,319,320
 333 462 333 462 333 482 c 256,321,322
 333 502 333 502 345 515 c 256,323,324
 357 530 357 530 375 530 c 0,325,326
 392 530 392 530 404 515 c 256,327,328
 416 502 416 502 416 482 c 256,329,330
 416 462 416 462 404 448 c 0,331,332
 399 442 399 442 392 438 c 1,333,-1
 392 438 l 1,334,335
 398 434 398 434 404 428 c 0,336,337
 416 414 416 414 416 394 c 256,338,339
 416 374 416 374 404 361 c 256,340,341
 392 347 392 347 375 347 c 1,342,-1
 375 347 l 1,308,309
125 520 m 1,343,344
 108 520 108 520 95 535 c 0,345,346
 83 548 83 548 83 568 c 256,347,348
 83 588 83 588 95 602 c 0,349,350
 108 616 108 616 125 616 c 0,351,352
 136 616 136 616 146 610 c 1,353,-1
 146 610 l 1,354,355
 154 616 154 616 166 616 c 128,-1,356
 178 616 178 616 188 610 c 1,357,-1
 188 610 l 1,358,359
 197 616 197 616 208 616 c 0,360,361
 220 616 220 616 229 610 c 1,362,-1
 229 610 l 1,363,364
 239 616 239 616 250 616 c 0,365,366
 262 616 262 616 271 610 c 1,367,-1
 271 610 l 1,368,369
 280 616 280 616 292 616 c 0,370,371
 309 616 309 616 321 602 c 0,372,373
 333.071428571 589 333.071428571 589 333.071428571 570.826530612 c 0,374,375
 333.071428571 548.077380952 333.071428571 548.077380952 321 535 c 0,376,377
 309 520 309 520 292 520 c 0,378,379
 280 520 280 520 271 527 c 1,380,-1
 271 527 l 1,381,382
 262 520 262 520 250 520 c 0,383,384
 239 520 239 520 229 527 c 1,385,386
 220 520 220 520 208 520 c 0,387,388
 198 520 198 520 188 527 c 1,389,-1
 188 527 l 1,390,391
 178 520 178 520 166 520 c 128,-1,392
 154 520 154 520 146 527 c 1,393,-1
 146 527 l 1,394,395
 136 520 136 520 125 520 c 1,396,-1
 125 520 l 1,343,344
EndSplineSet
EndChar

StartChar: colon
Encoding: 58 58 26
Width: 291
VWidth: 750
Flags: W
LayerCount: 2
Fore
SplineSet
20 -167 m 1,0,1
 20 -167 l 1,2,-1
 20 -167 l 1,3,4
 20 -167 l 1,5,-1
 20 -167 l 1,0,1
104 -167 m 1,6,7
 104 -167 l 1,8,-1
 104 -167 l 1,9,10
 104 -167 l 1,11,-1
 104 -167 l 1,6,7
188 -167 m 1,12,13
 188 -167 l 1,14,-1
 188 -167 l 1,15,16
 188 -167 l 1,17,-1
 188 -167 l 1,12,13
0 -173 m 1,18,19
 -17 -173 -17 -173 -29 -160 c 0,20,21
 -41 -146 -41 -146 -41 -125 c 256,22,23
 -41 -105 -41 -105 -29 -92 c 256,24,25
 -17 -78 -17 -78 0 -78 c 0,26,27
 11 -78 11 -78 20 -84 c 1,28,-1
 20 -84 l 1,29,30
 30 -78 30 -78 41 -78 c 0,31,32
 53 -78 53 -78 62 -84 c 1,33,-1
 62 -84 l 1,34,35
 72 -78 72 -78 83 -78 c 0,36,37
 95 -78 95 -78 104 -84 c 1,38,-1
 104 -84 l 1,39,40
 113 -78 113 -78 125 -78 c 0,41,42
 136 -78 136 -78 146 -84 c 1,43,-1
 146 -84 l 1,44,45
 154 -78 154 -78 166 -78 c 128,-1,46
 178 -78 178 -78 188 -84 c 1,47,-1
 188 -84 l 1,48,49
 197 -78 197 -78 208 -78 c 0,50,51
 220 -78 220 -78 229 -84 c 1,52,-1
 229 -84 l 1,53,54
 239 -78 239 -78 250 -78 c 0,55,56
 267 -78 267 -78 280 -92 c 0,57,58
 292 -106 292 -106 292 -125 c 256,59,60
 292 -145 292 -145 280 -160 c 0,61,62
 267.866666667 -173.066666667 267.866666667 -173.066666667 252.248888889 -173.066666667 c 0,63,64
 251.133333333 -173.066666667 251.133333333 -173.066666667 250 -173 c 0,65,66
 239 -173 239 -173 229 -167 c 1,67,68
 220 -173 220 -173 208 -173 c 0,69,70
 198 -173 198 -173 188 -167 c 1,71,-1
 188 -167 l 1,72,73
 178 -173 178 -173 166 -173 c 128,-1,74
 154 -173 154 -173 146 -167 c 1,75,-1
 146 -167 l 1,76,77
 136 -173 136 -173 125 -173 c 0,78,79
 113 -173 113 -173 104 -167 c 1,80,-1
 104 -167 l 1,81,82
 95 -173 95 -173 83 -173 c 0,83,84
 72 -173 72 -173 62 -167 c 1,85,-1
 62 -167 l 1,86,87
 53 -173 53 -173 41 -173 c 0,88,89
 30 -173 30 -173 20 -167 c 1,90,-1
 20 -167 l 1,91,92
 11 -173 11 -173 0 -173 c 1,93,-1
 0 -173 l 1,18,19
62 93 m 1,94,95
 62 93 l 1,96,-1
 62 93 l 1,97,98
 62 93 l 1,99,-1
 62 93 l 1,94,95
83 0 m 1,100,101
 66 0 66 0 54 14 c 0,102,103
 41 28 41 28 41 47 c 256,104,105
 41 67 41 67 54 81 c 0,106,107
 59 87 59 87 65 91 c 1,108,-1
 65 91 l 1,109,110
 63 92 63 92 62 93 c 1,111,112
 53 87 53 87 41 87 c 0,113,114
 39.8666666667 86.9333333333 39.8666666667 86.9333333333 38.7555555556 86.9333333333 c 0,115,116
 23.2 86.9333333333 23.2 86.9333333333 12 100 c 256,117,118
 0 114 0 114 0 134 c 256,119,120
 0 154 0 154 12 168 c 256,121,122
 24 182 24 182 41 182 c 0,123,124
 53 182 53 182 62 176 c 1,125,-1
 62 176 l 1,126,127
 64 177 64 177 65 178 c 1,128,-1
 65 178 l 1,129,130
 58 182 58 182 54 188 c 0,131,132
 41 202 41 202 41 221 c 256,133,134
 41 241 41 241 54 255 c 0,135,136
 66 268 66 268 83 268 c 256,137,138
 100 268 100 268 112 255 c 0,139,140
 124 241 124 241 125 221 c 256,141,142
 124 202 124 202 112 188 c 0,143,144
 106 182 106 182 100 178 c 1,145,-1
 100 178 l 1,146,147
 102 178 102 178 104 176 c 1,148,-1
 104 176 l 1,149,150
 113 182 113 182 125 182 c 0,151,152
 142 182 142 182 154 168 c 128,-1,153
 166 154 166 154 166 134 c 256,154,155
 166 114 166 114 154 100 c 0,156,157
 142.8 86.9333333333 142.8 86.9333333333 127.244444444 86.9333333333 c 0,158,159
 126.133333333 86.9333333333 126.133333333 86.9333333333 125 87 c 0,160,161
 113 87 113 87 104 93 c 1,162,-1
 104 93 l 1,163,164
 102 92 102 92 100 91 c 1,165,-1
 100 91 l 1,166,167
 106 88 106 88 112 81 c 0,168,169
 124 67 124 67 125 47 c 256,170,171
 124 27 124 27 112 14 c 0,172,173
 99 0 99 0 83 0 c 1,174,-1
 83 0 l 1,100,101
62 440 m 1,175,-1
 62 440 l 1,176,-1
 62 440 l 1,177,-1
 62 440 l 1,178,-1
 62 440 l 1,175,-1
104 440 m 1,179,-1
 104 440 l 1,180,-1
 104 440 l 1,181,182
 104 440 l 1,183,-1
 104 440 l 1,179,-1
83 347 m 1,184,185
 66 347 66 347 54 361 c 0,186,187
 41 374 41 374 41 394 c 256,188,189
 41 414 41 414 54 428 c 0,190,191
 59 434 59 434 65 438 c 1,192,-1
 65 438 l 1,193,194
 63 439 63 439 62 440 c 1,195,196
 53 434 53 434 41 434 c 0,197,198
 24 434 24 434 12 448 c 256,199,200
 0 462 0 462 0 482 c 256,201,202
 0 502 0 502 12 515 c 256,203,204
 24 530 24 530 41 530 c 0,205,206
 53 530 53 530 62 523 c 1,207,-1
 62 523 l 1,208,209
 64 524 64 524 65 525 c 1,210,-1
 65 525 l 1,211,212
 58 528 58 528 54 535 c 0,213,214
 41 548 41 548 41 568 c 256,215,216
 41 588 41 588 54 602 c 0,217,218
 66 616 66 616 83 616 c 256,219,220
 100 616 100 616 112 602 c 128,-1,221
 124 588 124 588 125 568 c 256,222,223
 124 548 124 548 112 535 c 0,224,225
 106 529 106 529 100 525 c 1,226,-1
 100 525 l 1,227,228
 102 524 102 524 104 523 c 1,229,-1
 104 523 l 1,230,231
 113 530 113 530 125 530 c 0,232,233
 142 530 142 530 154 515 c 0,234,235
 166 502 166 502 166 482 c 256,236,237
 166 462 166 462 154 448 c 128,-1,238
 142 434 142 434 125 434 c 0,239,240
 113 434 113 434 104 440 c 1,241,242
 102 439 102 439 100 438 c 1,243,-1
 100 438 l 1,244,245
 106 434 106 434 112 428 c 0,246,247
 124 414 124 414 125 394 c 256,248,249
 124 374 124 374 112 361 c 0,250,251
 99 347 99 347 83 347 c 1,252,-1
 83 347 l 1,184,185
EndSplineSet
EndChar

StartChar: semicolon
Encoding: 59 59 27
Width: 291
VWidth: 750
Flags: W
LayerCount: 2
Fore
SplineSet
20 -167 m 1,0,1
 20 -167 l 1,2,-1
 20 -167 l 1,3,4
 20 -167 l 1,5,-1
 20 -167 l 1,0,1
104 -167 m 1,6,7
 104 -167 l 1,8,-1
 104 -167 l 1,9,10
 104 -167 l 1,11,-1
 104 -167 l 1,6,7
188 -167 m 1,12,13
 188 -167 l 1,14,-1
 188 -167 l 1,15,16
 188 -167 l 1,17,-1
 188 -167 l 1,12,13
0 -173 m 1,18,19
 -17 -173 -17 -173 -29 -160 c 0,20,21
 -41 -146 -41 -146 -41 -125 c 256,22,23
 -41 -105 -41 -105 -29 -92 c 256,24,25
 -17 -78 -17 -78 0 -78 c 0,26,27
 11 -78 11 -78 20 -84 c 1,28,-1
 20 -84 l 1,29,30
 22 -82 22 -82 24 -82 c 1,31,-1
 24 -82 l 1,32,33
 18 -78 18 -78 12 -73 c 0,34,35
 0 -59 0 -59 0 -39 c 256,36,37
 0 -19 0 -19 12 -5 c 0,38,39
 23.2 8.06666666667 23.2 8.06666666667 38.7555555556 8.06666666667 c 0,40,41
 39.8666666667 8.06666666667 39.8666666667 8.06666666667 41 8 c 256,42,43
 58 8 58 8 71 -5 c 0,44,45
 83 -19 83 -19 83 -39 c 256,46,47
 83 -59 83 -59 71 -73 c 0,48,49
 66 -78 66 -78 59 -82 c 1,50,-1
 59 -82 l 1,51,52
 61 -83 61 -83 62 -84 c 1,53,-1
 62 -84 l 1,54,55
 72 -78 72 -78 83 -78 c 0,56,57
 95 -78 95 -78 104 -84 c 1,58,-1
 104 -84 l 1,59,60
 113 -78 113 -78 125 -78 c 0,61,62
 136 -78 136 -78 146 -84 c 1,63,-1
 146 -84 l 1,64,65
 154 -78 154 -78 166 -78 c 128,-1,66
 178 -78 178 -78 188 -84 c 1,67,-1
 188 -84 l 1,68,69
 197 -78 197 -78 208 -78 c 0,70,71
 220 -78 220 -78 229 -84 c 1,72,-1
 229 -84 l 1,73,74
 239 -78 239 -78 250 -78 c 0,75,76
 267 -78 267 -78 280 -92 c 0,77,78
 292 -106 292 -106 292 -125 c 256,79,80
 292 -145 292 -145 280 -160 c 0,81,82
 267.866666667 -173.066666667 267.866666667 -173.066666667 252.248888889 -173.066666667 c 0,83,84
 251.133333333 -173.066666667 251.133333333 -173.066666667 250 -173 c 0,85,86
 239 -173 239 -173 229 -167 c 1,87,88
 220 -173 220 -173 208 -173 c 0,89,90
 198 -173 198 -173 188 -167 c 1,91,-1
 188 -167 l 1,92,93
 178 -173 178 -173 166 -173 c 128,-1,94
 154 -173 154 -173 146 -167 c 1,95,-1
 146 -167 l 1,96,97
 136 -173 136 -173 125 -173 c 0,98,99
 113 -173 113 -173 104 -167 c 1,100,-1
 104 -167 l 1,101,102
 95 -173 95 -173 83 -173 c 0,103,104
 72 -173 72 -173 62 -167 c 1,105,-1
 62 -167 l 1,106,107
 53 -173 53 -173 41 -173 c 0,108,109
 30 -173 30 -173 20 -167 c 1,110,-1
 20 -167 l 1,111,112
 11 -173 11 -173 0 -173 c 1,113,-1
 0 -173 l 1,18,19
62 93 m 1,114,-1
 62 93 l 1,115,-1
 62 93 l 1,116,-1
 62 93 l 1,117,-1
 62 93 l 1,114,-1
104 93 m 1,118,119
 104 93 l 1,120,-1
 104 93 l 1,121,122
 104 93 l 1,123,-1
 104 93 l 1,118,119
83 0 m 1,124,125
 66 0 66 0 54 14 c 0,126,127
 41 28 41 28 41 47 c 256,128,129
 41 67 41 67 54 81 c 0,130,131
 59 87 59 87 65 91 c 1,132,-1
 65 91 l 1,133,134
 63 92 63 92 62 93 c 1,135,-1
 62 93 l 1,136,137
 53 87 53 87 41 87 c 0,138,139
 39.8666666667 86.9333333333 39.8666666667 86.9333333333 38.7555555556 86.9333333333 c 0,140,141
 23.2 86.9333333333 23.2 86.9333333333 12 100 c 256,142,143
 0 114 0 114 0 134 c 256,144,145
 0 154 0 154 12 168 c 256,146,147
 24 182 24 182 41 182 c 0,148,149
 53 182 53 182 62 176 c 1,150,-1
 62 176 l 1,151,152
 64 177 64 177 65 178 c 1,153,-1
 65 178 l 1,154,155
 58 182 58 182 54 188 c 0,156,157
 41 202 41 202 41 221 c 256,158,159
 41 241 41 241 54 255 c 0,160,161
 66 268 66 268 83 268 c 256,162,163
 100 268 100 268 112 255 c 0,164,165
 124 241 124 241 125 221 c 256,166,167
 124 202 124 202 112 188 c 0,168,169
 106 182 106 182 100 178 c 1,170,-1
 100 178 l 1,171,172
 102 178 102 178 104 176 c 1,173,-1
 104 176 l 1,174,175
 113 182 113 182 125 182 c 0,176,177
 142 182 142 182 154 168 c 128,-1,178
 166 154 166 154 166 134 c 256,179,180
 166 114 166 114 154 100 c 0,181,182
 142.8 86.9333333333 142.8 86.9333333333 127.244444444 86.9333333333 c 0,183,184
 126.133333333 86.9333333333 126.133333333 86.9333333333 125 87 c 0,185,186
 113 87 113 87 104 93 c 1,187,-1
 104 93 l 1,188,189
 102 92 102 92 100 91 c 1,190,-1
 100 91 l 1,191,192
 106 88 106 88 112 81 c 0,193,194
 124 67 124 67 125 47 c 256,195,196
 124 27 124 27 112 14 c 0,197,198
 99 0 99 0 83 0 c 1,199,-1
 83 0 l 1,124,125
62 440 m 1,200,-1
 62 440 l 1,201,-1
 62 440 l 1,202,-1
 62 440 l 1,203,-1
 62 440 l 1,200,-1
83 347 m 1,204,205
 66 347 66 347 54 361 c 0,206,207
 41 374 41 374 41 394 c 256,208,209
 41 414 41 414 54 428 c 0,210,211
 59 434 59 434 65 438 c 1,212,-1
 65 438 l 1,213,214
 63 439 63 439 62 440 c 1,215,-1
 62 440 l 1,216,217
 53 434 53 434 41 434 c 0,218,219
 24 434 24 434 12 448 c 256,220,221
 0 462 0 462 0 482 c 256,222,223
 0 502 0 502 12 515 c 256,224,225
 24 530 24 530 41 530 c 0,226,227
 53 530 53 530 62 523 c 1,228,-1
 62 523 l 1,229,230
 64 524 64 524 65 525 c 1,231,-1
 65 525 l 1,232,233
 58 528 58 528 54 535 c 0,234,235
 41 548 41 548 41 568 c 256,236,237
 41 588 41 588 54 602 c 0,238,239
 66 616 66 616 83 616 c 256,240,241
 100 616 100 616 112 602 c 128,-1,242
 124 588 124 588 125 568 c 256,243,244
 124 548 124 548 112 535 c 0,245,246
 106 529 106 529 100 525 c 1,247,-1
 100 525 l 1,248,249
 102 524 102 524 104 523 c 1,250,-1
 104 523 l 1,251,252
 113 530 113 530 125 530 c 0,253,254
 142 530 142 530 154 515 c 0,255,256
 166 502 166 502 166 482 c 256,257,258
 166 462 166 462 154 448 c 128,-1,259
 142 434 142 434 125 434 c 0,260,261
 113 434 113 434 104 440 c 1,262,-1
 104 440 l 1,263,264
 102 439 102 439 100 438 c 1,265,-1
 100 438 l 1,266,267
 106 434 106 434 112 428 c 0,268,269
 124 414 124 414 125 394 c 256,270,271
 124 374 124 374 112 361 c 0,272,273
 99 347 99 347 83 347 c 1,274,-1
 83 347 l 1,204,205
EndSplineSet
EndChar

